<svg width="600" height="150" viewBox="0 0 600 150" xmlns="http://www.w3.org/2000/svg">
  <defs>
    <filter id="shadow2" x="-2%" y="-2%" width="104%" height="108%">
      <feDropShadow dx="0" dy="2" stdDeviation="3" flood-opacity="0.1" />
    </filter>
    <linearGradient id="fillGrad" x1="0" y1="0" x2="0" y2="1">
      <stop offset="0%" stop-color="#0366d6" stop-opacity="0.3"/>
      <stop offset="100%" stop-color="#0366d6" stop-opacity="0.02"/>
    </linearGradient>
  </defs>
  <rect width="600" height="150" rx="12" fill="#ffffff" filter="url(#shadow2)" stroke="#e1e4e8" stroke-width="1"/>
  <text x="20" y="24" fill="#2b3137" font-family="-apple-system,BlinkMacSystemFont,'Segoe UI',Helvetica,Arial,sans-serif" font-size="14" font-weight="600">📈 Download Growth (Actual: 78.0k)</text>
  
  <!-- Area sotto la linea -->
  <polygon fill="url(#fillGrad)" points="30.0,120.0,120 30.0,120.0 32.6,119.1 35.2,118.1 37.8,117.2 40.4,117.0 43.0,116.6 45.7,115.5 48.3,114.8 50.9,114.3 53.5,113.2 56.1,112.7 58.7,112.2 61.3,111.8 63.9,111.3 66.5,110.6 69.1,109.8 71.7,109.2 74.3,108.8 77.0,108.6 79.6,108.1 82.2,107.5 84.8,107.0 87.4,106.7 90.0,106.3 92.6,104.5 95.2,104.0 97.8,103.4 100.4,102.7 103.0,102.1 105.7,101.5 108.3,101.2 110.9,100.9 113.5,100.4 116.1,99.6 118.7,98.8 121.3,98.4 123.9,97.8 126.5,97.6 129.1,97.5 131.7,97.2 134.3,96.6 137.0,96.3 139.6,96.1 142.2,95.4 144.8,94.5 147.4,94.3 150.0,94.1 152.6,93.8 155.2,93.0 157.8,92.6 160.4,91.8 163.0,91.3 165.7,90.6 168.3,90.4 170.9,90.0 173.5,89.4 176.1,88.7 178.7,88.1 181.3,87.9 183.9,87.6 186.5,87.3 189.1,86.5 191.7,85.8 194.3,85.1 197.0,84.5 199.6,84.2 202.2,84.0 204.8,83.7 207.4,83.2 210.0,82.8 212.6,82.5 215.2,82.3 217.8,82.0 220.4,81.7 223.0,81.4 225.7,81.3 228.3,81.1 230.9,80.4 233.5,80.0 236.1,79.9 238.7,79.6 241.3,79.5 243.9,79.5 246.5,91.1 249.1,89.9 251.7,88.9 254.3,87.8 257.0,84.7 259.6,82.5 262.2,80.1 264.8,79.2 267.4,78.2 270.0,76.6 272.6,74.8 275.2,73.5 277.8,73.1 280.4,72.6 283.0,71.3 285.7,70.4 288.3,69.8 290.9,69.1 293.5,68.8 296.1,68.6 298.7,68.0 301.3,66.9 303.9,66.1 306.5,65.3 309.1,64.5 311.7,64.0 314.3,63.7 317.0,63.0 319.6,62.3 322.2,61.7 324.8,61.2 327.4,60.9 330.0,60.8 332.6,60.4 335.2,59.8 337.8,59.4 340.4,59.0 343.0,58.6 345.7,58.3 348.3,58.0 350.9,57.7 353.5,57.4 356.1,57.1 358.7,56.5 361.3,56.1 363.9,55.5 366.5,55.2 369.1,54.9 371.7,54.7 374.3,54.4 377.0,54.1 379.6,53.3 382.2,52.7 384.8,52.0 387.4,51.7 390.0,51.7 392.6,51.3 395.2,51.0 397.8,50.5 400.4,50.1 403.0,49.6 405.7,49.3 408.3,49.1 410.9,48.9 413.5,48.6 416.1,48.4 418.7,48.1 421.3,47.8 423.9,47.3 426.5,47.0 429.1,46.9 431.7,46.6 434.3,46.5 437.0,46.0 439.6,45.7 442.2,45.3 444.8,44.9 447.4,44.6 450.0,44.3 452.6,44.1 455.2,43.9 457.8,43.4 460.4,42.9 463.0,42.5 465.7,42.2 468.3,41.5 470.9,41.4 473.5,41.2 476.1,41.0 478.7,40.7 481.3,40.4 483.9,40.1 486.5,39.8 489.1,39.5 491.7,39.3 494.3,39.0 497.0,38.8 499.6,38.6 502.2,38.3 504.8,37.8 507.4,37.6 510.0,37.3 512.6,36.9 515.2,36.6 517.8,36.4 520.4,36.2 523.0,35.9 525.7,35.4 528.3,34.8 530.9,34.4 533.5,34.1 536.1,34.0 538.7,33.6 541.3,33.2 543.9,33.0 546.5,32.8 549.1,32.3 551.7,32.2 554.3,31.9 557.0,31.7 559.6,31.4 562.2,31.1 564.8,30.8 567.4,30.4 570.0,30.0 570.0,30.0,120" />
  
  <!-- Linea principale -->
  <polyline fill="none" stroke="#0366d6" stroke-width="2.5" stroke-linecap="round" stroke-linejoin="round" points="30.0,120.0 32.6,119.1 35.2,118.1 37.8,117.2 40.4,117.0 43.0,116.6 45.7,115.5 48.3,114.8 50.9,114.3 53.5,113.2 56.1,112.7 58.7,112.2 61.3,111.8 63.9,111.3 66.5,110.6 69.1,109.8 71.7,109.2 74.3,108.8 77.0,108.6 79.6,108.1 82.2,107.5 84.8,107.0 87.4,106.7 90.0,106.3 92.6,104.5 95.2,104.0 97.8,103.4 100.4,102.7 103.0,102.1 105.7,101.5 108.3,101.2 110.9,100.9 113.5,100.4 116.1,99.6 118.7,98.8 121.3,98.4 123.9,97.8 126.5,97.6 129.1,97.5 131.7,97.2 134.3,96.6 137.0,96.3 139.6,96.1 142.2,95.4 144.8,94.5 147.4,94.3 150.0,94.1 152.6,93.8 155.2,93.0 157.8,92.6 160.4,91.8 163.0,91.3 165.7,90.6 168.3,90.4 170.9,90.0 173.5,89.4 176.1,88.7 178.7,88.1 181.3,87.9 183.9,87.6 186.5,87.3 189.1,86.5 191.7,85.8 194.3,85.1 197.0,84.5 199.6,84.2 202.2,84.0 204.8,83.7 207.4,83.2 210.0,82.8 212.6,82.5 215.2,82.3 217.8,82.0 220.4,81.7 223.0,81.4 225.7,81.3 228.3,81.1 230.9,80.4 233.5,80.0 236.1,79.9 238.7,79.6 241.3,79.5 243.9,79.5 246.5,91.1 249.1,89.9 251.7,88.9 254.3,87.8 257.0,84.7 259.6,82.5 262.2,80.1 264.8,79.2 267.4,78.2 270.0,76.6 272.6,74.8 275.2,73.5 277.8,73.1 280.4,72.6 283.0,71.3 285.7,70.4 288.3,69.8 290.9,69.1 293.5,68.8 296.1,68.6 298.7,68.0 301.3,66.9 303.9,66.1 306.5,65.3 309.1,64.5 311.7,64.0 314.3,63.7 317.0,63.0 319.6,62.3 322.2,61.7 324.8,61.2 327.4,60.9 330.0,60.8 332.6,60.4 335.2,59.8 337.8,59.4 340.4,59.0 343.0,58.6 345.7,58.3 348.3,58.0 350.9,57.7 353.5,57.4 356.1,57.1 358.7,56.5 361.3,56.1 363.9,55.5 366.5,55.2 369.1,54.9 371.7,54.7 374.3,54.4 377.0,54.1 379.6,53.3 382.2,52.7 384.8,52.0 387.4,51.7 390.0,51.7 392.6,51.3 395.2,51.0 397.8,50.5 400.4,50.1 403.0,49.6 405.7,49.3 408.3,49.1 410.9,48.9 413.5,48.6 416.1,48.4 418.7,48.1 421.3,47.8 423.9,47.3 426.5,47.0 429.1,46.9 431.7,46.6 434.3,46.5 437.0,46.0 439.6,45.7 442.2,45.3 444.8,44.9 447.4,44.6 450.0,44.3 452.6,44.1 455.2,43.9 457.8,43.4 460.4,42.9 463.0,42.5 465.7,42.2 468.3,41.5 470.9,41.4 473.5,41.2 476.1,41.0 478.7,40.7 481.3,40.4 483.9,40.1 486.5,39.8 489.1,39.5 491.7,39.3 494.3,39.0 497.0,38.8 499.6,38.6 502.2,38.3 504.8,37.8 507.4,37.6 510.0,37.3 512.6,36.9 515.2,36.6 517.8,36.4 520.4,36.2 523.0,35.9 525.7,35.4 528.3,34.8 530.9,34.4 533.5,34.1 536.1,34.0 538.7,33.6 541.3,33.2 543.9,33.0 546.5,32.8 549.1,32.3 551.7,32.2 554.3,31.9 557.0,31.7 559.6,31.4 562.2,31.1 564.8,30.8 567.4,30.4 570.0,30.0" />
  
  <!-- Punto finale luminoso -->
  <circle cx="570.0" cy="30.0" r="4" fill="#ffffff" stroke="#0366d6" stroke-width="2.5" />
</svg>