<svg width="600" height="150" viewBox="0 0 600 150" xmlns="http://www.w3.org/2000/svg">
  <defs>
    <filter id="shadow2" x="-2%" y="-2%" width="104%" height="108%">
      <feDropShadow dx="0" dy="2" stdDeviation="3" flood-opacity="0.1" />
    </filter>
    <linearGradient id="fillGrad" x1="0" y1="0" x2="0" y2="1">
      <stop offset="0%" stop-color="#0366d6" stop-opacity="0.3"/>
      <stop offset="100%" stop-color="#0366d6" stop-opacity="0.02"/>
    </linearGradient>
  </defs>
  <rect width="600" height="150" rx="12" fill="#ffffff" filter="url(#shadow2)" stroke="#e1e4e8" stroke-width="1"/>
  <text x="20" y="24" fill="#2b3137" font-family="-apple-system,BlinkMacSystemFont,'Segoe UI',Helvetica,Arial,sans-serif" font-size="14" font-weight="600">📈 Download Growth (Actual: 77.4k)</text>
  
  <!-- Area sotto la linea -->
  <polygon fill="url(#fillGrad)" points="30.0,120.0,120 30.0,120.0 32.8,119.0 35.7,118.0 38.5,117.1 41.3,116.8 44.1,116.4 47.0,115.3 49.8,114.5 52.6,114.0 55.4,112.9 58.3,112.3 61.1,111.7 63.9,111.4 66.8,110.9 69.6,110.1 72.4,109.3 75.2,108.6 78.1,108.2 80.9,107.9 83.7,107.4 86.5,106.8 89.4,106.2 92.2,106.0 95.0,105.5 97.9,103.7 100.7,103.1 103.5,102.4 106.3,101.7 109.2,101.1 112.0,100.5 114.8,100.1 117.6,99.8 120.5,99.3 123.3,98.4 126.1,97.6 129.0,97.1 131.8,96.5 134.6,96.3 137.4,96.2 140.3,95.9 143.1,95.3 145.9,95.0 148.7,94.7 151.6,94.1 154.4,93.1 157.2,92.8 160.1,92.7 162.9,92.3 165.7,91.5 168.5,91.0 171.4,90.2 174.2,89.6 177.0,88.9 179.8,88.8 182.7,88.3 185.5,87.6 188.3,86.9 191.2,86.3 194.0,86.1 196.8,85.7 199.6,85.4 202.5,84.6 205.3,83.8 208.1,83.1 210.9,82.5 213.8,82.1 216.6,81.9 219.4,81.6 222.3,81.1 225.1,80.7 227.9,80.4 230.7,80.1 233.6,79.9 236.4,79.5 239.2,79.2 242.0,79.1 244.9,78.9 247.7,78.1 250.5,77.7 253.4,77.6 256.2,77.3 259.0,77.2 261.8,77.2 264.7,89.4 267.5,88.2 270.3,87.1 273.1,86.0 276.0,82.7 278.8,80.3 281.6,77.8 284.5,76.9 287.3,75.9 290.1,74.1 292.9,72.3 295.8,70.9 298.6,70.4 301.4,69.9 304.2,68.6 307.1,67.6 309.9,67.0 312.7,66.2 315.5,65.8 318.4,65.7 321.2,65.0 324.0,63.9 326.9,63.0 329.7,62.2 332.5,61.3 335.3,60.9 338.2,60.5 341.0,59.7 343.8,59.0 346.6,58.3 349.5,57.8 352.3,57.6 355.1,57.4 358.0,57.0 360.8,56.4 363.6,55.9 366.4,55.5 369.3,55.1 372.1,54.8 374.9,54.4 377.7,54.1 380.6,53.8 383.4,53.5 386.2,52.9 389.1,52.4 391.9,51.9 394.7,51.5 397.5,51.2 400.4,50.9 403.2,50.7 406.0,50.4 408.8,49.5 411.7,48.9 414.5,48.2 417.3,47.9 420.2,47.8 423.0,47.4 425.8,47.1 428.6,46.6 431.5,46.2 434.3,45.6 437.1,45.3 439.9,45.1 442.8,44.8 445.6,44.6 448.4,44.3 451.3,44.0 454.1,43.7 456.9,43.1 459.7,42.9 462.6,42.7 465.4,42.5 468.2,42.3 471.0,41.8 473.9,41.5 476.7,41.0 479.5,40.7 482.4,40.3 485.2,40.0 488.0,39.8 490.8,39.5 493.7,39.0 496.5,38.5 499.3,38.1 502.1,37.7 505.0,37.1 507.8,36.9 510.6,36.7 513.5,36.5 516.3,36.2 519.1,35.9 521.9,35.5 524.8,35.2 527.6,34.9 530.4,34.7 533.2,34.4 536.1,34.1 538.9,34.0 541.7,33.7 544.6,33.2 547.4,33.0 550.2,32.6 553.0,32.1 555.9,31.8 558.7,31.6 561.5,31.4 564.3,31.1 567.2,30.6 570.0,30.0 570.0,30.0,120" />
  
  <!-- Linea principale -->
  <polyline fill="none" stroke="#0366d6" stroke-width="2.5" stroke-linecap="round" stroke-linejoin="round" points="30.0,120.0 32.8,119.0 35.7,118.0 38.5,117.1 41.3,116.8 44.1,116.4 47.0,115.3 49.8,114.5 52.6,114.0 55.4,112.9 58.3,112.3 61.1,111.7 63.9,111.4 66.8,110.9 69.6,110.1 72.4,109.3 75.2,108.6 78.1,108.2 80.9,107.9 83.7,107.4 86.5,106.8 89.4,106.2 92.2,106.0 95.0,105.5 97.9,103.7 100.7,103.1 103.5,102.4 106.3,101.7 109.2,101.1 112.0,100.5 114.8,100.1 117.6,99.8 120.5,99.3 123.3,98.4 126.1,97.6 129.0,97.1 131.8,96.5 134.6,96.3 137.4,96.2 140.3,95.9 143.1,95.3 145.9,95.0 148.7,94.7 151.6,94.1 154.4,93.1 157.2,92.8 160.1,92.7 162.9,92.3 165.7,91.5 168.5,91.0 171.4,90.2 174.2,89.6 177.0,88.9 179.8,88.8 182.7,88.3 185.5,87.6 188.3,86.9 191.2,86.3 194.0,86.1 196.8,85.7 199.6,85.4 202.5,84.6 205.3,83.8 208.1,83.1 210.9,82.5 213.8,82.1 216.6,81.9 219.4,81.6 222.3,81.1 225.1,80.7 227.9,80.4 230.7,80.1 233.6,79.9 236.4,79.5 239.2,79.2 242.0,79.1 244.9,78.9 247.7,78.1 250.5,77.7 253.4,77.6 256.2,77.3 259.0,77.2 261.8,77.2 264.7,89.4 267.5,88.2 270.3,87.1 273.1,86.0 276.0,82.7 278.8,80.3 281.6,77.8 284.5,76.9 287.3,75.9 290.1,74.1 292.9,72.3 295.8,70.9 298.6,70.4 301.4,69.9 304.2,68.6 307.1,67.6 309.9,67.0 312.7,66.2 315.5,65.8 318.4,65.7 321.2,65.0 324.0,63.9 326.9,63.0 329.7,62.2 332.5,61.3 335.3,60.9 338.2,60.5 341.0,59.7 343.8,59.0 346.6,58.3 349.5,57.8 352.3,57.6 355.1,57.4 358.0,57.0 360.8,56.4 363.6,55.9 366.4,55.5 369.3,55.1 372.1,54.8 374.9,54.4 377.7,54.1 380.6,53.8 383.4,53.5 386.2,52.9 389.1,52.4 391.9,51.9 394.7,51.5 397.5,51.2 400.4,50.9 403.2,50.7 406.0,50.4 408.8,49.5 411.7,48.9 414.5,48.2 417.3,47.9 420.2,47.8 423.0,47.4 425.8,47.1 428.6,46.6 431.5,46.2 434.3,45.6 437.1,45.3 439.9,45.1 442.8,44.8 445.6,44.6 448.4,44.3 451.3,44.0 454.1,43.7 456.9,43.1 459.7,42.9 462.6,42.7 465.4,42.5 468.2,42.3 471.0,41.8 473.9,41.5 476.7,41.0 479.5,40.7 482.4,40.3 485.2,40.0 488.0,39.8 490.8,39.5 493.7,39.0 496.5,38.5 499.3,38.1 502.1,37.7 505.0,37.1 507.8,36.9 510.6,36.7 513.5,36.5 516.3,36.2 519.1,35.9 521.9,35.5 524.8,35.2 527.6,34.9 530.4,34.7 533.2,34.4 536.1,34.1 538.9,34.0 541.7,33.7 544.6,33.2 547.4,33.0 550.2,32.6 553.0,32.1 555.9,31.8 558.7,31.6 561.5,31.4 564.3,31.1 567.2,30.6 570.0,30.0" />
  
  <!-- Punto finale luminoso -->
  <circle cx="570.0" cy="30.0" r="4" fill="#ffffff" stroke="#0366d6" stroke-width="2.5" />
</svg>