<svg width="600" height="150" viewBox="0 0 600 150" xmlns="http://www.w3.org/2000/svg">
  <defs>
    <filter id="shadow2" x="-2%" y="-2%" width="104%" height="108%">
      <feDropShadow dx="0" dy="2" stdDeviation="3" flood-opacity="0.1" />
    </filter>
    <linearGradient id="fillGrad" x1="0" y1="0" x2="0" y2="1">
      <stop offset="0%" stop-color="#0366d6" stop-opacity="0.3"/>
      <stop offset="100%" stop-color="#0366d6" stop-opacity="0.02"/>
    </linearGradient>
  </defs>
  <rect width="600" height="150" rx="12" fill="#ffffff" filter="url(#shadow2)" stroke="#e1e4e8" stroke-width="1"/>
  <text x="20" y="24" fill="#2b3137" font-family="-apple-system,BlinkMacSystemFont,'Segoe UI',Helvetica,Arial,sans-serif" font-size="14" font-weight="600">📈 Download Growth (Actual: 77.9k)</text>
  
  <!-- Area sotto la linea -->
  <polygon fill="url(#fillGrad)" points="30.0,120.0,120 30.0,120.0 32.6,119.1 35.2,118.1 37.9,117.2 40.5,117.0 43.1,116.5 45.7,115.5 48.3,114.8 51.0,114.3 53.6,113.2 56.2,112.7 58.8,112.1 61.5,111.8 64.1,111.3 66.7,110.6 69.3,109.8 71.9,109.2 74.6,108.8 77.2,108.5 79.8,108.0 82.4,107.4 85.0,106.9 87.7,106.7 90.3,106.2 92.9,104.5 95.5,104.0 98.2,103.3 100.8,102.6 103.4,102.0 106.0,101.5 108.6,101.1 111.3,100.8 113.9,100.3 116.5,99.5 119.1,98.8 121.7,98.3 124.4,97.7 127.0,97.5 129.6,97.4 132.2,97.1 134.9,96.5 137.5,96.2 140.1,96.0 142.7,95.4 145.3,94.4 148.0,94.2 150.6,94.0 153.2,93.7 155.8,92.9 158.4,92.4 161.1,91.7 163.7,91.1 166.3,90.5 168.9,90.3 171.6,89.9 174.2,89.2 176.8,88.5 179.4,88.0 182.0,87.8 184.7,87.4 187.3,87.1 189.9,86.3 192.5,85.6 195.1,85.0 197.8,84.4 200.4,84.0 203.0,83.8 205.6,83.6 208.3,83.0 210.9,82.7 213.5,82.4 216.1,82.1 218.7,81.9 221.4,81.5 224.0,81.3 226.6,81.1 229.2,80.9 231.8,80.2 234.5,79.8 237.1,79.7 239.7,79.5 242.3,79.3 245.0,79.3 247.6,91.0 250.2,89.8 252.8,88.8 255.4,87.7 258.1,84.5 260.7,82.3 263.3,79.9 265.9,79.1 268.5,78.1 271.2,76.4 273.8,74.7 276.4,73.4 279.0,72.9 281.7,72.4 284.3,71.1 286.9,70.2 289.5,69.6 292.1,68.9 294.8,68.6 297.4,68.4 300.0,67.7 302.6,66.7 305.2,65.9 307.9,65.1 310.5,64.2 313.1,63.8 315.7,63.5 318.3,62.8 321.0,62.1 323.6,61.4 326.2,60.9 328.8,60.7 331.5,60.5 334.1,60.1 336.7,59.6 339.3,59.1 341.9,58.7 344.6,58.4 347.2,58.0 349.8,57.7 352.4,57.4 355.0,57.1 357.7,56.8 360.3,56.2 362.9,55.8 365.5,55.3 368.2,55.0 370.8,54.6 373.4,54.4 376.0,54.1 378.6,53.9 381.3,53.0 383.9,52.5 386.5,51.8 389.1,51.5 391.7,51.4 394.4,51.1 397.0,50.7 399.6,50.3 402.2,49.9 404.9,49.3 407.5,49.0 410.1,48.8 412.7,48.6 415.3,48.3 418.0,48.1 420.6,47.8 423.2,47.5 425.8,47.0 428.4,46.7 431.1,46.6 433.7,46.3 436.3,46.2 438.9,45.7 441.6,45.4 444.2,45.0 446.8,44.6 449.4,44.3 452.0,44.0 454.7,43.8 457.3,43.6 459.9,43.1 462.5,42.6 465.1,42.2 467.8,41.9 470.4,41.2 473.0,41.1 475.6,40.9 478.3,40.7 480.9,40.4 483.5,40.1 486.1,39.7 488.7,39.5 491.4,39.2 494.0,38.9 496.6,38.7 499.2,38.4 501.8,38.3 504.5,38.0 507.1,37.5 509.7,37.3 512.3,36.9 515.0,36.5 517.6,36.2 520.2,36.1 522.8,35.8 525.4,35.5 528.1,35.1 530.7,34.5 533.3,34.1 535.9,33.8 538.5,33.7 541.2,33.2 543.8,32.8 546.4,32.6 549.0,32.4 551.7,32.0 554.3,31.8 556.9,31.5 559.5,31.3 562.1,31.1 564.8,30.7 567.4,30.4 570.0,30.0 570.0,30.0,120" />
  
  <!-- Linea principale -->
  <polyline fill="none" stroke="#0366d6" stroke-width="2.5" stroke-linecap="round" stroke-linejoin="round" points="30.0,120.0 32.6,119.1 35.2,118.1 37.9,117.2 40.5,117.0 43.1,116.5 45.7,115.5 48.3,114.8 51.0,114.3 53.6,113.2 56.2,112.7 58.8,112.1 61.5,111.8 64.1,111.3 66.7,110.6 69.3,109.8 71.9,109.2 74.6,108.8 77.2,108.5 79.8,108.0 82.4,107.4 85.0,106.9 87.7,106.7 90.3,106.2 92.9,104.5 95.5,104.0 98.2,103.3 100.8,102.6 103.4,102.0 106.0,101.5 108.6,101.1 111.3,100.8 113.9,100.3 116.5,99.5 119.1,98.8 121.7,98.3 124.4,97.7 127.0,97.5 129.6,97.4 132.2,97.1 134.9,96.5 137.5,96.2 140.1,96.0 142.7,95.4 145.3,94.4 148.0,94.2 150.6,94.0 153.2,93.7 155.8,92.9 158.4,92.4 161.1,91.7 163.7,91.1 166.3,90.5 168.9,90.3 171.6,89.9 174.2,89.2 176.8,88.5 179.4,88.0 182.0,87.8 184.7,87.4 187.3,87.1 189.9,86.3 192.5,85.6 195.1,85.0 197.8,84.4 200.4,84.0 203.0,83.8 205.6,83.6 208.3,83.0 210.9,82.7 213.5,82.4 216.1,82.1 218.7,81.9 221.4,81.5 224.0,81.3 226.6,81.1 229.2,80.9 231.8,80.2 234.5,79.8 237.1,79.7 239.7,79.5 242.3,79.3 245.0,79.3 247.6,91.0 250.2,89.8 252.8,88.8 255.4,87.7 258.1,84.5 260.7,82.3 263.3,79.9 265.9,79.1 268.5,78.1 271.2,76.4 273.8,74.7 276.4,73.4 279.0,72.9 281.7,72.4 284.3,71.1 286.9,70.2 289.5,69.6 292.1,68.9 294.8,68.6 297.4,68.4 300.0,67.7 302.6,66.7 305.2,65.9 307.9,65.1 310.5,64.2 313.1,63.8 315.7,63.5 318.3,62.8 321.0,62.1 323.6,61.4 326.2,60.9 328.8,60.7 331.5,60.5 334.1,60.1 336.7,59.6 339.3,59.1 341.9,58.7 344.6,58.4 347.2,58.0 349.8,57.7 352.4,57.4 355.0,57.1 357.7,56.8 360.3,56.2 362.9,55.8 365.5,55.3 368.2,55.0 370.8,54.6 373.4,54.4 376.0,54.1 378.6,53.9 381.3,53.0 383.9,52.5 386.5,51.8 389.1,51.5 391.7,51.4 394.4,51.1 397.0,50.7 399.6,50.3 402.2,49.9 404.9,49.3 407.5,49.0 410.1,48.8 412.7,48.6 415.3,48.3 418.0,48.1 420.6,47.8 423.2,47.5 425.8,47.0 428.4,46.7 431.1,46.6 433.7,46.3 436.3,46.2 438.9,45.7 441.6,45.4 444.2,45.0 446.8,44.6 449.4,44.3 452.0,44.0 454.7,43.8 457.3,43.6 459.9,43.1 462.5,42.6 465.1,42.2 467.8,41.9 470.4,41.2 473.0,41.1 475.6,40.9 478.3,40.7 480.9,40.4 483.5,40.1 486.1,39.7 488.7,39.5 491.4,39.2 494.0,38.9 496.6,38.7 499.2,38.4 501.8,38.3 504.5,38.0 507.1,37.5 509.7,37.3 512.3,36.9 515.0,36.5 517.6,36.2 520.2,36.1 522.8,35.8 525.4,35.5 528.1,35.1 530.7,34.5 533.3,34.1 535.9,33.8 538.5,33.7 541.2,33.2 543.8,32.8 546.4,32.6 549.0,32.4 551.7,32.0 554.3,31.8 556.9,31.5 559.5,31.3 562.1,31.1 564.8,30.7 567.4,30.4 570.0,30.0" />
  
  <!-- Punto finale luminoso -->
  <circle cx="570.0" cy="30.0" r="4" fill="#ffffff" stroke="#0366d6" stroke-width="2.5" />
</svg>