<svg width="600" height="150" viewBox="0 0 600 150" xmlns="http://www.w3.org/2000/svg">
  <defs>
    <filter id="shadow2" x="-2%" y="-2%" width="104%" height="108%">
      <feDropShadow dx="0" dy="2" stdDeviation="3" flood-opacity="0.1" />
    </filter>
    <linearGradient id="fillGrad" x1="0" y1="0" x2="0" y2="1">
      <stop offset="0%" stop-color="#0366d6" stop-opacity="0.3"/>
      <stop offset="100%" stop-color="#0366d6" stop-opacity="0.02"/>
    </linearGradient>
  </defs>
  <rect width="600" height="150" rx="12" fill="#ffffff" filter="url(#shadow2)" stroke="#e1e4e8" stroke-width="1"/>
  <text x="20" y="24" fill="#2b3137" font-family="-apple-system,BlinkMacSystemFont,'Segoe UI',Helvetica,Arial,sans-serif" font-size="14" font-weight="600">📈 Download Growth (Actual: 77.7k)</text>
  
  <!-- Area sotto la linea -->
  <polygon fill="url(#fillGrad)" points="30.0,120.0,120 30.0,120.0 32.7,119.1 35.4,118.1 38.1,117.2 40.7,117.0 43.4,116.5 46.1,115.4 48.8,114.7 51.5,114.2 54.2,113.1 56.9,112.5 59.6,112.0 62.2,111.7 64.9,111.2 67.6,110.4 70.3,109.6 73.0,109.0 75.7,108.6 78.4,108.3 81.0,107.8 83.7,107.2 86.4,106.7 89.1,106.5 91.8,106.0 94.5,104.2 97.2,103.7 99.9,103.0 102.5,102.3 105.2,101.7 107.9,101.1 110.6,100.8 113.3,100.5 116.0,100.0 118.7,99.1 121.3,98.4 124.0,97.9 126.7,97.3 129.4,97.1 132.1,97.0 134.8,96.7 137.5,96.1 140.1,95.8 142.8,95.6 145.5,94.9 148.2,94.0 150.9,93.8 153.6,93.6 156.3,93.2 159.0,92.5 161.6,92.0 164.3,91.2 167.0,90.6 169.7,90.0 172.4,89.8 175.1,89.4 177.8,88.7 180.4,88.0 183.1,87.5 185.8,87.2 188.5,86.9 191.2,86.6 193.9,85.8 196.6,85.0 199.3,84.4 201.9,83.7 204.6,83.4 207.3,83.2 210.0,82.9 212.7,82.4 215.4,82.0 218.1,81.7 220.7,81.5 223.4,81.2 226.1,80.9 228.8,80.6 231.5,80.4 234.2,80.3 236.9,79.6 239.6,79.2 242.2,79.0 244.9,78.8 247.6,78.6 250.3,78.6 253.0,90.5 255.7,89.3 258.4,88.3 261.0,87.2 263.7,83.9 266.4,81.7 269.1,79.3 271.8,78.4 274.5,77.4 277.2,75.7 279.9,73.9 282.5,72.6 285.2,72.1 287.9,71.6 290.6,70.3 293.3,69.4 296.0,68.7 298.7,68.0 301.3,67.7 304.0,67.5 306.7,66.9 309.4,65.8 312.1,65.0 314.8,64.2 317.5,63.3 320.1,62.9 322.8,62.5 325.5,61.8 328.2,61.1 330.9,60.4 333.6,59.9 336.3,59.7 339.0,59.5 341.6,59.1 344.3,58.5 347.0,58.1 349.7,57.7 352.4,57.3 355.1,57.0 357.8,56.7 360.4,56.3 363.1,56.1 365.8,55.8 368.5,55.2 371.2,54.7 373.9,54.2 376.6,53.9 379.3,53.5 381.9,53.3 384.6,53.0 387.3,52.7 390.0,51.9 392.7,51.3 395.4,50.6 398.1,50.3 400.7,50.2 403.4,49.9 406.1,49.5 408.8,49.1 411.5,48.7 414.2,48.1 416.9,47.8 419.6,47.6 422.2,47.4 424.9,47.1 427.6,46.9 430.3,46.5 433.0,46.2 435.7,45.7 438.4,45.5 441.0,45.3 443.7,45.1 446.4,44.9 449.1,44.5 451.8,44.1 454.5,43.7 457.2,43.3 459.9,43.0 462.5,42.7 465.2,42.5 467.9,42.3 470.6,41.7 473.3,41.3 476.0,40.9 478.7,40.5 481.3,39.9 484.0,39.7 486.7,39.5 489.4,39.3 492.1,39.0 494.8,38.7 497.5,38.4 500.1,38.1 502.8,37.8 505.5,37.6 508.2,37.3 510.9,37.1 513.6,36.9 516.3,36.6 519.0,36.1 521.6,35.9 524.3,35.5 527.0,35.1 529.7,34.8 532.4,34.6 535.1,34.4 537.8,34.1 540.4,33.6 543.1,33.0 545.8,32.6 548.5,32.3 551.2,32.2 553.9,31.7 556.6,31.3 559.3,31.1 561.9,30.9 564.6,30.5 567.3,30.3 570.0,30.0 570.0,30.0,120" />
  
  <!-- Linea principale -->
  <polyline fill="none" stroke="#0366d6" stroke-width="2.5" stroke-linecap="round" stroke-linejoin="round" points="30.0,120.0 32.7,119.1 35.4,118.1 38.1,117.2 40.7,117.0 43.4,116.5 46.1,115.4 48.8,114.7 51.5,114.2 54.2,113.1 56.9,112.5 59.6,112.0 62.2,111.7 64.9,111.2 67.6,110.4 70.3,109.6 73.0,109.0 75.7,108.6 78.4,108.3 81.0,107.8 83.7,107.2 86.4,106.7 89.1,106.5 91.8,106.0 94.5,104.2 97.2,103.7 99.9,103.0 102.5,102.3 105.2,101.7 107.9,101.1 110.6,100.8 113.3,100.5 116.0,100.0 118.7,99.1 121.3,98.4 124.0,97.9 126.7,97.3 129.4,97.1 132.1,97.0 134.8,96.7 137.5,96.1 140.1,95.8 142.8,95.6 145.5,94.9 148.2,94.0 150.9,93.8 153.6,93.6 156.3,93.2 159.0,92.5 161.6,92.0 164.3,91.2 167.0,90.6 169.7,90.0 172.4,89.8 175.1,89.4 177.8,88.7 180.4,88.0 183.1,87.5 185.8,87.2 188.5,86.9 191.2,86.6 193.9,85.8 196.6,85.0 199.3,84.4 201.9,83.7 204.6,83.4 207.3,83.2 210.0,82.9 212.7,82.4 215.4,82.0 218.1,81.7 220.7,81.5 223.4,81.2 226.1,80.9 228.8,80.6 231.5,80.4 234.2,80.3 236.9,79.6 239.6,79.2 242.2,79.0 244.9,78.8 247.6,78.6 250.3,78.6 253.0,90.5 255.7,89.3 258.4,88.3 261.0,87.2 263.7,83.9 266.4,81.7 269.1,79.3 271.8,78.4 274.5,77.4 277.2,75.7 279.9,73.9 282.5,72.6 285.2,72.1 287.9,71.6 290.6,70.3 293.3,69.4 296.0,68.7 298.7,68.0 301.3,67.7 304.0,67.5 306.7,66.9 309.4,65.8 312.1,65.0 314.8,64.2 317.5,63.3 320.1,62.9 322.8,62.5 325.5,61.8 328.2,61.1 330.9,60.4 333.6,59.9 336.3,59.7 339.0,59.5 341.6,59.1 344.3,58.5 347.0,58.1 349.7,57.7 352.4,57.3 355.1,57.0 357.8,56.7 360.4,56.3 363.1,56.1 365.8,55.8 368.5,55.2 371.2,54.7 373.9,54.2 376.6,53.9 379.3,53.5 381.9,53.3 384.6,53.0 387.3,52.7 390.0,51.9 392.7,51.3 395.4,50.6 398.1,50.3 400.7,50.2 403.4,49.9 406.1,49.5 408.8,49.1 411.5,48.7 414.2,48.1 416.9,47.8 419.6,47.6 422.2,47.4 424.9,47.1 427.6,46.9 430.3,46.5 433.0,46.2 435.7,45.7 438.4,45.5 441.0,45.3 443.7,45.1 446.4,44.9 449.1,44.5 451.8,44.1 454.5,43.7 457.2,43.3 459.9,43.0 462.5,42.7 465.2,42.5 467.9,42.3 470.6,41.7 473.3,41.3 476.0,40.9 478.7,40.5 481.3,39.9 484.0,39.7 486.7,39.5 489.4,39.3 492.1,39.0 494.8,38.7 497.5,38.4 500.1,38.1 502.8,37.8 505.5,37.6 508.2,37.3 510.9,37.1 513.6,36.9 516.3,36.6 519.0,36.1 521.6,35.9 524.3,35.5 527.0,35.1 529.7,34.8 532.4,34.6 535.1,34.4 537.8,34.1 540.4,33.6 543.1,33.0 545.8,32.6 548.5,32.3 551.2,32.2 553.9,31.7 556.6,31.3 559.3,31.1 561.9,30.9 564.6,30.5 567.3,30.3 570.0,30.0" />
  
  <!-- Punto finale luminoso -->
  <circle cx="570.0" cy="30.0" r="4" fill="#ffffff" stroke="#0366d6" stroke-width="2.5" />
</svg>