<svg width="600" height="150" viewBox="0 0 600 150" xmlns="http://www.w3.org/2000/svg">
  <defs>
    <filter id="shadow2" x="-2%" y="-2%" width="104%" height="108%">
      <feDropShadow dx="0" dy="2" stdDeviation="3" flood-opacity="0.1" />
    </filter>
    <linearGradient id="fillGrad" x1="0" y1="0" x2="0" y2="1">
      <stop offset="0%" stop-color="#0366d6" stop-opacity="0.3"/>
      <stop offset="100%" stop-color="#0366d6" stop-opacity="0.02"/>
    </linearGradient>
  </defs>
  <rect width="600" height="150" rx="12" fill="#ffffff" filter="url(#shadow2)" stroke="#e1e4e8" stroke-width="1"/>
  <text x="20" y="24" fill="#2b3137" font-family="-apple-system,BlinkMacSystemFont,'Segoe UI',Helvetica,Arial,sans-serif" font-size="14" font-weight="600">📈 Download Growth (Actual: 77.6k)</text>
  
  <!-- Area sotto la linea -->
  <polygon fill="url(#fillGrad)" points="30.0,120.0,120 30.0,120.0 32.8,119.1 35.5,118.0 38.3,117.1 41.0,116.9 43.8,116.4 46.5,115.3 49.3,114.6 52.0,114.1 54.8,113.0 57.6,112.4 60.3,111.9 63.1,111.5 65.8,111.0 68.6,110.3 71.3,109.5 74.1,108.8 76.8,108.4 79.6,108.1 82.3,107.6 85.1,107.0 87.9,106.5 90.6,106.3 93.4,105.8 96.1,104.0 98.9,103.4 101.6,102.8 104.4,102.1 107.1,101.4 109.9,100.9 112.7,100.5 115.4,100.2 118.2,99.7 120.9,98.8 123.7,98.1 126.4,97.6 129.2,97.0 131.9,96.8 134.7,96.6 137.4,96.3 140.2,95.8 143.0,95.4 145.7,95.2 148.5,94.5 151.2,93.6 154.0,93.4 156.7,93.2 159.5,92.8 162.2,92.1 165.0,91.5 167.8,90.8 170.5,90.2 173.3,89.5 176.0,89.4 178.8,88.9 181.5,88.2 184.3,87.5 187.0,87.0 189.8,86.7 192.6,86.4 195.3,86.0 198.1,85.3 200.8,84.5 203.6,83.8 206.3,83.2 209.1,82.9 211.8,82.7 214.6,82.4 217.3,81.8 220.1,81.5 222.9,81.2 225.6,80.9 228.4,80.7 231.1,80.3 233.9,80.0 236.6,79.8 239.4,79.7 242.1,78.9 244.9,78.5 247.7,78.4 250.4,78.1 253.2,78.0 255.9,78.0 258.7,90.0 261.4,88.8 264.2,87.8 266.9,86.7 269.7,83.4 272.4,81.1 275.2,78.6 278.0,77.7 280.7,76.7 283.5,75.0 286.2,73.2 289.0,71.8 291.7,71.3 294.5,70.9 297.2,69.5 300.0,68.6 302.8,68.0 305.5,67.2 308.3,66.9 311.0,66.7 313.8,66.0 316.5,64.9 319.3,64.1 322.0,63.3 324.8,62.4 327.6,62.0 330.3,61.7 333.1,60.9 335.8,60.2 338.6,59.5 341.3,59.0 344.1,58.8 346.8,58.6 349.6,58.2 352.3,57.6 355.1,57.2 357.9,56.7 360.6,56.4 363.4,56.0 366.1,55.7 368.9,55.4 371.6,55.1 374.4,54.8 377.1,54.2 379.9,53.7 382.7,53.2 385.4,52.9 388.2,52.5 390.9,52.3 393.7,52.0 396.4,51.7 399.2,50.8 401.9,50.2 404.7,49.5 407.4,49.2 410.2,49.2 413.0,48.8 415.7,48.5 418.5,48.0 421.2,47.6 424.0,47.0 426.7,46.7 429.5,46.5 432.2,46.2 435.0,46.0 437.8,45.8 440.5,45.4 443.3,45.1 446.0,44.6 448.8,44.4 451.5,44.2 454.3,43.9 457.0,43.8 459.8,43.3 462.6,43.0 465.3,42.5 468.1,42.2 470.8,41.8 473.6,41.5 476.3,41.4 479.1,41.1 481.8,40.5 484.6,40.1 487.3,39.7 490.1,39.3 492.9,38.6 495.6,38.5 498.4,38.3 501.1,38.1 503.9,37.8 506.6,37.5 509.4,37.1 512.1,36.9 514.9,36.6 517.7,36.3 520.4,36.0 523.2,35.8 525.9,35.6 528.7,35.3 531.4,34.8 534.2,34.6 536.9,34.2 539.7,33.8 542.4,33.5 545.2,33.3 548.0,33.1 550.7,32.8 553.5,32.3 556.2,31.7 559.0,31.3 561.7,31.0 564.5,30.8 567.2,30.4 570.0,30.0 570.0,30.0,120" />
  
  <!-- Linea principale -->
  <polyline fill="none" stroke="#0366d6" stroke-width="2.5" stroke-linecap="round" stroke-linejoin="round" points="30.0,120.0 32.8,119.1 35.5,118.0 38.3,117.1 41.0,116.9 43.8,116.4 46.5,115.3 49.3,114.6 52.0,114.1 54.8,113.0 57.6,112.4 60.3,111.9 63.1,111.5 65.8,111.0 68.6,110.3 71.3,109.5 74.1,108.8 76.8,108.4 79.6,108.1 82.3,107.6 85.1,107.0 87.9,106.5 90.6,106.3 93.4,105.8 96.1,104.0 98.9,103.4 101.6,102.8 104.4,102.1 107.1,101.4 109.9,100.9 112.7,100.5 115.4,100.2 118.2,99.7 120.9,98.8 123.7,98.1 126.4,97.6 129.2,97.0 131.9,96.8 134.7,96.6 137.4,96.3 140.2,95.8 143.0,95.4 145.7,95.2 148.5,94.5 151.2,93.6 154.0,93.4 156.7,93.2 159.5,92.8 162.2,92.1 165.0,91.5 167.8,90.8 170.5,90.2 173.3,89.5 176.0,89.4 178.8,88.9 181.5,88.2 184.3,87.5 187.0,87.0 189.8,86.7 192.6,86.4 195.3,86.0 198.1,85.3 200.8,84.5 203.6,83.8 206.3,83.2 209.1,82.9 211.8,82.7 214.6,82.4 217.3,81.8 220.1,81.5 222.9,81.2 225.6,80.9 228.4,80.7 231.1,80.3 233.9,80.0 236.6,79.8 239.4,79.7 242.1,78.9 244.9,78.5 247.7,78.4 250.4,78.1 253.2,78.0 255.9,78.0 258.7,90.0 261.4,88.8 264.2,87.8 266.9,86.7 269.7,83.4 272.4,81.1 275.2,78.6 278.0,77.7 280.7,76.7 283.5,75.0 286.2,73.2 289.0,71.8 291.7,71.3 294.5,70.9 297.2,69.5 300.0,68.6 302.8,68.0 305.5,67.2 308.3,66.9 311.0,66.7 313.8,66.0 316.5,64.9 319.3,64.1 322.0,63.3 324.8,62.4 327.6,62.0 330.3,61.7 333.1,60.9 335.8,60.2 338.6,59.5 341.3,59.0 344.1,58.8 346.8,58.6 349.6,58.2 352.3,57.6 355.1,57.2 357.9,56.7 360.6,56.4 363.4,56.0 366.1,55.7 368.9,55.4 371.6,55.1 374.4,54.8 377.1,54.2 379.9,53.7 382.7,53.2 385.4,52.9 388.2,52.5 390.9,52.3 393.7,52.0 396.4,51.7 399.2,50.8 401.9,50.2 404.7,49.5 407.4,49.2 410.2,49.2 413.0,48.8 415.7,48.5 418.5,48.0 421.2,47.6 424.0,47.0 426.7,46.7 429.5,46.5 432.2,46.2 435.0,46.0 437.8,45.8 440.5,45.4 443.3,45.1 446.0,44.6 448.8,44.4 451.5,44.2 454.3,43.9 457.0,43.8 459.8,43.3 462.6,43.0 465.3,42.5 468.1,42.2 470.8,41.8 473.6,41.5 476.3,41.4 479.1,41.1 481.8,40.5 484.6,40.1 487.3,39.7 490.1,39.3 492.9,38.6 495.6,38.5 498.4,38.3 501.1,38.1 503.9,37.8 506.6,37.5 509.4,37.1 512.1,36.9 514.9,36.6 517.7,36.3 520.4,36.0 523.2,35.8 525.9,35.6 528.7,35.3 531.4,34.8 534.2,34.6 536.9,34.2 539.7,33.8 542.4,33.5 545.2,33.3 548.0,33.1 550.7,32.8 553.5,32.3 556.2,31.7 559.0,31.3 561.7,31.0 564.5,30.8 567.2,30.4 570.0,30.0" />
  
  <!-- Punto finale luminoso -->
  <circle cx="570.0" cy="30.0" r="4" fill="#ffffff" stroke="#0366d6" stroke-width="2.5" />
</svg>