<svg width="600" height="150" viewBox="0 0 600 150" xmlns="http://www.w3.org/2000/svg">
  <defs>
    <filter id="shadow2" x="-2%" y="-2%" width="104%" height="108%">
      <feDropShadow dx="0" dy="2" stdDeviation="3" flood-opacity="0.1" />
    </filter>
    <linearGradient id="fillGrad" x1="0" y1="0" x2="0" y2="1">
      <stop offset="0%" stop-color="#0366d6" stop-opacity="0.3"/>
      <stop offset="100%" stop-color="#0366d6" stop-opacity="0.02"/>
    </linearGradient>
  </defs>
  <rect width="600" height="150" rx="12" fill="#ffffff" filter="url(#shadow2)" stroke="#e1e4e8" stroke-width="1"/>
  <text x="20" y="24" fill="#2b3137" font-family="-apple-system,BlinkMacSystemFont,'Segoe UI',Helvetica,Arial,sans-serif" font-size="14" font-weight="600">📈 Download Growth (Actual: 77.2k)</text>
  
  <!-- Area sotto la linea -->
  <polygon fill="url(#fillGrad)" points="30.0,120.0,120 30.0,120.0 32.9,119.0 35.8,118.0 38.7,117.0 41.6,116.8 44.4,116.3 47.3,115.2 50.2,114.4 53.1,113.9 56.0,112.7 58.9,112.1 61.8,111.6 64.7,111.2 67.5,110.7 70.4,109.9 73.3,109.1 76.2,108.4 79.1,108.0 82.0,107.7 84.9,107.2 87.8,106.5 90.6,106.0 93.5,105.7 96.4,105.2 99.3,103.4 102.2,102.8 105.1,102.1 108.0,101.4 110.9,100.7 113.7,100.1 116.6,99.7 119.5,99.4 122.4,98.9 125.3,98.0 128.2,97.2 131.1,96.7 134.0,96.1 136.8,95.9 139.7,95.8 142.6,95.4 145.5,94.8 148.4,94.5 151.3,94.2 154.2,93.6 157.1,92.6 159.9,92.3 162.8,92.2 165.7,91.8 168.6,91.0 171.5,90.5 174.4,89.6 177.3,89.1 180.2,88.3 183.0,88.2 185.9,87.7 188.8,87.0 191.7,86.3 194.6,85.7 197.5,85.5 200.4,85.1 203.3,84.7 206.1,83.9 209.0,83.1 211.9,82.5 214.8,81.8 217.7,81.4 220.6,81.2 223.5,80.9 226.4,80.4 229.3,80.0 232.1,79.7 235.0,79.4 237.9,79.1 240.8,78.7 243.7,78.5 246.6,78.3 249.5,78.1 252.4,77.4 255.2,76.9 258.1,76.8 261.0,76.5 263.9,76.4 266.8,76.4 269.7,88.9 272.6,87.6 275.5,86.5 278.3,85.4 281.2,82.0 284.1,79.6 287.0,77.1 289.9,76.1 292.8,75.0 295.7,73.3 298.6,71.4 301.4,70.0 304.3,69.5 307.2,69.0 310.1,67.6 313.0,66.6 315.9,66.0 318.8,65.2 321.7,64.8 324.5,64.7 327.4,64.0 330.3,62.8 333.2,62.0 336.1,61.1 339.0,60.2 341.9,59.8 344.8,59.4 347.6,58.6 350.5,57.9 353.4,57.2 356.3,56.7 359.2,56.4 362.1,56.2 365.0,55.8 367.9,55.2 370.7,54.7 373.6,54.3 376.5,53.9 379.4,53.6 382.3,53.2 385.2,52.9 388.1,52.6 391.0,52.3 393.9,51.6 396.7,51.2 399.6,50.6 402.5,50.3 405.4,49.9 408.3,49.7 411.2,49.4 414.1,49.1 417.0,48.2 419.8,47.6 422.7,46.8 425.6,46.5 428.5,46.4 431.4,46.1 434.3,45.7 437.2,45.2 440.1,44.8 442.9,44.2 445.8,43.9 448.7,43.7 451.6,43.4 454.5,43.2 457.4,42.9 460.3,42.6 463.2,42.2 466.0,41.7 468.9,41.5 471.8,41.3 474.7,41.0 477.6,40.8 480.5,40.4 483.4,40.0 486.3,39.6 489.1,39.2 492.0,38.8 494.9,38.5 497.8,38.3 500.7,38.1 503.6,37.5 506.5,37.0 509.4,36.6 512.2,36.2 515.1,35.5 518.0,35.4 520.9,35.1 523.8,35.0 526.7,34.6 529.6,34.3 532.5,33.9 535.3,33.7 538.2,33.4 541.1,33.1 544.0,32.8 546.9,32.6 549.8,32.4 552.7,32.1 555.6,31.6 558.4,31.3 561.3,30.9 564.2,30.5 567.1,30.2 570.0,30.0 570.0,30.0,120" />
  
  <!-- Linea principale -->
  <polyline fill="none" stroke="#0366d6" stroke-width="2.5" stroke-linecap="round" stroke-linejoin="round" points="30.0,120.0 32.9,119.0 35.8,118.0 38.7,117.0 41.6,116.8 44.4,116.3 47.3,115.2 50.2,114.4 53.1,113.9 56.0,112.7 58.9,112.1 61.8,111.6 64.7,111.2 67.5,110.7 70.4,109.9 73.3,109.1 76.2,108.4 79.1,108.0 82.0,107.7 84.9,107.2 87.8,106.5 90.6,106.0 93.5,105.7 96.4,105.2 99.3,103.4 102.2,102.8 105.1,102.1 108.0,101.4 110.9,100.7 113.7,100.1 116.6,99.7 119.5,99.4 122.4,98.9 125.3,98.0 128.2,97.2 131.1,96.7 134.0,96.1 136.8,95.9 139.7,95.8 142.6,95.4 145.5,94.8 148.4,94.5 151.3,94.2 154.2,93.6 157.1,92.6 159.9,92.3 162.8,92.2 165.7,91.8 168.6,91.0 171.5,90.5 174.4,89.6 177.3,89.1 180.2,88.3 183.0,88.2 185.9,87.7 188.8,87.0 191.7,86.3 194.6,85.7 197.5,85.5 200.4,85.1 203.3,84.7 206.1,83.9 209.0,83.1 211.9,82.5 214.8,81.8 217.7,81.4 220.6,81.2 223.5,80.9 226.4,80.4 229.3,80.0 232.1,79.7 235.0,79.4 237.9,79.1 240.8,78.7 243.7,78.5 246.6,78.3 249.5,78.1 252.4,77.4 255.2,76.9 258.1,76.8 261.0,76.5 263.9,76.4 266.8,76.4 269.7,88.9 272.6,87.6 275.5,86.5 278.3,85.4 281.2,82.0 284.1,79.6 287.0,77.1 289.9,76.1 292.8,75.0 295.7,73.3 298.6,71.4 301.4,70.0 304.3,69.5 307.2,69.0 310.1,67.6 313.0,66.6 315.9,66.0 318.8,65.2 321.7,64.8 324.5,64.7 327.4,64.0 330.3,62.8 333.2,62.0 336.1,61.1 339.0,60.2 341.9,59.8 344.8,59.4 347.6,58.6 350.5,57.9 353.4,57.2 356.3,56.7 359.2,56.4 362.1,56.2 365.0,55.8 367.9,55.2 370.7,54.7 373.6,54.3 376.5,53.9 379.4,53.6 382.3,53.2 385.2,52.9 388.1,52.6 391.0,52.3 393.9,51.6 396.7,51.2 399.6,50.6 402.5,50.3 405.4,49.9 408.3,49.7 411.2,49.4 414.1,49.1 417.0,48.2 419.8,47.6 422.7,46.8 425.6,46.5 428.5,46.4 431.4,46.1 434.3,45.7 437.2,45.2 440.1,44.8 442.9,44.2 445.8,43.9 448.7,43.7 451.6,43.4 454.5,43.2 457.4,42.9 460.3,42.6 463.2,42.2 466.0,41.7 468.9,41.5 471.8,41.3 474.7,41.0 477.6,40.8 480.5,40.4 483.4,40.0 486.3,39.6 489.1,39.2 492.0,38.8 494.9,38.5 497.8,38.3 500.7,38.1 503.6,37.5 506.5,37.0 509.4,36.6 512.2,36.2 515.1,35.5 518.0,35.4 520.9,35.1 523.8,35.0 526.7,34.6 529.6,34.3 532.5,33.9 535.3,33.7 538.2,33.4 541.1,33.1 544.0,32.8 546.9,32.6 549.8,32.4 552.7,32.1 555.6,31.6 558.4,31.3 561.3,30.9 564.2,30.5 567.1,30.2 570.0,30.0" />
  
  <!-- Punto finale luminoso -->
  <circle cx="570.0" cy="30.0" r="4" fill="#ffffff" stroke="#0366d6" stroke-width="2.5" />
</svg>