<svg width="600" height="150" viewBox="0 0 600 150" xmlns="http://www.w3.org/2000/svg">
  <defs>
    <filter id="shadow2" x="-2%" y="-2%" width="104%" height="108%">
      <feDropShadow dx="0" dy="2" stdDeviation="3" flood-opacity="0.1" />
    </filter>
    <linearGradient id="fillGrad" x1="0" y1="0" x2="0" y2="1">
      <stop offset="0%" stop-color="#0366d6" stop-opacity="0.3"/>
      <stop offset="100%" stop-color="#0366d6" stop-opacity="0.02"/>
    </linearGradient>
  </defs>
  <rect width="600" height="150" rx="12" fill="#ffffff" filter="url(#shadow2)" stroke="#e1e4e8" stroke-width="1"/>
  <text x="20" y="24" fill="#2b3137" font-family="-apple-system,BlinkMacSystemFont,'Segoe UI',Helvetica,Arial,sans-serif" font-size="14" font-weight="600">📈 Download Growth (Actual: 77.7k)</text>
  
  <!-- Area sotto la linea -->
  <polygon fill="url(#fillGrad)" points="30.0,120.0,120 30.0,120.0 32.7,119.1 35.4,118.1 38.1,117.2 40.8,116.9 43.5,116.5 46.2,115.4 48.9,114.7 51.6,114.2 54.3,113.1 57.0,112.5 59.7,112.0 62.4,111.6 65.1,111.1 67.8,110.4 70.5,109.6 73.2,109.0 75.9,108.6 78.6,108.3 81.3,107.8 84.0,107.2 86.7,106.7 89.4,106.4 92.1,105.9 94.8,104.2 97.5,103.6 100.2,102.9 102.9,102.3 105.6,101.7 108.3,101.1 111.0,100.7 113.7,100.4 116.4,99.9 119.1,99.1 121.8,98.3 124.5,97.8 127.2,97.2 129.9,97.1 132.6,96.9 135.3,96.6 138.0,96.1 140.7,95.7 143.4,95.5 146.1,94.8 148.8,93.9 151.5,93.7 154.2,93.5 156.9,93.1 159.6,92.4 162.3,91.9 165.0,91.1 167.7,90.5 170.4,89.9 173.1,89.7 175.8,89.3 178.5,88.6 181.2,87.9 183.9,87.4 186.6,87.1 189.3,86.8 192.0,86.4 194.7,85.6 197.4,84.9 200.1,84.3 202.8,83.6 205.5,83.3 208.2,83.1 210.9,82.8 213.6,82.3 216.3,81.9 219.0,81.6 221.7,81.3 224.4,81.1 227.1,80.7 229.8,80.5 232.5,80.3 235.2,80.1 237.9,79.4 240.6,79.0 243.3,78.9 246.0,78.6 248.7,78.5 251.4,78.5 254.1,90.4 256.8,89.2 259.5,88.1 262.2,87.0 264.9,83.8 267.6,81.5 270.3,79.1 273.0,78.2 275.7,77.2 278.4,75.5 281.1,73.7 283.8,72.4 286.5,71.9 289.2,71.4 291.9,70.1 294.6,69.2 297.3,68.6 300.0,67.8 302.7,67.5 305.4,67.4 308.1,66.7 310.8,65.6 313.5,64.8 316.2,64.0 318.9,63.1 321.6,62.6 324.3,62.3 327.0,61.6 329.7,60.9 332.4,60.2 335.1,59.7 337.8,59.5 340.5,59.3 343.2,58.9 345.9,58.3 348.6,57.9 351.3,57.4 354.0,57.1 356.7,56.8 359.4,56.4 362.1,56.1 364.8,55.8 367.5,55.5 370.2,54.9 372.9,54.5 375.6,53.9 378.3,53.6 381.0,53.3 383.7,53.0 386.4,52.8 389.1,52.5 391.8,51.6 394.5,51.0 397.2,50.3 399.9,50.1 402.6,50.0 405.3,49.6 408.0,49.3 410.7,48.8 413.4,48.4 416.1,47.9 418.8,47.5 421.5,47.4 424.2,47.1 426.9,46.9 429.6,46.6 432.3,46.3 435.0,46.0 437.7,45.5 440.4,45.2 443.1,45.1 445.8,44.8 448.5,44.6 451.2,44.2 453.9,43.8 456.6,43.4 459.3,43.1 462.0,42.7 464.7,42.4 467.4,42.3 470.1,42.0 472.8,41.5 475.5,41.0 478.2,40.6 480.9,40.2 483.6,39.6 486.3,39.4 489.0,39.2 491.7,39.0 494.4,38.7 497.1,38.4 499.8,38.1 502.5,37.8 505.2,37.5 507.9,37.3 510.6,37.0 513.3,36.8 516.0,36.6 518.7,36.3 521.4,35.8 524.1,35.6 526.8,35.2 529.5,34.8 532.2,34.5 534.9,34.3 537.6,34.1 540.3,33.8 543.0,33.3 545.7,32.7 548.4,32.3 551.1,32.0 553.8,31.9 556.5,31.4 559.2,31.0 561.9,30.8 564.6,30.6 567.3,30.2 570.0,30.0 570.0,30.0,120" />
  
  <!-- Linea principale -->
  <polyline fill="none" stroke="#0366d6" stroke-width="2.5" stroke-linecap="round" stroke-linejoin="round" points="30.0,120.0 32.7,119.1 35.4,118.1 38.1,117.2 40.8,116.9 43.5,116.5 46.2,115.4 48.9,114.7 51.6,114.2 54.3,113.1 57.0,112.5 59.7,112.0 62.4,111.6 65.1,111.1 67.8,110.4 70.5,109.6 73.2,109.0 75.9,108.6 78.6,108.3 81.3,107.8 84.0,107.2 86.7,106.7 89.4,106.4 92.1,105.9 94.8,104.2 97.5,103.6 100.2,102.9 102.9,102.3 105.6,101.7 108.3,101.1 111.0,100.7 113.7,100.4 116.4,99.9 119.1,99.1 121.8,98.3 124.5,97.8 127.2,97.2 129.9,97.1 132.6,96.9 135.3,96.6 138.0,96.1 140.7,95.7 143.4,95.5 146.1,94.8 148.8,93.9 151.5,93.7 154.2,93.5 156.9,93.1 159.6,92.4 162.3,91.9 165.0,91.1 167.7,90.5 170.4,89.9 173.1,89.7 175.8,89.3 178.5,88.6 181.2,87.9 183.9,87.4 186.6,87.1 189.3,86.8 192.0,86.4 194.7,85.6 197.4,84.9 200.1,84.3 202.8,83.6 205.5,83.3 208.2,83.1 210.9,82.8 213.6,82.3 216.3,81.9 219.0,81.6 221.7,81.3 224.4,81.1 227.1,80.7 229.8,80.5 232.5,80.3 235.2,80.1 237.9,79.4 240.6,79.0 243.3,78.9 246.0,78.6 248.7,78.5 251.4,78.5 254.1,90.4 256.8,89.2 259.5,88.1 262.2,87.0 264.9,83.8 267.6,81.5 270.3,79.1 273.0,78.2 275.7,77.2 278.4,75.5 281.1,73.7 283.8,72.4 286.5,71.9 289.2,71.4 291.9,70.1 294.6,69.2 297.3,68.6 300.0,67.8 302.7,67.5 305.4,67.4 308.1,66.7 310.8,65.6 313.5,64.8 316.2,64.0 318.9,63.1 321.6,62.6 324.3,62.3 327.0,61.6 329.7,60.9 332.4,60.2 335.1,59.7 337.8,59.5 340.5,59.3 343.2,58.9 345.9,58.3 348.6,57.9 351.3,57.4 354.0,57.1 356.7,56.8 359.4,56.4 362.1,56.1 364.8,55.8 367.5,55.5 370.2,54.9 372.9,54.5 375.6,53.9 378.3,53.6 381.0,53.3 383.7,53.0 386.4,52.8 389.1,52.5 391.8,51.6 394.5,51.0 397.2,50.3 399.9,50.1 402.6,50.0 405.3,49.6 408.0,49.3 410.7,48.8 413.4,48.4 416.1,47.9 418.8,47.5 421.5,47.4 424.2,47.1 426.9,46.9 429.6,46.6 432.3,46.3 435.0,46.0 437.7,45.5 440.4,45.2 443.1,45.1 445.8,44.8 448.5,44.6 451.2,44.2 453.9,43.8 456.6,43.4 459.3,43.1 462.0,42.7 464.7,42.4 467.4,42.3 470.1,42.0 472.8,41.5 475.5,41.0 478.2,40.6 480.9,40.2 483.6,39.6 486.3,39.4 489.0,39.2 491.7,39.0 494.4,38.7 497.1,38.4 499.8,38.1 502.5,37.8 505.2,37.5 507.9,37.3 510.6,37.0 513.3,36.8 516.0,36.6 518.7,36.3 521.4,35.8 524.1,35.6 526.8,35.2 529.5,34.8 532.2,34.5 534.9,34.3 537.6,34.1 540.3,33.8 543.0,33.3 545.7,32.7 548.4,32.3 551.1,32.0 553.8,31.9 556.5,31.4 559.2,31.0 561.9,30.8 564.6,30.6 567.3,30.2 570.0,30.0" />
  
  <!-- Punto finale luminoso -->
  <circle cx="570.0" cy="30.0" r="4" fill="#ffffff" stroke="#0366d6" stroke-width="2.5" />
</svg>