<svg width="600" height="150" viewBox="0 0 600 150" xmlns="http://www.w3.org/2000/svg">
  <defs>
    <filter id="shadow2" x="-2%" y="-2%" width="104%" height="108%">
      <feDropShadow dx="0" dy="2" stdDeviation="3" flood-opacity="0.1" />
    </filter>
    <linearGradient id="fillGrad" x1="0" y1="0" x2="0" y2="1">
      <stop offset="0%" stop-color="#0366d6" stop-opacity="0.3"/>
      <stop offset="100%" stop-color="#0366d6" stop-opacity="0.02"/>
    </linearGradient>
  </defs>
  <rect width="600" height="150" rx="12" fill="#ffffff" filter="url(#shadow2)" stroke="#e1e4e8" stroke-width="1"/>
  <text x="20" y="24" fill="#2b3137" font-family="-apple-system,BlinkMacSystemFont,'Segoe UI',Helvetica,Arial,sans-serif" font-size="14" font-weight="600">📈 Download Growth (Actual: 77.2k)</text>
  
  <!-- Area sotto la linea -->
  <polygon fill="url(#fillGrad)" points="30.0,120.0,120 30.0,120.0 32.9,119.0 35.7,118.0 38.6,117.1 41.4,116.8 44.3,116.3 47.1,115.2 50.0,114.4 52.9,113.9 55.7,112.8 58.6,112.2 61.4,111.6 64.3,111.3 67.1,110.7 70.0,110.0 72.9,109.1 75.7,108.5 78.6,108.1 81.4,107.8 84.3,107.2 87.1,106.6 90.0,106.1 92.9,105.8 95.7,105.3 98.6,103.5 101.4,102.9 104.3,102.2 107.1,101.5 110.0,100.9 112.9,100.2 115.7,99.8 118.6,99.5 121.4,99.0 124.3,98.1 127.1,97.4 130.0,96.9 132.9,96.2 135.7,96.1 138.6,95.9 141.4,95.6 144.3,95.0 147.1,94.7 150.0,94.4 152.9,93.7 155.7,92.8 158.6,92.5 161.4,92.3 164.3,91.9 167.1,91.2 170.0,90.6 172.9,89.8 175.7,89.3 178.6,88.5 181.4,88.4 184.3,88.0 187.1,87.2 190.0,86.5 192.9,85.9 195.7,85.7 198.6,85.3 201.4,85.0 204.3,84.1 207.1,83.4 210.0,82.7 212.9,82.0 215.7,81.7 218.6,81.5 221.4,81.2 224.3,80.6 227.1,80.2 230.0,79.9 232.9,79.7 235.7,79.4 238.6,79.0 241.4,78.7 244.3,78.6 247.1,78.4 250.0,77.6 252.9,77.2 255.7,77.1 258.6,76.8 261.4,76.7 264.3,76.7 267.1,89.1 270.0,87.8 272.9,86.8 275.7,85.6 278.6,82.2 281.4,79.9 284.3,77.3 287.1,76.4 290.0,75.3 292.9,73.6 295.7,71.7 298.6,70.3 301.4,69.8 304.3,69.3 307.1,67.9 310.0,67.0 312.9,66.3 315.7,65.5 318.6,65.2 321.4,65.1 324.3,64.3 327.1,63.2 330.0,62.4 332.9,61.5 335.7,60.6 338.6,60.1 341.4,59.8 344.3,59.0 347.1,58.3 350.0,57.6 352.9,57.1 355.7,56.8 358.6,56.6 361.4,56.2 364.3,55.6 367.1,55.2 370.0,54.7 372.9,54.4 375.7,54.0 378.6,53.6 381.4,53.3 384.3,53.0 387.1,52.7 390.0,52.1 392.9,51.6 395.7,51.0 398.6,50.7 401.4,50.4 404.3,50.1 407.1,49.8 410.0,49.5 412.9,48.6 415.7,48.0 418.6,47.3 421.4,47.0 424.3,46.9 427.1,46.6 430.0,46.2 432.9,45.7 435.7,45.3 438.6,44.7 441.4,44.4 444.3,44.2 447.1,43.9 450.0,43.7 452.9,43.4 455.7,43.1 458.6,42.7 461.4,42.2 464.3,42.0 467.1,41.8 470.0,41.5 472.9,41.4 475.7,40.9 478.6,40.5 481.4,40.1 484.3,39.7 487.1,39.3 490.0,39.0 492.9,38.9 495.7,38.6 498.6,38.0 501.4,37.5 504.3,37.1 507.1,36.7 510.0,36.1 512.9,35.9 515.7,35.7 518.6,35.5 521.4,35.2 524.3,34.9 527.1,34.5 530.0,34.2 532.9,33.9 535.7,33.7 538.6,33.3 541.4,33.1 544.3,33.0 547.1,32.6 550.0,32.1 552.9,31.9 555.7,31.5 558.6,31.1 561.4,30.8 564.3,30.6 567.1,30.3 570.0,30.0 570.0,30.0,120" />
  
  <!-- Linea principale -->
  <polyline fill="none" stroke="#0366d6" stroke-width="2.5" stroke-linecap="round" stroke-linejoin="round" points="30.0,120.0 32.9,119.0 35.7,118.0 38.6,117.1 41.4,116.8 44.3,116.3 47.1,115.2 50.0,114.4 52.9,113.9 55.7,112.8 58.6,112.2 61.4,111.6 64.3,111.3 67.1,110.7 70.0,110.0 72.9,109.1 75.7,108.5 78.6,108.1 81.4,107.8 84.3,107.2 87.1,106.6 90.0,106.1 92.9,105.8 95.7,105.3 98.6,103.5 101.4,102.9 104.3,102.2 107.1,101.5 110.0,100.9 112.9,100.2 115.7,99.8 118.6,99.5 121.4,99.0 124.3,98.1 127.1,97.4 130.0,96.9 132.9,96.2 135.7,96.1 138.6,95.9 141.4,95.6 144.3,95.0 147.1,94.7 150.0,94.4 152.9,93.7 155.7,92.8 158.6,92.5 161.4,92.3 164.3,91.9 167.1,91.2 170.0,90.6 172.9,89.8 175.7,89.3 178.6,88.5 181.4,88.4 184.3,88.0 187.1,87.2 190.0,86.5 192.9,85.9 195.7,85.7 198.6,85.3 201.4,85.0 204.3,84.1 207.1,83.4 210.0,82.7 212.9,82.0 215.7,81.7 218.6,81.5 221.4,81.2 224.3,80.6 227.1,80.2 230.0,79.9 232.9,79.7 235.7,79.4 238.6,79.0 241.4,78.7 244.3,78.6 247.1,78.4 250.0,77.6 252.9,77.2 255.7,77.1 258.6,76.8 261.4,76.7 264.3,76.7 267.1,89.1 270.0,87.8 272.9,86.8 275.7,85.6 278.6,82.2 281.4,79.9 284.3,77.3 287.1,76.4 290.0,75.3 292.9,73.6 295.7,71.7 298.6,70.3 301.4,69.8 304.3,69.3 307.1,67.9 310.0,67.0 312.9,66.3 315.7,65.5 318.6,65.2 321.4,65.1 324.3,64.3 327.1,63.2 330.0,62.4 332.9,61.5 335.7,60.6 338.6,60.1 341.4,59.8 344.3,59.0 347.1,58.3 350.0,57.6 352.9,57.1 355.7,56.8 358.6,56.6 361.4,56.2 364.3,55.6 367.1,55.2 370.0,54.7 372.9,54.4 375.7,54.0 378.6,53.6 381.4,53.3 384.3,53.0 387.1,52.7 390.0,52.1 392.9,51.6 395.7,51.0 398.6,50.7 401.4,50.4 404.3,50.1 407.1,49.8 410.0,49.5 412.9,48.6 415.7,48.0 418.6,47.3 421.4,47.0 424.3,46.9 427.1,46.6 430.0,46.2 432.9,45.7 435.7,45.3 438.6,44.7 441.4,44.4 444.3,44.2 447.1,43.9 450.0,43.7 452.9,43.4 455.7,43.1 458.6,42.7 461.4,42.2 464.3,42.0 467.1,41.8 470.0,41.5 472.9,41.4 475.7,40.9 478.6,40.5 481.4,40.1 484.3,39.7 487.1,39.3 490.0,39.0 492.9,38.9 495.7,38.6 498.6,38.0 501.4,37.5 504.3,37.1 507.1,36.7 510.0,36.1 512.9,35.9 515.7,35.7 518.6,35.5 521.4,35.2 524.3,34.9 527.1,34.5 530.0,34.2 532.9,33.9 535.7,33.7 538.6,33.3 541.4,33.1 544.3,33.0 547.1,32.6 550.0,32.1 552.9,31.9 555.7,31.5 558.6,31.1 561.4,30.8 564.3,30.6 567.1,30.3 570.0,30.0" />
  
  <!-- Punto finale luminoso -->
  <circle cx="570.0" cy="30.0" r="4" fill="#ffffff" stroke="#0366d6" stroke-width="2.5" />
</svg>