<svg width="600" height="150" viewBox="0 0 600 150" xmlns="http://www.w3.org/2000/svg">
  <defs>
    <filter id="shadow2" x="-2%" y="-2%" width="104%" height="108%">
      <feDropShadow dx="0" dy="2" stdDeviation="3" flood-opacity="0.1" />
    </filter>
    <linearGradient id="fillGrad" x1="0" y1="0" x2="0" y2="1">
      <stop offset="0%" stop-color="#0366d6" stop-opacity="0.3"/>
      <stop offset="100%" stop-color="#0366d6" stop-opacity="0.02"/>
    </linearGradient>
  </defs>
  <rect width="600" height="150" rx="12" fill="#ffffff" filter="url(#shadow2)" stroke="#e1e4e8" stroke-width="1"/>
  <text x="20" y="24" fill="#2b3137" font-family="-apple-system,BlinkMacSystemFont,'Segoe UI',Helvetica,Arial,sans-serif" font-size="14" font-weight="600">📈 Download Growth (Actual: 77.7k)</text>
  
  <!-- Area sotto la linea -->
  <polygon fill="url(#fillGrad)" points="30.0,120.0,120 30.0,120.0 32.7,119.1 35.4,118.1 38.1,117.2 40.9,116.9 43.6,116.5 46.3,115.4 49.0,114.7 51.7,114.2 54.4,113.1 57.1,112.5 59.8,112.0 62.6,111.6 65.3,111.1 68.0,110.4 70.7,109.6 73.4,109.0 76.1,108.5 78.8,108.2 81.6,107.7 84.3,107.2 87.0,106.6 89.7,106.4 92.4,105.9 95.1,104.1 97.8,103.6 100.6,102.9 103.3,102.2 106.0,101.6 108.7,101.0 111.4,100.7 114.1,100.4 116.8,99.9 119.5,99.0 122.3,98.3 125.0,97.8 127.7,97.2 130.4,97.0 133.1,96.9 135.8,96.6 138.5,96.0 141.3,95.7 144.0,95.4 146.7,94.8 149.4,93.8 152.1,93.6 154.8,93.4 157.5,93.1 160.3,92.3 163.0,91.8 165.7,91.0 168.4,90.5 171.1,89.8 173.8,89.7 176.5,89.2 179.2,88.5 182.0,87.8 184.7,87.3 187.4,87.1 190.1,86.7 192.8,86.4 195.5,85.6 198.2,84.9 201.0,84.2 203.7,83.5 206.4,83.2 209.1,83.0 211.8,82.7 214.5,82.2 217.2,81.8 219.9,81.5 222.7,81.3 225.4,81.0 228.1,80.7 230.8,80.4 233.5,80.2 236.2,80.1 238.9,79.3 241.7,78.9 244.4,78.8 247.1,78.6 249.8,78.4 252.5,78.4 255.2,90.3 257.9,89.1 260.7,88.1 263.4,87.0 266.1,83.7 268.8,81.5 271.5,79.0 274.2,78.1 276.9,77.1 279.6,75.5 282.4,73.6 285.1,72.3 287.8,71.8 290.5,71.3 293.2,70.0 295.9,69.1 298.6,68.5 301.4,67.7 304.1,67.4 306.8,67.3 309.5,66.6 312.2,65.5 314.9,64.7 317.6,63.9 320.4,63.0 323.1,62.5 325.8,62.2 328.5,61.5 331.2,60.8 333.9,60.1 336.6,59.6 339.3,59.4 342.1,59.2 344.8,58.8 347.5,58.2 350.2,57.8 352.9,57.3 355.6,57.0 358.3,56.6 361.1,56.3 363.8,56.0 366.5,55.7 369.2,55.4 371.9,54.8 374.6,54.3 377.3,53.8 380.1,53.5 382.8,53.1 385.5,52.9 388.2,52.6 390.9,52.4 393.6,51.5 396.3,50.9 399.0,50.2 401.8,49.9 404.5,49.9 407.2,49.5 409.9,49.1 412.6,48.7 415.3,48.3 418.0,47.8 420.8,47.4 423.5,47.2 426.2,47.0 428.9,46.7 431.6,46.5 434.3,46.1 437.0,45.8 439.7,45.3 442.5,45.1 445.2,44.9 447.9,44.7 450.6,44.5 453.3,44.1 456.0,43.7 458.7,43.3 461.5,42.9 464.2,42.6 466.9,42.3 469.6,42.1 472.3,41.9 475.0,41.3 477.7,40.8 480.5,40.5 483.2,40.1 485.9,39.4 488.6,39.3 491.3,39.1 494.0,38.9 496.7,38.6 499.4,38.3 502.2,37.9 504.9,37.7 507.6,37.4 510.3,37.1 513.0,36.8 515.7,36.6 518.4,36.5 521.2,36.1 523.9,35.7 526.6,35.5 529.3,35.1 532.0,34.7 534.7,34.3 537.4,34.2 540.2,33.9 542.9,33.6 545.6,33.2 548.3,32.6 551.0,32.1 553.7,31.8 556.4,31.7 559.1,31.3 561.9,30.9 564.6,30.7 567.3,30.5 570.0,30.0 570.0,30.0,120" />
  
  <!-- Linea principale -->
  <polyline fill="none" stroke="#0366d6" stroke-width="2.5" stroke-linecap="round" stroke-linejoin="round" points="30.0,120.0 32.7,119.1 35.4,118.1 38.1,117.2 40.9,116.9 43.6,116.5 46.3,115.4 49.0,114.7 51.7,114.2 54.4,113.1 57.1,112.5 59.8,112.0 62.6,111.6 65.3,111.1 68.0,110.4 70.7,109.6 73.4,109.0 76.1,108.5 78.8,108.2 81.6,107.7 84.3,107.2 87.0,106.6 89.7,106.4 92.4,105.9 95.1,104.1 97.8,103.6 100.6,102.9 103.3,102.2 106.0,101.6 108.7,101.0 111.4,100.7 114.1,100.4 116.8,99.9 119.5,99.0 122.3,98.3 125.0,97.8 127.7,97.2 130.4,97.0 133.1,96.9 135.8,96.6 138.5,96.0 141.3,95.7 144.0,95.4 146.7,94.8 149.4,93.8 152.1,93.6 154.8,93.4 157.5,93.1 160.3,92.3 163.0,91.8 165.7,91.0 168.4,90.5 171.1,89.8 173.8,89.7 176.5,89.2 179.2,88.5 182.0,87.8 184.7,87.3 187.4,87.1 190.1,86.7 192.8,86.4 195.5,85.6 198.2,84.9 201.0,84.2 203.7,83.5 206.4,83.2 209.1,83.0 211.8,82.7 214.5,82.2 217.2,81.8 219.9,81.5 222.7,81.3 225.4,81.0 228.1,80.7 230.8,80.4 233.5,80.2 236.2,80.1 238.9,79.3 241.7,78.9 244.4,78.8 247.1,78.6 249.8,78.4 252.5,78.4 255.2,90.3 257.9,89.1 260.7,88.1 263.4,87.0 266.1,83.7 268.8,81.5 271.5,79.0 274.2,78.1 276.9,77.1 279.6,75.5 282.4,73.6 285.1,72.3 287.8,71.8 290.5,71.3 293.2,70.0 295.9,69.1 298.6,68.5 301.4,67.7 304.1,67.4 306.8,67.3 309.5,66.6 312.2,65.5 314.9,64.7 317.6,63.9 320.4,63.0 323.1,62.5 325.8,62.2 328.5,61.5 331.2,60.8 333.9,60.1 336.6,59.6 339.3,59.4 342.1,59.2 344.8,58.8 347.5,58.2 350.2,57.8 352.9,57.3 355.6,57.0 358.3,56.6 361.1,56.3 363.8,56.0 366.5,55.7 369.2,55.4 371.9,54.8 374.6,54.3 377.3,53.8 380.1,53.5 382.8,53.1 385.5,52.9 388.2,52.6 390.9,52.4 393.6,51.5 396.3,50.9 399.0,50.2 401.8,49.9 404.5,49.9 407.2,49.5 409.9,49.1 412.6,48.7 415.3,48.3 418.0,47.8 420.8,47.4 423.5,47.2 426.2,47.0 428.9,46.7 431.6,46.5 434.3,46.1 437.0,45.8 439.7,45.3 442.5,45.1 445.2,44.9 447.9,44.7 450.6,44.5 453.3,44.1 456.0,43.7 458.7,43.3 461.5,42.9 464.2,42.6 466.9,42.3 469.6,42.1 472.3,41.9 475.0,41.3 477.7,40.8 480.5,40.5 483.2,40.1 485.9,39.4 488.6,39.3 491.3,39.1 494.0,38.9 496.7,38.6 499.4,38.3 502.2,37.9 504.9,37.7 507.6,37.4 510.3,37.1 513.0,36.8 515.7,36.6 518.4,36.5 521.2,36.1 523.9,35.7 526.6,35.5 529.3,35.1 532.0,34.7 534.7,34.3 537.4,34.2 540.2,33.9 542.9,33.6 545.6,33.2 548.3,32.6 551.0,32.1 553.7,31.8 556.4,31.7 559.1,31.3 561.9,30.9 564.6,30.7 567.3,30.5 570.0,30.0" />
  
  <!-- Punto finale luminoso -->
  <circle cx="570.0" cy="30.0" r="4" fill="#ffffff" stroke="#0366d6" stroke-width="2.5" />
</svg>