<svg width="600" height="150" viewBox="0 0 600 150" xmlns="http://www.w3.org/2000/svg">
  <defs>
    <filter id="shadow2" x="-2%" y="-2%" width="104%" height="108%">
      <feDropShadow dx="0" dy="2" stdDeviation="3" flood-opacity="0.1" />
    </filter>
    <linearGradient id="fillGrad" x1="0" y1="0" x2="0" y2="1">
      <stop offset="0%" stop-color="#0366d6" stop-opacity="0.3"/>
      <stop offset="100%" stop-color="#0366d6" stop-opacity="0.02"/>
    </linearGradient>
  </defs>
  <rect width="600" height="150" rx="12" fill="#ffffff" filter="url(#shadow2)" stroke="#e1e4e8" stroke-width="1"/>
  <text x="20" y="24" fill="#2b3137" font-family="-apple-system,BlinkMacSystemFont,'Segoe UI',Helvetica,Arial,sans-serif" font-size="14" font-weight="600">📈 Download Growth (Actual: 78.0k)</text>
  
  <!-- Area sotto la linea -->
  <polygon fill="url(#fillGrad)" points="30.0,120.0,120 30.0,120.0 32.6,119.1 35.1,118.1 37.7,117.3 40.3,117.0 42.9,116.6 45.4,115.5 48.0,114.8 50.6,114.4 53.1,113.3 55.7,112.7 58.3,112.2 60.9,111.9 63.4,111.4 66.0,110.7 68.6,109.9 71.1,109.3 73.7,108.9 76.3,108.6 78.9,108.1 81.4,107.5 84.0,107.0 86.6,106.8 89.1,106.3 91.7,104.6 94.3,104.1 96.9,103.4 99.4,102.8 102.0,102.2 104.6,101.6 107.1,101.2 109.7,101.0 112.3,100.5 114.9,99.6 117.4,98.9 120.0,98.5 122.6,97.9 125.1,97.7 127.7,97.6 130.3,97.3 132.9,96.7 135.4,96.4 138.0,96.2 140.6,95.6 143.1,94.6 145.7,94.4 148.3,94.2 150.9,93.9 153.4,93.2 156.0,92.7 158.6,91.9 161.1,91.4 163.7,90.7 166.3,90.6 168.9,90.2 171.4,89.5 174.0,88.8 176.6,88.3 179.1,88.0 181.7,87.7 184.3,87.4 186.9,86.6 189.4,85.9 192.0,85.3 194.6,84.6 197.1,84.3 199.7,84.1 202.3,83.9 204.9,83.3 207.4,83.0 210.0,82.7 212.6,82.4 215.1,82.2 217.7,81.8 220.3,81.6 222.9,81.4 225.4,81.3 228.0,80.6 230.6,80.2 233.1,80.0 235.7,79.8 238.3,79.7 240.9,79.7 243.4,91.2 246.0,90.1 248.6,89.0 251.1,88.0 253.7,84.8 256.3,82.6 258.9,80.3 261.4,79.4 264.0,78.4 266.6,76.8 269.1,75.0 271.7,73.7 274.3,73.3 276.9,72.8 279.4,71.5 282.0,70.6 284.6,70.0 287.1,69.3 289.7,69.0 292.3,68.8 294.9,68.2 297.4,67.1 300.0,66.3 302.6,65.6 305.1,64.7 307.7,64.3 310.3,64.0 312.9,63.2 315.4,62.6 318.0,61.9 320.6,61.4 323.1,61.2 325.7,61.0 328.3,60.6 330.9,60.1 333.4,59.6 336.0,59.2 338.6,58.9 341.1,58.5 343.7,58.2 346.3,57.9 348.9,57.7 351.4,57.4 354.0,56.8 356.6,56.3 359.1,55.8 361.7,55.5 364.3,55.2 366.9,54.9 369.4,54.7 372.0,54.4 374.6,53.6 377.1,53.0 379.7,52.3 382.3,52.0 384.9,52.0 387.4,51.6 390.0,51.3 392.6,50.8 395.1,50.4 397.7,49.9 400.3,49.6 402.9,49.4 405.4,49.2 408.0,48.9 410.6,48.7 413.1,48.4 415.7,48.1 418.3,47.6 420.9,47.3 423.4,47.2 426.0,46.9 428.6,46.8 431.1,46.3 433.7,46.0 436.3,45.6 438.9,45.3 441.4,44.9 444.0,44.6 446.6,44.5 449.1,44.2 451.7,43.7 454.3,43.2 456.9,42.9 459.4,42.5 462.0,41.9 464.6,41.7 467.1,41.5 469.7,41.3 472.3,41.0 474.9,40.7 477.4,40.4 480.0,40.1 482.6,39.9 485.1,39.6 487.7,39.3 490.3,39.1 492.9,39.0 495.4,38.7 498.0,38.2 500.6,38.0 503.1,37.6 505.7,37.2 508.3,36.9 510.9,36.7 513.4,36.5 516.0,36.2 518.6,35.8 521.1,35.2 523.7,34.8 526.3,34.5 528.9,34.4 531.4,33.9 534.0,33.6 536.6,33.4 539.1,33.2 541.7,32.7 544.3,32.6 546.9,32.2 549.4,32.1 552.0,31.8 554.6,31.5 557.1,31.2 559.7,30.7 562.3,30.4 564.9,30.2 567.4,30.1 570.0,30.0 570.0,30.0,120" />
  
  <!-- Linea principale -->
  <polyline fill="none" stroke="#0366d6" stroke-width="2.5" stroke-linecap="round" stroke-linejoin="round" points="30.0,120.0 32.6,119.1 35.1,118.1 37.7,117.3 40.3,117.0 42.9,116.6 45.4,115.5 48.0,114.8 50.6,114.4 53.1,113.3 55.7,112.7 58.3,112.2 60.9,111.9 63.4,111.4 66.0,110.7 68.6,109.9 71.1,109.3 73.7,108.9 76.3,108.6 78.9,108.1 81.4,107.5 84.0,107.0 86.6,106.8 89.1,106.3 91.7,104.6 94.3,104.1 96.9,103.4 99.4,102.8 102.0,102.2 104.6,101.6 107.1,101.2 109.7,101.0 112.3,100.5 114.9,99.6 117.4,98.9 120.0,98.5 122.6,97.9 125.1,97.7 127.7,97.6 130.3,97.3 132.9,96.7 135.4,96.4 138.0,96.2 140.6,95.6 143.1,94.6 145.7,94.4 148.3,94.2 150.9,93.9 153.4,93.2 156.0,92.7 158.6,91.9 161.1,91.4 163.7,90.7 166.3,90.6 168.9,90.2 171.4,89.5 174.0,88.8 176.6,88.3 179.1,88.0 181.7,87.7 184.3,87.4 186.9,86.6 189.4,85.9 192.0,85.3 194.6,84.6 197.1,84.3 199.7,84.1 202.3,83.9 204.9,83.3 207.4,83.0 210.0,82.7 212.6,82.4 215.1,82.2 217.7,81.8 220.3,81.6 222.9,81.4 225.4,81.3 228.0,80.6 230.6,80.2 233.1,80.0 235.7,79.8 238.3,79.7 240.9,79.7 243.4,91.2 246.0,90.1 248.6,89.0 251.1,88.0 253.7,84.8 256.3,82.6 258.9,80.3 261.4,79.4 264.0,78.4 266.6,76.8 269.1,75.0 271.7,73.7 274.3,73.3 276.9,72.8 279.4,71.5 282.0,70.6 284.6,70.0 287.1,69.3 289.7,69.0 292.3,68.8 294.9,68.2 297.4,67.1 300.0,66.3 302.6,65.6 305.1,64.7 307.7,64.3 310.3,64.0 312.9,63.2 315.4,62.6 318.0,61.9 320.6,61.4 323.1,61.2 325.7,61.0 328.3,60.6 330.9,60.1 333.4,59.6 336.0,59.2 338.6,58.9 341.1,58.5 343.7,58.2 346.3,57.9 348.9,57.7 351.4,57.4 354.0,56.8 356.6,56.3 359.1,55.8 361.7,55.5 364.3,55.2 366.9,54.9 369.4,54.7 372.0,54.4 374.6,53.6 377.1,53.0 379.7,52.3 382.3,52.0 384.9,52.0 387.4,51.6 390.0,51.3 392.6,50.8 395.1,50.4 397.7,49.9 400.3,49.6 402.9,49.4 405.4,49.2 408.0,48.9 410.6,48.7 413.1,48.4 415.7,48.1 418.3,47.6 420.9,47.3 423.4,47.2 426.0,46.9 428.6,46.8 431.1,46.3 433.7,46.0 436.3,45.6 438.9,45.3 441.4,44.9 444.0,44.6 446.6,44.5 449.1,44.2 451.7,43.7 454.3,43.2 456.9,42.9 459.4,42.5 462.0,41.9 464.6,41.7 467.1,41.5 469.7,41.3 472.3,41.0 474.9,40.7 477.4,40.4 480.0,40.1 482.6,39.9 485.1,39.6 487.7,39.3 490.3,39.1 492.9,39.0 495.4,38.7 498.0,38.2 500.6,38.0 503.1,37.6 505.7,37.2 508.3,36.9 510.9,36.7 513.4,36.5 516.0,36.2 518.6,35.8 521.1,35.2 523.7,34.8 526.3,34.5 528.9,34.4 531.4,33.9 534.0,33.6 536.6,33.4 539.1,33.2 541.7,32.7 544.3,32.6 546.9,32.2 549.4,32.1 552.0,31.8 554.6,31.5 557.1,31.2 559.7,30.7 562.3,30.4 564.9,30.2 567.4,30.1 570.0,30.0" />
  
  <!-- Punto finale luminoso -->
  <circle cx="570.0" cy="30.0" r="4" fill="#ffffff" stroke="#0366d6" stroke-width="2.5" />
</svg>