<svg width="600" height="150" viewBox="0 0 600 150" xmlns="http://www.w3.org/2000/svg">
  <defs>
    <filter id="shadow2" x="-2%" y="-2%" width="104%" height="108%">
      <feDropShadow dx="0" dy="2" stdDeviation="3" flood-opacity="0.1" />
    </filter>
    <linearGradient id="fillGrad" x1="0" y1="0" x2="0" y2="1">
      <stop offset="0%" stop-color="#0366d6" stop-opacity="0.3"/>
      <stop offset="100%" stop-color="#0366d6" stop-opacity="0.02"/>
    </linearGradient>
  </defs>
  <rect width="600" height="150" rx="12" fill="#ffffff" filter="url(#shadow2)" stroke="#e1e4e8" stroke-width="1"/>
  <text x="20" y="24" fill="#2b3137" font-family="-apple-system,BlinkMacSystemFont,'Segoe UI',Helvetica,Arial,sans-serif" font-size="14" font-weight="600">📈 Download Growth (Actual: 78.0k)</text>
  
  <!-- Area sotto la linea -->
  <polygon fill="url(#fillGrad)" points="30.0,120.0,120 30.0,120.0 32.6,119.1 35.2,118.1 37.8,117.2 40.4,117.0 43.0,116.6 45.6,115.5 48.2,114.8 50.8,114.3 53.4,113.3 56.0,112.7 58.6,112.2 61.2,111.9 63.8,111.4 66.3,110.6 68.9,109.9 71.5,109.3 74.1,108.9 76.7,108.6 79.3,108.1 81.9,107.5 84.5,107.0 87.1,106.8 89.7,106.3 92.3,104.6 94.9,104.1 97.5,103.4 100.1,102.7 102.7,102.1 105.3,101.6 107.9,101.2 110.5,100.9 113.1,100.4 115.7,99.6 118.3,98.9 120.9,98.4 123.5,97.8 126.1,97.7 128.7,97.5 131.2,97.2 133.8,96.7 136.4,96.3 139.0,96.1 141.6,95.5 144.2,94.6 146.8,94.3 149.4,94.2 152.0,93.8 154.6,93.1 157.2,92.6 159.8,91.8 162.4,91.3 165.0,90.6 167.6,90.5 170.2,90.1 172.8,89.4 175.4,88.7 178.0,88.2 180.6,88.0 183.2,87.6 185.8,87.3 188.4,86.5 191.0,85.8 193.6,85.2 196.2,84.6 198.8,84.2 201.3,84.0 203.9,83.8 206.5,83.2 209.1,82.9 211.7,82.6 214.3,82.3 216.9,82.1 219.5,81.7 222.1,81.5 224.7,81.3 227.3,81.2 229.9,80.5 232.5,80.1 235.1,79.9 237.7,79.7 240.3,79.6 242.9,79.6 245.5,91.1 248.1,90.0 250.7,89.0 253.3,87.9 255.9,84.7 258.5,82.5 261.1,80.2 263.7,79.3 266.2,78.3 268.8,76.7 271.4,74.9 274.0,73.6 276.6,73.1 279.2,72.7 281.8,71.4 284.4,70.5 287.0,69.9 289.6,69.1 292.2,68.8 294.8,68.7 297.4,68.0 300.0,67.0 302.6,66.2 305.2,65.4 307.8,64.5 310.4,64.1 313.0,63.8 315.6,63.1 318.2,62.4 320.8,61.8 323.4,61.3 326.0,61.0 328.6,60.9 331.2,60.5 333.8,59.9 336.3,59.5 338.9,59.1 341.5,58.7 344.1,58.4 346.7,58.1 349.3,57.8 351.9,57.5 354.5,57.2 357.1,56.6 359.7,56.2 362.3,55.6 364.9,55.3 367.5,55.0 370.1,54.8 372.7,54.5 375.3,54.2 377.9,53.4 380.5,52.8 383.1,52.1 385.7,51.9 388.3,51.8 390.9,51.5 393.5,51.1 396.1,50.7 398.7,50.3 401.2,49.7 403.8,49.4 406.4,49.2 409.0,49.0 411.6,48.7 414.2,48.5 416.8,48.2 419.4,47.9 422.0,47.4 424.6,47.2 427.2,47.0 429.8,46.7 432.4,46.6 435.0,46.2 437.6,45.8 440.2,45.4 442.8,45.1 445.4,44.7 448.0,44.4 450.6,44.3 453.2,44.0 455.8,43.5 458.4,43.0 461.0,42.7 463.6,42.3 466.2,41.7 468.8,41.5 471.3,41.3 473.9,41.1 476.5,40.8 479.1,40.5 481.7,40.2 484.3,39.9 486.9,39.6 489.5,39.4 492.1,39.1 494.7,38.9 497.3,38.8 499.9,38.5 502.5,38.0 505.1,37.8 507.7,37.4 510.3,37.0 512.9,36.7 515.5,36.5 518.1,36.3 520.7,36.0 523.3,35.5 525.9,35.0 528.5,34.5 531.1,34.3 533.7,34.1 536.2,33.7 538.8,33.3 541.4,33.1 544.0,32.9 546.6,32.5 549.2,32.3 551.8,32.0 554.4,31.8 557.0,31.6 559.6,31.2 562.2,30.9 564.8,30.5 567.4,30.1 570.0,30.0 570.0,30.0,120" />
  
  <!-- Linea principale -->
  <polyline fill="none" stroke="#0366d6" stroke-width="2.5" stroke-linecap="round" stroke-linejoin="round" points="30.0,120.0 32.6,119.1 35.2,118.1 37.8,117.2 40.4,117.0 43.0,116.6 45.6,115.5 48.2,114.8 50.8,114.3 53.4,113.3 56.0,112.7 58.6,112.2 61.2,111.9 63.8,111.4 66.3,110.6 68.9,109.9 71.5,109.3 74.1,108.9 76.7,108.6 79.3,108.1 81.9,107.5 84.5,107.0 87.1,106.8 89.7,106.3 92.3,104.6 94.9,104.1 97.5,103.4 100.1,102.7 102.7,102.1 105.3,101.6 107.9,101.2 110.5,100.9 113.1,100.4 115.7,99.6 118.3,98.9 120.9,98.4 123.5,97.8 126.1,97.7 128.7,97.5 131.2,97.2 133.8,96.7 136.4,96.3 139.0,96.1 141.6,95.5 144.2,94.6 146.8,94.3 149.4,94.2 152.0,93.8 154.6,93.1 157.2,92.6 159.8,91.8 162.4,91.3 165.0,90.6 167.6,90.5 170.2,90.1 172.8,89.4 175.4,88.7 178.0,88.2 180.6,88.0 183.2,87.6 185.8,87.3 188.4,86.5 191.0,85.8 193.6,85.2 196.2,84.6 198.8,84.2 201.3,84.0 203.9,83.8 206.5,83.2 209.1,82.9 211.7,82.6 214.3,82.3 216.9,82.1 219.5,81.7 222.1,81.5 224.7,81.3 227.3,81.2 229.9,80.5 232.5,80.1 235.1,79.9 237.7,79.7 240.3,79.6 242.9,79.6 245.5,91.1 248.1,90.0 250.7,89.0 253.3,87.9 255.9,84.7 258.5,82.5 261.1,80.2 263.7,79.3 266.2,78.3 268.8,76.7 271.4,74.9 274.0,73.6 276.6,73.1 279.2,72.7 281.8,71.4 284.4,70.5 287.0,69.9 289.6,69.1 292.2,68.8 294.8,68.7 297.4,68.0 300.0,67.0 302.6,66.2 305.2,65.4 307.8,64.5 310.4,64.1 313.0,63.8 315.6,63.1 318.2,62.4 320.8,61.8 323.4,61.3 326.0,61.0 328.6,60.9 331.2,60.5 333.8,59.9 336.3,59.5 338.9,59.1 341.5,58.7 344.1,58.4 346.7,58.1 349.3,57.8 351.9,57.5 354.5,57.2 357.1,56.6 359.7,56.2 362.3,55.6 364.9,55.3 367.5,55.0 370.1,54.8 372.7,54.5 375.3,54.2 377.9,53.4 380.5,52.8 383.1,52.1 385.7,51.9 388.3,51.8 390.9,51.5 393.5,51.1 396.1,50.7 398.7,50.3 401.2,49.7 403.8,49.4 406.4,49.2 409.0,49.0 411.6,48.7 414.2,48.5 416.8,48.2 419.4,47.9 422.0,47.4 424.6,47.2 427.2,47.0 429.8,46.7 432.4,46.6 435.0,46.2 437.6,45.8 440.2,45.4 442.8,45.1 445.4,44.7 448.0,44.4 450.6,44.3 453.2,44.0 455.8,43.5 458.4,43.0 461.0,42.7 463.6,42.3 466.2,41.7 468.8,41.5 471.3,41.3 473.9,41.1 476.5,40.8 479.1,40.5 481.7,40.2 484.3,39.9 486.9,39.6 489.5,39.4 492.1,39.1 494.7,38.9 497.3,38.8 499.9,38.5 502.5,38.0 505.1,37.8 507.7,37.4 510.3,37.0 512.9,36.7 515.5,36.5 518.1,36.3 520.7,36.0 523.3,35.5 525.9,35.0 528.5,34.5 531.1,34.3 533.7,34.1 536.2,33.7 538.8,33.3 541.4,33.1 544.0,32.9 546.6,32.5 549.2,32.3 551.8,32.0 554.4,31.8 557.0,31.6 559.6,31.2 562.2,30.9 564.8,30.5 567.4,30.1 570.0,30.0" />
  
  <!-- Punto finale luminoso -->
  <circle cx="570.0" cy="30.0" r="4" fill="#ffffff" stroke="#0366d6" stroke-width="2.5" />
</svg>