<svg width="600" height="150" viewBox="0 0 600 150" xmlns="http://www.w3.org/2000/svg">
  <defs>
    <filter id="shadow2" x="-2%" y="-2%" width="104%" height="108%">
      <feDropShadow dx="0" dy="2" stdDeviation="3" flood-opacity="0.1" />
    </filter>
    <linearGradient id="fillGrad" x1="0" y1="0" x2="0" y2="1">
      <stop offset="0%" stop-color="#0366d6" stop-opacity="0.3"/>
      <stop offset="100%" stop-color="#0366d6" stop-opacity="0.02"/>
    </linearGradient>
  </defs>
  <rect width="600" height="150" rx="12" fill="#ffffff" filter="url(#shadow2)" stroke="#e1e4e8" stroke-width="1"/>
  <text x="20" y="24" fill="#2b3137" font-family="-apple-system,BlinkMacSystemFont,'Segoe UI',Helvetica,Arial,sans-serif" font-size="14" font-weight="600">📈 Download Growth (Actual: 78.1k)</text>
  
  <!-- Area sotto la linea -->
  <polygon fill="url(#fillGrad)" points="30.0,120.0,120 30.0,120.0 32.5,119.1 35.1,118.1 37.6,117.3 40.1,117.1 42.7,116.6 45.2,115.6 47.7,114.9 50.3,114.4 52.8,113.3 55.4,112.8 57.9,112.3 60.4,112.0 63.0,111.5 65.5,110.7 68.0,110.0 70.6,109.4 73.1,109.0 75.6,108.7 78.2,108.2 80.7,107.7 83.2,107.2 85.8,106.9 88.3,106.4 90.8,104.8 93.4,104.2 95.9,103.6 98.5,102.9 101.0,102.3 103.5,101.8 106.1,101.4 108.6,101.1 111.1,100.7 113.7,99.8 116.2,99.1 118.7,98.6 121.3,98.1 123.8,97.9 126.3,97.8 128.9,97.5 131.4,96.9 133.9,96.6 136.5,96.4 139.0,95.8 141.5,94.9 144.1,94.7 146.6,94.5 149.2,94.1 151.7,93.4 154.2,92.9 156.8,92.2 159.3,91.6 161.8,91.0 164.4,90.8 166.9,90.4 169.4,89.8 172.0,89.1 174.5,88.6 177.0,88.3 179.6,88.0 182.1,87.7 184.6,86.9 187.2,86.2 189.7,85.6 192.3,85.0 194.8,84.7 197.3,84.5 199.9,84.2 202.4,83.7 204.9,83.3 207.5,83.0 210.0,82.8 212.5,82.6 215.1,82.2 217.6,81.9 220.1,81.8 222.7,81.6 225.2,80.9 227.7,80.5 230.3,80.4 232.8,80.2 235.4,80.0 237.9,80.0 240.4,91.5 243.0,90.3 245.5,89.3 248.0,88.3 250.6,85.2 253.1,83.0 255.6,80.6 258.2,79.8 260.7,78.8 263.2,77.2 265.8,75.5 268.3,74.2 270.8,73.7 273.4,73.2 275.9,72.0 278.5,71.1 281.0,70.5 283.5,69.7 286.1,69.4 288.6,69.3 291.1,68.7 293.7,67.6 296.2,66.8 298.7,66.1 301.3,65.2 303.8,64.8 306.3,64.5 308.9,63.7 311.4,63.1 313.9,62.5 316.5,61.9 319.0,61.7 321.5,61.6 324.1,61.2 326.6,60.6 329.2,60.2 331.7,59.8 334.2,59.4 336.8,59.1 339.3,58.8 341.8,58.5 344.4,58.2 346.9,57.9 349.4,57.3 352.0,56.9 354.5,56.4 357.0,56.1 359.6,55.8 362.1,55.5 364.6,55.3 367.2,55.0 369.7,54.2 372.3,53.6 374.8,52.9 377.3,52.7 379.9,52.6 382.4,52.3 384.9,51.9 387.5,51.5 390.0,51.1 392.5,50.6 395.1,50.2 397.6,50.1 400.1,49.8 402.7,49.6 405.2,49.4 407.7,49.0 410.3,48.7 412.8,48.2 415.4,48.0 417.9,47.9 420.4,47.6 423.0,47.5 425.5,47.0 428.0,46.7 430.6,46.3 433.1,45.9 435.6,45.6 438.2,45.3 440.7,45.2 443.2,44.9 445.8,44.4 448.3,43.9 450.8,43.6 453.4,43.2 455.9,42.6 458.5,42.4 461.0,42.2 463.5,42.1 466.1,41.8 468.6,41.5 471.1,41.1 473.7,40.9 476.2,40.6 478.7,40.4 481.3,40.1 483.8,39.9 486.3,39.7 488.9,39.4 491.4,39.0 493.9,38.8 496.5,38.4 499.0,38.0 501.5,37.7 504.1,37.5 506.6,37.3 509.2,37.0 511.7,36.5 514.2,36.0 516.8,35.5 519.3,35.3 521.8,35.2 524.4,34.7 526.9,34.4 529.4,34.2 532.0,34.0 534.5,33.5 537.0,33.4 539.6,33.0 542.1,32.9 544.6,32.6 547.2,32.3 549.7,32.0 552.3,31.6 554.8,31.2 557.3,31.1 559.9,31.0 562.4,30.8 564.9,30.5 567.5,30.3 570.0,30.0 570.0,30.0,120" />
  
  <!-- Linea principale -->
  <polyline fill="none" stroke="#0366d6" stroke-width="2.5" stroke-linecap="round" stroke-linejoin="round" points="30.0,120.0 32.5,119.1 35.1,118.1 37.6,117.3 40.1,117.1 42.7,116.6 45.2,115.6 47.7,114.9 50.3,114.4 52.8,113.3 55.4,112.8 57.9,112.3 60.4,112.0 63.0,111.5 65.5,110.7 68.0,110.0 70.6,109.4 73.1,109.0 75.6,108.7 78.2,108.2 80.7,107.7 83.2,107.2 85.8,106.9 88.3,106.4 90.8,104.8 93.4,104.2 95.9,103.6 98.5,102.9 101.0,102.3 103.5,101.8 106.1,101.4 108.6,101.1 111.1,100.7 113.7,99.8 116.2,99.1 118.7,98.6 121.3,98.1 123.8,97.9 126.3,97.8 128.9,97.5 131.4,96.9 133.9,96.6 136.5,96.4 139.0,95.8 141.5,94.9 144.1,94.7 146.6,94.5 149.2,94.1 151.7,93.4 154.2,92.9 156.8,92.2 159.3,91.6 161.8,91.0 164.4,90.8 166.9,90.4 169.4,89.8 172.0,89.1 174.5,88.6 177.0,88.3 179.6,88.0 182.1,87.7 184.6,86.9 187.2,86.2 189.7,85.6 192.3,85.0 194.8,84.7 197.3,84.5 199.9,84.2 202.4,83.7 204.9,83.3 207.5,83.0 210.0,82.8 212.5,82.6 215.1,82.2 217.6,81.9 220.1,81.8 222.7,81.6 225.2,80.9 227.7,80.5 230.3,80.4 232.8,80.2 235.4,80.0 237.9,80.0 240.4,91.5 243.0,90.3 245.5,89.3 248.0,88.3 250.6,85.2 253.1,83.0 255.6,80.6 258.2,79.8 260.7,78.8 263.2,77.2 265.8,75.5 268.3,74.2 270.8,73.7 273.4,73.2 275.9,72.0 278.5,71.1 281.0,70.5 283.5,69.7 286.1,69.4 288.6,69.3 291.1,68.7 293.7,67.6 296.2,66.8 298.7,66.1 301.3,65.2 303.8,64.8 306.3,64.5 308.9,63.7 311.4,63.1 313.9,62.5 316.5,61.9 319.0,61.7 321.5,61.6 324.1,61.2 326.6,60.6 329.2,60.2 331.7,59.8 334.2,59.4 336.8,59.1 339.3,58.8 341.8,58.5 344.4,58.2 346.9,57.9 349.4,57.3 352.0,56.9 354.5,56.4 357.0,56.1 359.6,55.8 362.1,55.5 364.6,55.3 367.2,55.0 369.7,54.2 372.3,53.6 374.8,52.9 377.3,52.7 379.9,52.6 382.4,52.3 384.9,51.9 387.5,51.5 390.0,51.1 392.5,50.6 395.1,50.2 397.6,50.1 400.1,49.8 402.7,49.6 405.2,49.4 407.7,49.0 410.3,48.7 412.8,48.2 415.4,48.0 417.9,47.9 420.4,47.6 423.0,47.5 425.5,47.0 428.0,46.7 430.6,46.3 433.1,45.9 435.6,45.6 438.2,45.3 440.7,45.2 443.2,44.9 445.8,44.4 448.3,43.9 450.8,43.6 453.4,43.2 455.9,42.6 458.5,42.4 461.0,42.2 463.5,42.1 466.1,41.8 468.6,41.5 471.1,41.1 473.7,40.9 476.2,40.6 478.7,40.4 481.3,40.1 483.8,39.9 486.3,39.7 488.9,39.4 491.4,39.0 493.9,38.8 496.5,38.4 499.0,38.0 501.5,37.7 504.1,37.5 506.6,37.3 509.2,37.0 511.7,36.5 514.2,36.0 516.8,35.5 519.3,35.3 521.8,35.2 524.4,34.7 526.9,34.4 529.4,34.2 532.0,34.0 534.5,33.5 537.0,33.4 539.6,33.0 542.1,32.9 544.6,32.6 547.2,32.3 549.7,32.0 552.3,31.6 554.8,31.2 557.3,31.1 559.9,31.0 562.4,30.8 564.9,30.5 567.5,30.3 570.0,30.0" />
  
  <!-- Punto finale luminoso -->
  <circle cx="570.0" cy="30.0" r="4" fill="#ffffff" stroke="#0366d6" stroke-width="2.5" />
</svg>