<svg width="600" height="150" viewBox="0 0 600 150" xmlns="http://www.w3.org/2000/svg">
  <defs>
    <filter id="shadow2" x="-2%" y="-2%" width="104%" height="108%">
      <feDropShadow dx="0" dy="2" stdDeviation="3" flood-opacity="0.1" />
    </filter>
    <linearGradient id="fillGrad" x1="0" y1="0" x2="0" y2="1">
      <stop offset="0%" stop-color="#0366d6" stop-opacity="0.3"/>
      <stop offset="100%" stop-color="#0366d6" stop-opacity="0.02"/>
    </linearGradient>
  </defs>
  <rect width="600" height="150" rx="12" fill="#ffffff" filter="url(#shadow2)" stroke="#e1e4e8" stroke-width="1"/>
  <text x="20" y="24" fill="#2b3137" font-family="-apple-system,BlinkMacSystemFont,'Segoe UI',Helvetica,Arial,sans-serif" font-size="14" font-weight="600">📈 Download Growth (Actual: 78.1k)</text>
  
  <!-- Area sotto la linea -->
  <polygon fill="url(#fillGrad)" points="30.0,120.0,120 30.0,120.0 32.5,119.1 35.1,118.1 37.6,117.3 40.2,117.0 42.7,116.6 45.3,115.6 47.8,114.9 50.4,114.4 52.9,113.3 55.5,112.8 58.0,112.2 60.6,111.9 63.1,111.4 65.7,110.7 68.2,109.9 70.8,109.3 73.3,108.9 75.8,108.7 78.4,108.2 80.9,107.6 83.5,107.1 86.0,106.9 88.6,106.4 91.1,104.7 93.7,104.2 96.2,103.5 98.8,102.9 101.3,102.3 103.9,101.7 106.4,101.3 109.0,101.1 111.5,100.6 114.1,99.8 116.6,99.1 119.2,98.6 121.7,98.0 124.2,97.8 126.8,97.7 129.3,97.4 131.9,96.9 134.4,96.5 137.0,96.3 139.5,95.7 142.1,94.8 144.6,94.6 147.2,94.4 149.7,94.0 152.3,93.3 154.8,92.8 157.4,92.1 159.9,91.5 162.5,90.9 165.0,90.7 167.5,90.3 170.1,89.7 172.6,89.0 175.2,88.5 177.7,88.2 180.3,87.9 182.8,87.6 185.4,86.8 187.9,86.1 190.5,85.5 193.0,84.8 195.6,84.5 198.1,84.3 200.7,84.1 203.2,83.5 205.8,83.2 208.3,82.9 210.8,82.6 213.4,82.4 215.9,82.0 218.5,81.8 221.0,81.6 223.6,81.5 226.1,80.8 228.7,80.4 231.2,80.3 233.8,80.0 236.3,79.9 238.9,79.9 241.4,91.4 244.0,90.2 246.5,89.2 249.1,88.1 251.6,85.0 254.2,82.8 256.7,80.5 259.2,79.6 261.8,78.6 264.3,77.0 266.9,75.3 269.4,74.0 272.0,73.5 274.5,73.1 277.1,71.8 279.6,70.9 282.2,70.3 284.7,69.6 287.3,69.3 289.8,69.1 292.4,68.5 294.9,67.4 297.5,66.6 300.0,65.9 302.5,65.0 305.1,64.6 307.6,64.3 310.2,63.5 312.7,62.9 315.3,62.2 317.8,61.7 320.4,61.5 322.9,61.3 325.5,60.9 328.0,60.4 330.6,60.0 333.1,59.6 335.7,59.2 338.2,58.9 340.8,58.6 343.3,58.3 345.8,58.0 348.4,57.7 350.9,57.1 353.5,56.7 356.0,56.2 358.6,55.9 361.1,55.5 363.7,55.3 366.2,55.0 368.8,54.8 371.3,53.9 373.9,53.4 376.4,52.7 379.0,52.4 381.5,52.3 384.1,52.0 386.6,51.7 389.2,51.2 391.7,50.8 394.2,50.3 396.8,50.0 399.3,49.8 401.9,49.6 404.4,49.3 407.0,49.1 409.5,48.8 412.1,48.5 414.6,48.0 417.2,47.7 419.7,47.6 422.3,47.3 424.8,47.2 427.4,46.8 429.9,46.4 432.5,46.0 435.0,45.7 437.5,45.3 440.1,45.0 442.6,44.9 445.2,44.6 447.7,44.1 450.3,43.6 452.8,43.3 455.4,42.9 457.9,42.3 460.5,42.1 463.0,41.9 465.6,41.8 468.1,41.5 470.7,41.2 473.2,40.8 475.8,40.6 478.3,40.3 480.8,40.1 483.4,39.8 485.9,39.6 488.5,39.4 491.0,39.1 493.6,38.6 496.1,38.4 498.7,38.1 501.2,37.7 503.8,37.4 506.3,37.2 508.9,37.0 511.4,36.7 514.0,36.2 516.5,35.7 519.1,35.2 521.6,35.0 524.2,34.8 526.7,34.4 529.2,34.0 531.8,33.8 534.3,33.6 536.9,33.2 539.4,33.0 542.0,32.7 544.5,32.5 547.1,32.3 549.6,31.9 552.2,31.6 554.7,31.2 557.3,30.9 559.8,30.7 562.4,30.6 564.9,30.5 567.5,30.2 570.0,30.0 570.0,30.0,120" />
  
  <!-- Linea principale -->
  <polyline fill="none" stroke="#0366d6" stroke-width="2.5" stroke-linecap="round" stroke-linejoin="round" points="30.0,120.0 32.5,119.1 35.1,118.1 37.6,117.3 40.2,117.0 42.7,116.6 45.3,115.6 47.8,114.9 50.4,114.4 52.9,113.3 55.5,112.8 58.0,112.2 60.6,111.9 63.1,111.4 65.7,110.7 68.2,109.9 70.8,109.3 73.3,108.9 75.8,108.7 78.4,108.2 80.9,107.6 83.5,107.1 86.0,106.9 88.6,106.4 91.1,104.7 93.7,104.2 96.2,103.5 98.8,102.9 101.3,102.3 103.9,101.7 106.4,101.3 109.0,101.1 111.5,100.6 114.1,99.8 116.6,99.1 119.2,98.6 121.7,98.0 124.2,97.8 126.8,97.7 129.3,97.4 131.9,96.9 134.4,96.5 137.0,96.3 139.5,95.7 142.1,94.8 144.6,94.6 147.2,94.4 149.7,94.0 152.3,93.3 154.8,92.8 157.4,92.1 159.9,91.5 162.5,90.9 165.0,90.7 167.5,90.3 170.1,89.7 172.6,89.0 175.2,88.5 177.7,88.2 180.3,87.9 182.8,87.6 185.4,86.8 187.9,86.1 190.5,85.5 193.0,84.8 195.6,84.5 198.1,84.3 200.7,84.1 203.2,83.5 205.8,83.2 208.3,82.9 210.8,82.6 213.4,82.4 215.9,82.0 218.5,81.8 221.0,81.6 223.6,81.5 226.1,80.8 228.7,80.4 231.2,80.3 233.8,80.0 236.3,79.9 238.9,79.9 241.4,91.4 244.0,90.2 246.5,89.2 249.1,88.1 251.6,85.0 254.2,82.8 256.7,80.5 259.2,79.6 261.8,78.6 264.3,77.0 266.9,75.3 269.4,74.0 272.0,73.5 274.5,73.1 277.1,71.8 279.6,70.9 282.2,70.3 284.7,69.6 287.3,69.3 289.8,69.1 292.4,68.5 294.9,67.4 297.5,66.6 300.0,65.9 302.5,65.0 305.1,64.6 307.6,64.3 310.2,63.5 312.7,62.9 315.3,62.2 317.8,61.7 320.4,61.5 322.9,61.3 325.5,60.9 328.0,60.4 330.6,60.0 333.1,59.6 335.7,59.2 338.2,58.9 340.8,58.6 343.3,58.3 345.8,58.0 348.4,57.7 350.9,57.1 353.5,56.7 356.0,56.2 358.6,55.9 361.1,55.5 363.7,55.3 366.2,55.0 368.8,54.8 371.3,53.9 373.9,53.4 376.4,52.7 379.0,52.4 381.5,52.3 384.1,52.0 386.6,51.7 389.2,51.2 391.7,50.8 394.2,50.3 396.8,50.0 399.3,49.8 401.9,49.6 404.4,49.3 407.0,49.1 409.5,48.8 412.1,48.5 414.6,48.0 417.2,47.7 419.7,47.6 422.3,47.3 424.8,47.2 427.4,46.8 429.9,46.4 432.5,46.0 435.0,45.7 437.5,45.3 440.1,45.0 442.6,44.9 445.2,44.6 447.7,44.1 450.3,43.6 452.8,43.3 455.4,42.9 457.9,42.3 460.5,42.1 463.0,41.9 465.6,41.8 468.1,41.5 470.7,41.2 473.2,40.8 475.8,40.6 478.3,40.3 480.8,40.1 483.4,39.8 485.9,39.6 488.5,39.4 491.0,39.1 493.6,38.6 496.1,38.4 498.7,38.1 501.2,37.7 503.8,37.4 506.3,37.2 508.9,37.0 511.4,36.7 514.0,36.2 516.5,35.7 519.1,35.2 521.6,35.0 524.2,34.8 526.7,34.4 529.2,34.0 531.8,33.8 534.3,33.6 536.9,33.2 539.4,33.0 542.0,32.7 544.5,32.5 547.1,32.3 549.6,31.9 552.2,31.6 554.7,31.2 557.3,30.9 559.8,30.7 562.4,30.6 564.9,30.5 567.5,30.2 570.0,30.0" />
  
  <!-- Punto finale luminoso -->
  <circle cx="570.0" cy="30.0" r="4" fill="#ffffff" stroke="#0366d6" stroke-width="2.5" />
</svg>