<svg width="600" height="150" viewBox="0 0 600 150" xmlns="http://www.w3.org/2000/svg">
  <defs>
    <filter id="shadow2" x="-2%" y="-2%" width="104%" height="108%">
      <feDropShadow dx="0" dy="2" stdDeviation="3" flood-opacity="0.1" />
    </filter>
    <linearGradient id="fillGrad" x1="0" y1="0" x2="0" y2="1">
      <stop offset="0%" stop-color="#0366d6" stop-opacity="0.3"/>
      <stop offset="100%" stop-color="#0366d6" stop-opacity="0.02"/>
    </linearGradient>
  </defs>
  <rect width="600" height="150" rx="12" fill="#ffffff" filter="url(#shadow2)" stroke="#e1e4e8" stroke-width="1"/>
  <text x="20" y="24" fill="#2b3137" font-family="-apple-system,BlinkMacSystemFont,'Segoe UI',Helvetica,Arial,sans-serif" font-size="14" font-weight="600">📈 Download Growth (Actual: 77.6k)</text>
  
  <!-- Area sotto la linea -->
  <polygon fill="url(#fillGrad)" points="30.0,120.0,120 30.0,120.0 32.7,119.1 35.5,118.0 38.2,117.2 40.9,116.9 43.6,116.5 46.4,115.4 49.1,114.6 51.8,114.2 54.5,113.0 57.3,112.5 60.0,111.9 62.7,111.6 65.5,111.1 68.2,110.3 70.9,109.5 73.6,108.9 76.4,108.5 79.1,108.2 81.8,107.7 84.5,107.1 87.3,106.6 90.0,106.3 92.7,105.8 95.5,104.1 98.2,103.5 100.9,102.8 103.6,102.1 106.4,101.5 109.1,100.9 111.8,100.6 114.5,100.3 117.3,99.8 120.0,98.9 122.7,98.2 125.5,97.7 128.2,97.1 130.9,96.9 133.6,96.8 136.4,96.5 139.1,95.9 141.8,95.6 144.5,95.3 147.3,94.7 150.0,93.7 152.7,93.5 155.5,93.3 158.2,92.9 160.9,92.2 163.6,91.7 166.4,90.9 169.1,90.3 171.8,89.6 174.5,89.5 177.3,89.1 180.0,88.4 182.7,87.7 185.5,87.1 188.2,86.9 190.9,86.5 193.6,86.2 196.4,85.4 199.1,84.7 201.8,84.0 204.5,83.4 207.3,83.0 210.0,82.8 212.7,82.5 215.5,82.0 218.2,81.6 220.9,81.3 223.6,81.1 226.4,80.8 229.1,80.4 231.8,80.2 234.5,80.0 237.3,79.8 240.0,79.1 242.7,78.7 245.5,78.6 248.2,78.3 250.9,78.2 253.6,78.2 256.4,90.1 259.1,89.0 261.8,87.9 264.5,86.8 267.3,83.6 270.0,81.3 272.7,78.8 275.5,77.9 278.2,76.9 280.9,75.2 283.6,73.4 286.4,72.1 289.1,71.6 291.8,71.1 294.5,69.8 297.3,68.8 300.0,68.2 302.7,67.4 305.5,67.1 308.2,67.0 310.9,66.3 313.6,65.2 316.4,64.4 319.1,63.6 321.8,62.7 324.5,62.2 327.3,61.9 330.0,61.2 332.7,60.5 335.5,59.8 338.2,59.3 340.9,59.0 343.6,58.9 346.4,58.5 349.1,57.9 351.8,57.4 354.5,57.0 357.3,56.7 360.0,56.3 362.7,56.0 365.5,55.7 368.2,55.4 370.9,55.1 373.6,54.5 376.4,54.0 379.1,53.5 381.8,53.2 384.5,52.8 387.3,52.6 390.0,52.3 392.7,52.0 395.5,51.1 398.2,50.6 400.9,49.8 403.6,49.6 406.4,49.5 409.1,49.2 411.8,48.8 414.5,48.3 417.3,47.9 420.0,47.4 422.7,47.0 425.5,46.9 428.2,46.6 430.9,46.3 433.6,46.1 436.4,45.8 439.1,45.5 441.8,44.9 444.5,44.7 447.3,44.5 450.0,44.3 452.7,44.1 455.5,43.7 458.2,43.3 460.9,42.9 463.6,42.5 466.4,42.1 469.1,41.9 471.8,41.7 474.5,41.4 477.3,40.9 480.0,40.4 482.7,40.1 485.5,39.7 488.2,39.0 490.9,38.9 493.6,38.7 496.4,38.5 499.1,38.1 501.8,37.9 504.5,37.5 507.3,37.2 510.0,36.9 512.7,36.7 515.5,36.4 518.2,36.2 520.9,36.0 523.6,35.7 526.4,35.2 529.1,35.0 531.8,34.6 534.5,34.2 537.3,33.9 540.0,33.7 542.7,33.5 545.5,33.2 548.2,32.7 550.9,32.1 553.6,31.7 556.4,31.4 559.1,31.3 561.8,30.8 564.5,30.4 567.3,30.2 570.0,30.0 570.0,30.0,120" />
  
  <!-- Linea principale -->
  <polyline fill="none" stroke="#0366d6" stroke-width="2.5" stroke-linecap="round" stroke-linejoin="round" points="30.0,120.0 32.7,119.1 35.5,118.0 38.2,117.2 40.9,116.9 43.6,116.5 46.4,115.4 49.1,114.6 51.8,114.2 54.5,113.0 57.3,112.5 60.0,111.9 62.7,111.6 65.5,111.1 68.2,110.3 70.9,109.5 73.6,108.9 76.4,108.5 79.1,108.2 81.8,107.7 84.5,107.1 87.3,106.6 90.0,106.3 92.7,105.8 95.5,104.1 98.2,103.5 100.9,102.8 103.6,102.1 106.4,101.5 109.1,100.9 111.8,100.6 114.5,100.3 117.3,99.8 120.0,98.9 122.7,98.2 125.5,97.7 128.2,97.1 130.9,96.9 133.6,96.8 136.4,96.5 139.1,95.9 141.8,95.6 144.5,95.3 147.3,94.7 150.0,93.7 152.7,93.5 155.5,93.3 158.2,92.9 160.9,92.2 163.6,91.7 166.4,90.9 169.1,90.3 171.8,89.6 174.5,89.5 177.3,89.1 180.0,88.4 182.7,87.7 185.5,87.1 188.2,86.9 190.9,86.5 193.6,86.2 196.4,85.4 199.1,84.7 201.8,84.0 204.5,83.4 207.3,83.0 210.0,82.8 212.7,82.5 215.5,82.0 218.2,81.6 220.9,81.3 223.6,81.1 226.4,80.8 229.1,80.4 231.8,80.2 234.5,80.0 237.3,79.8 240.0,79.1 242.7,78.7 245.5,78.6 248.2,78.3 250.9,78.2 253.6,78.2 256.4,90.1 259.1,89.0 261.8,87.9 264.5,86.8 267.3,83.6 270.0,81.3 272.7,78.8 275.5,77.9 278.2,76.9 280.9,75.2 283.6,73.4 286.4,72.1 289.1,71.6 291.8,71.1 294.5,69.8 297.3,68.8 300.0,68.2 302.7,67.4 305.5,67.1 308.2,67.0 310.9,66.3 313.6,65.2 316.4,64.4 319.1,63.6 321.8,62.7 324.5,62.2 327.3,61.9 330.0,61.2 332.7,60.5 335.5,59.8 338.2,59.3 340.9,59.0 343.6,58.9 346.4,58.5 349.1,57.9 351.8,57.4 354.5,57.0 357.3,56.7 360.0,56.3 362.7,56.0 365.5,55.7 368.2,55.4 370.9,55.1 373.6,54.5 376.4,54.0 379.1,53.5 381.8,53.2 384.5,52.8 387.3,52.6 390.0,52.3 392.7,52.0 395.5,51.1 398.2,50.6 400.9,49.8 403.6,49.6 406.4,49.5 409.1,49.2 411.8,48.8 414.5,48.3 417.3,47.9 420.0,47.4 422.7,47.0 425.5,46.9 428.2,46.6 430.9,46.3 433.6,46.1 436.4,45.8 439.1,45.5 441.8,44.9 444.5,44.7 447.3,44.5 450.0,44.3 452.7,44.1 455.5,43.7 458.2,43.3 460.9,42.9 463.6,42.5 466.4,42.1 469.1,41.9 471.8,41.7 474.5,41.4 477.3,40.9 480.0,40.4 482.7,40.1 485.5,39.7 488.2,39.0 490.9,38.9 493.6,38.7 496.4,38.5 499.1,38.1 501.8,37.9 504.5,37.5 507.3,37.2 510.0,36.9 512.7,36.7 515.5,36.4 518.2,36.2 520.9,36.0 523.6,35.7 526.4,35.2 529.1,35.0 531.8,34.6 534.5,34.2 537.3,33.9 540.0,33.7 542.7,33.5 545.5,33.2 548.2,32.7 550.9,32.1 553.6,31.7 556.4,31.4 559.1,31.3 561.8,30.8 564.5,30.4 567.3,30.2 570.0,30.0" />
  
  <!-- Punto finale luminoso -->
  <circle cx="570.0" cy="30.0" r="4" fill="#ffffff" stroke="#0366d6" stroke-width="2.5" />
</svg>