<svg width="600" height="150" viewBox="0 0 600 150" xmlns="http://www.w3.org/2000/svg">
  <defs>
    <filter id="shadow2" x="-2%" y="-2%" width="104%" height="108%">
      <feDropShadow dx="0" dy="2" stdDeviation="3" flood-opacity="0.1" />
    </filter>
    <linearGradient id="fillGrad" x1="0" y1="0" x2="0" y2="1">
      <stop offset="0%" stop-color="#0366d6" stop-opacity="0.3"/>
      <stop offset="100%" stop-color="#0366d6" stop-opacity="0.02"/>
    </linearGradient>
  </defs>
  <rect width="600" height="150" rx="12" fill="#ffffff" filter="url(#shadow2)" stroke="#e1e4e8" stroke-width="1"/>
  <text x="20" y="24" fill="#2b3137" font-family="-apple-system,BlinkMacSystemFont,'Segoe UI',Helvetica,Arial,sans-serif" font-size="14" font-weight="600">📈 Download Growth (Actual: 77.8k)</text>
  
  <!-- Area sotto la linea -->
  <polygon fill="url(#fillGrad)" points="30.0,120.0,120 30.0,120.0 32.7,119.1 35.3,118.1 38.0,117.2 40.7,117.0 43.4,116.5 46.0,115.4 48.7,114.7 51.4,114.2 54.1,113.1 56.7,112.6 59.4,112.0 62.1,111.7 64.8,111.2 67.4,110.4 70.1,109.6 72.8,109.0 75.4,108.6 78.1,108.3 80.8,107.8 83.5,107.3 86.1,106.7 88.8,106.5 91.5,106.0 94.2,104.3 96.8,103.7 99.5,103.0 102.2,102.4 104.9,101.8 107.5,101.2 110.2,100.8 112.9,100.5 115.5,100.0 118.2,99.2 120.9,98.4 123.6,97.9 126.2,97.4 128.9,97.2 131.6,97.0 134.3,96.7 136.9,96.2 139.6,95.9 142.3,95.6 145.0,95.0 147.6,94.0 150.3,93.8 153.0,93.6 155.6,93.3 158.3,92.5 161.0,92.0 163.7,91.3 166.3,90.7 169.0,90.0 171.7,89.9 174.4,89.5 177.0,88.8 179.7,88.1 182.4,87.5 185.0,87.3 187.7,86.9 190.4,86.6 193.1,85.8 195.7,85.1 198.4,84.5 201.1,83.8 203.8,83.5 206.4,83.3 209.1,83.0 211.8,82.5 214.5,82.1 217.1,81.8 219.8,81.6 222.5,81.3 225.1,80.9 227.8,80.7 230.5,80.5 233.2,80.3 235.8,79.6 238.5,79.2 241.2,79.1 243.9,78.9 246.5,78.7 249.2,78.7 251.9,90.5 254.6,89.4 257.2,88.3 259.9,87.2 262.6,84.0 265.2,81.8 267.9,79.3 270.6,78.5 273.3,77.4 275.9,75.8 278.6,74.0 281.3,72.7 284.0,72.2 286.6,71.7 289.3,70.4 292.0,69.5 294.7,68.9 297.3,68.1 300.0,67.8 302.7,67.6 305.3,67.0 308.0,65.9 310.7,65.1 313.4,64.3 316.0,63.4 318.7,63.0 321.4,62.7 324.1,61.9 326.7,61.2 329.4,60.6 332.1,60.0 334.8,59.8 337.4,59.6 340.1,59.2 342.8,58.6 345.4,58.2 348.1,57.8 350.8,57.4 353.5,57.1 356.1,56.8 358.8,56.5 361.5,56.2 364.2,55.9 366.8,55.3 369.5,54.8 372.2,54.3 374.9,54.0 377.5,53.6 380.2,53.4 382.9,53.1 385.5,52.9 388.2,52.0 390.9,51.4 393.6,50.7 396.2,50.4 398.9,50.4 401.6,50.0 404.3,49.7 406.9,49.2 409.6,48.8 412.3,48.3 415.0,47.9 417.6,47.8 420.3,47.5 423.0,47.3 425.6,47.0 428.3,46.7 431.0,46.4 433.7,45.9 436.3,45.6 439.0,45.5 441.7,45.2 444.4,45.1 447.0,44.6 449.7,44.3 452.4,43.9 455.0,43.5 457.7,43.1 460.4,42.9 463.1,42.7 465.7,42.4 468.4,41.9 471.1,41.4 473.8,41.1 476.4,40.7 479.1,40.0 481.8,39.9 484.5,39.7 487.1,39.5 489.8,39.2 492.5,38.9 495.1,38.5 497.8,38.3 500.5,38.0 503.2,37.7 505.8,37.4 508.5,37.2 511.2,37.1 513.9,36.8 516.5,36.3 519.2,36.1 521.9,35.7 524.6,35.3 527.2,35.0 529.9,34.8 532.6,34.6 535.2,34.2 537.9,33.8 540.6,33.2 543.3,32.8 545.9,32.5 548.6,32.4 551.3,31.9 554.0,31.5 556.6,31.3 559.3,31.1 562.0,30.7 564.7,30.5 567.3,30.2 570.0,30.0 570.0,30.0,120" />
  
  <!-- Linea principale -->
  <polyline fill="none" stroke="#0366d6" stroke-width="2.5" stroke-linecap="round" stroke-linejoin="round" points="30.0,120.0 32.7,119.1 35.3,118.1 38.0,117.2 40.7,117.0 43.4,116.5 46.0,115.4 48.7,114.7 51.4,114.2 54.1,113.1 56.7,112.6 59.4,112.0 62.1,111.7 64.8,111.2 67.4,110.4 70.1,109.6 72.8,109.0 75.4,108.6 78.1,108.3 80.8,107.8 83.5,107.3 86.1,106.7 88.8,106.5 91.5,106.0 94.2,104.3 96.8,103.7 99.5,103.0 102.2,102.4 104.9,101.8 107.5,101.2 110.2,100.8 112.9,100.5 115.5,100.0 118.2,99.2 120.9,98.4 123.6,97.9 126.2,97.4 128.9,97.2 131.6,97.0 134.3,96.7 136.9,96.2 139.6,95.9 142.3,95.6 145.0,95.0 147.6,94.0 150.3,93.8 153.0,93.6 155.6,93.3 158.3,92.5 161.0,92.0 163.7,91.3 166.3,90.7 169.0,90.0 171.7,89.9 174.4,89.5 177.0,88.8 179.7,88.1 182.4,87.5 185.0,87.3 187.7,86.9 190.4,86.6 193.1,85.8 195.7,85.1 198.4,84.5 201.1,83.8 203.8,83.5 206.4,83.3 209.1,83.0 211.8,82.5 214.5,82.1 217.1,81.8 219.8,81.6 222.5,81.3 225.1,80.9 227.8,80.7 230.5,80.5 233.2,80.3 235.8,79.6 238.5,79.2 241.2,79.1 243.9,78.9 246.5,78.7 249.2,78.7 251.9,90.5 254.6,89.4 257.2,88.3 259.9,87.2 262.6,84.0 265.2,81.8 267.9,79.3 270.6,78.5 273.3,77.4 275.9,75.8 278.6,74.0 281.3,72.7 284.0,72.2 286.6,71.7 289.3,70.4 292.0,69.5 294.7,68.9 297.3,68.1 300.0,67.8 302.7,67.6 305.3,67.0 308.0,65.9 310.7,65.1 313.4,64.3 316.0,63.4 318.7,63.0 321.4,62.7 324.1,61.9 326.7,61.2 329.4,60.6 332.1,60.0 334.8,59.8 337.4,59.6 340.1,59.2 342.8,58.6 345.4,58.2 348.1,57.8 350.8,57.4 353.5,57.1 356.1,56.8 358.8,56.5 361.5,56.2 364.2,55.9 366.8,55.3 369.5,54.8 372.2,54.3 374.9,54.0 377.5,53.6 380.2,53.4 382.9,53.1 385.5,52.9 388.2,52.0 390.9,51.4 393.6,50.7 396.2,50.4 398.9,50.4 401.6,50.0 404.3,49.7 406.9,49.2 409.6,48.8 412.3,48.3 415.0,47.9 417.6,47.8 420.3,47.5 423.0,47.3 425.6,47.0 428.3,46.7 431.0,46.4 433.7,45.9 436.3,45.6 439.0,45.5 441.7,45.2 444.4,45.1 447.0,44.6 449.7,44.3 452.4,43.9 455.0,43.5 457.7,43.1 460.4,42.9 463.1,42.7 465.7,42.4 468.4,41.9 471.1,41.4 473.8,41.1 476.4,40.7 479.1,40.0 481.8,39.9 484.5,39.7 487.1,39.5 489.8,39.2 492.5,38.9 495.1,38.5 497.8,38.3 500.5,38.0 503.2,37.7 505.8,37.4 508.5,37.2 511.2,37.1 513.9,36.8 516.5,36.3 519.2,36.1 521.9,35.7 524.6,35.3 527.2,35.0 529.9,34.8 532.6,34.6 535.2,34.2 537.9,33.8 540.6,33.2 543.3,32.8 545.9,32.5 548.6,32.4 551.3,31.9 554.0,31.5 556.6,31.3 559.3,31.1 562.0,30.7 564.7,30.5 567.3,30.2 570.0,30.0" />
  
  <!-- Punto finale luminoso -->
  <circle cx="570.0" cy="30.0" r="4" fill="#ffffff" stroke="#0366d6" stroke-width="2.5" />
</svg>