<svg width="600" height="150" viewBox="0 0 600 150" xmlns="http://www.w3.org/2000/svg">
  <defs>
    <filter id="shadow2" x="-2%" y="-2%" width="104%" height="108%">
      <feDropShadow dx="0" dy="2" stdDeviation="3" flood-opacity="0.1" />
    </filter>
    <linearGradient id="fillGrad" x1="0" y1="0" x2="0" y2="1">
      <stop offset="0%" stop-color="#0366d6" stop-opacity="0.3"/>
      <stop offset="100%" stop-color="#0366d6" stop-opacity="0.02"/>
    </linearGradient>
  </defs>
  <rect width="600" height="150" rx="12" fill="#ffffff" filter="url(#shadow2)" stroke="#e1e4e8" stroke-width="1"/>
  <text x="20" y="24" fill="#2b3137" font-family="-apple-system,BlinkMacSystemFont,'Segoe UI',Helvetica,Arial,sans-serif" font-size="14" font-weight="600">📈 Download Growth (Actual: 78.0k)</text>
  
  <!-- Area sotto la linea -->
  <polygon fill="url(#fillGrad)" points="30.0,120.0,120 30.0,120.0 32.6,119.1 35.2,118.1 37.8,117.3 40.3,117.0 42.9,116.6 45.5,115.5 48.1,114.8 50.7,114.3 53.3,113.3 55.8,112.7 58.4,112.2 61.0,111.9 63.6,111.4 66.2,110.6 68.8,109.9 71.3,109.3 73.9,108.9 76.5,108.6 79.1,108.1 81.7,107.5 84.3,107.0 86.8,106.8 89.4,106.3 92.0,104.6 94.6,104.1 97.2,103.4 99.8,102.7 102.3,102.1 104.9,101.6 107.5,101.2 110.1,100.9 112.7,100.4 115.3,99.6 117.8,98.9 120.4,98.4 123.0,97.8 125.6,97.7 128.2,97.5 130.8,97.2 133.3,96.7 135.9,96.4 138.5,96.1 141.1,95.5 143.7,94.6 146.3,94.4 148.9,94.2 151.4,93.8 154.0,93.1 156.6,92.6 159.2,91.9 161.8,91.3 164.4,90.7 166.9,90.5 169.5,90.1 172.1,89.4 174.7,88.7 177.3,88.2 179.9,88.0 182.4,87.6 185.0,87.3 187.6,86.6 190.2,85.9 192.8,85.2 195.4,84.6 197.9,84.3 200.5,84.1 203.1,83.8 205.7,83.3 208.3,82.9 210.9,82.6 213.4,82.4 216.0,82.1 218.6,81.8 221.2,81.5 223.8,81.4 226.4,81.2 228.9,80.5 231.5,80.1 234.1,80.0 236.7,79.7 239.3,79.6 241.9,79.6 244.4,91.1 247.0,90.0 249.6,89.0 252.2,87.9 254.8,84.8 257.4,82.6 260.0,80.2 262.5,79.3 265.1,78.3 267.7,76.7 270.3,75.0 272.9,73.7 275.5,73.2 278.0,72.7 280.6,71.5 283.2,70.5 285.8,69.9 288.4,69.2 291.0,68.9 293.5,68.8 296.1,68.1 298.7,67.0 301.3,66.2 303.9,65.5 306.5,64.6 309.0,64.2 311.6,63.9 314.2,63.1 316.8,62.5 319.4,61.8 322.0,61.3 324.5,61.1 327.1,60.9 329.7,60.5 332.3,60.0 334.9,59.5 337.5,59.1 340.0,58.8 342.6,58.4 345.2,58.1 347.8,57.8 350.4,57.6 353.0,57.3 355.6,56.7 358.1,56.2 360.7,55.7 363.3,55.4 365.9,55.1 368.5,54.8 371.1,54.6 373.6,54.3 376.2,53.5 378.8,52.9 381.4,52.2 384.0,51.9 386.6,51.9 389.1,51.5 391.7,51.2 394.3,50.7 396.9,50.3 399.5,49.8 402.1,49.5 404.6,49.3 407.2,49.0 409.8,48.8 412.4,48.6 415.0,48.2 417.6,48.0 420.1,47.5 422.7,47.2 425.3,47.1 427.9,46.8 430.5,46.7 433.1,46.2 435.6,45.9 438.2,45.5 440.8,45.1 443.4,44.8 446.0,44.5 448.6,44.3 451.1,44.1 453.7,43.6 456.3,43.1 458.9,42.7 461.5,42.4 464.1,41.7 466.7,41.6 469.2,41.4 471.8,41.2 474.4,40.9 477.0,40.6 479.6,40.3 482.2,40.0 484.7,39.7 487.3,39.5 489.9,39.2 492.5,39.0 495.1,38.8 497.7,38.5 500.2,38.1 502.8,37.9 505.4,37.5 508.0,37.1 510.6,36.8 513.2,36.6 515.7,36.4 518.3,36.1 520.9,35.6 523.5,35.1 526.1,34.6 528.7,34.3 531.2,34.2 533.8,33.8 536.4,33.4 539.0,33.2 541.6,33.0 544.2,32.6 546.7,32.4 549.3,32.1 551.9,31.9 554.5,31.7 557.1,31.3 559.7,31.0 562.2,30.6 564.8,30.2 567.4,30.1 570.0,30.0 570.0,30.0,120" />
  
  <!-- Linea principale -->
  <polyline fill="none" stroke="#0366d6" stroke-width="2.5" stroke-linecap="round" stroke-linejoin="round" points="30.0,120.0 32.6,119.1 35.2,118.1 37.8,117.3 40.3,117.0 42.9,116.6 45.5,115.5 48.1,114.8 50.7,114.3 53.3,113.3 55.8,112.7 58.4,112.2 61.0,111.9 63.6,111.4 66.2,110.6 68.8,109.9 71.3,109.3 73.9,108.9 76.5,108.6 79.1,108.1 81.7,107.5 84.3,107.0 86.8,106.8 89.4,106.3 92.0,104.6 94.6,104.1 97.2,103.4 99.8,102.7 102.3,102.1 104.9,101.6 107.5,101.2 110.1,100.9 112.7,100.4 115.3,99.6 117.8,98.9 120.4,98.4 123.0,97.8 125.6,97.7 128.2,97.5 130.8,97.2 133.3,96.7 135.9,96.4 138.5,96.1 141.1,95.5 143.7,94.6 146.3,94.4 148.9,94.2 151.4,93.8 154.0,93.1 156.6,92.6 159.2,91.9 161.8,91.3 164.4,90.7 166.9,90.5 169.5,90.1 172.1,89.4 174.7,88.7 177.3,88.2 179.9,88.0 182.4,87.6 185.0,87.3 187.6,86.6 190.2,85.9 192.8,85.2 195.4,84.6 197.9,84.3 200.5,84.1 203.1,83.8 205.7,83.3 208.3,82.9 210.9,82.6 213.4,82.4 216.0,82.1 218.6,81.8 221.2,81.5 223.8,81.4 226.4,81.2 228.9,80.5 231.5,80.1 234.1,80.0 236.7,79.7 239.3,79.6 241.9,79.6 244.4,91.1 247.0,90.0 249.6,89.0 252.2,87.9 254.8,84.8 257.4,82.6 260.0,80.2 262.5,79.3 265.1,78.3 267.7,76.7 270.3,75.0 272.9,73.7 275.5,73.2 278.0,72.7 280.6,71.5 283.2,70.5 285.8,69.9 288.4,69.2 291.0,68.9 293.5,68.8 296.1,68.1 298.7,67.0 301.3,66.2 303.9,65.5 306.5,64.6 309.0,64.2 311.6,63.9 314.2,63.1 316.8,62.5 319.4,61.8 322.0,61.3 324.5,61.1 327.1,60.9 329.7,60.5 332.3,60.0 334.9,59.5 337.5,59.1 340.0,58.8 342.6,58.4 345.2,58.1 347.8,57.8 350.4,57.6 353.0,57.3 355.6,56.7 358.1,56.2 360.7,55.7 363.3,55.4 365.9,55.1 368.5,54.8 371.1,54.6 373.6,54.3 376.2,53.5 378.8,52.9 381.4,52.2 384.0,51.9 386.6,51.9 389.1,51.5 391.7,51.2 394.3,50.7 396.9,50.3 399.5,49.8 402.1,49.5 404.6,49.3 407.2,49.0 409.8,48.8 412.4,48.6 415.0,48.2 417.6,48.0 420.1,47.5 422.7,47.2 425.3,47.1 427.9,46.8 430.5,46.7 433.1,46.2 435.6,45.9 438.2,45.5 440.8,45.1 443.4,44.8 446.0,44.5 448.6,44.3 451.1,44.1 453.7,43.6 456.3,43.1 458.9,42.7 461.5,42.4 464.1,41.7 466.7,41.6 469.2,41.4 471.8,41.2 474.4,40.9 477.0,40.6 479.6,40.3 482.2,40.0 484.7,39.7 487.3,39.5 489.9,39.2 492.5,39.0 495.1,38.8 497.7,38.5 500.2,38.1 502.8,37.9 505.4,37.5 508.0,37.1 510.6,36.8 513.2,36.6 515.7,36.4 518.3,36.1 520.9,35.6 523.5,35.1 526.1,34.6 528.7,34.3 531.2,34.2 533.8,33.8 536.4,33.4 539.0,33.2 541.6,33.0 544.2,32.6 546.7,32.4 549.3,32.1 551.9,31.9 554.5,31.7 557.1,31.3 559.7,31.0 562.2,30.6 564.8,30.2 567.4,30.1 570.0,30.0" />
  
  <!-- Punto finale luminoso -->
  <circle cx="570.0" cy="30.0" r="4" fill="#ffffff" stroke="#0366d6" stroke-width="2.5" />
</svg>