<svg width="600" height="150" viewBox="0 0 600 150" xmlns="http://www.w3.org/2000/svg">
  <defs>
    <filter id="shadow2" x="-2%" y="-2%" width="104%" height="108%">
      <feDropShadow dx="0" dy="2" stdDeviation="3" flood-opacity="0.1" />
    </filter>
    <linearGradient id="fillGrad" x1="0" y1="0" x2="0" y2="1">
      <stop offset="0%" stop-color="#0366d6" stop-opacity="0.3"/>
      <stop offset="100%" stop-color="#0366d6" stop-opacity="0.02"/>
    </linearGradient>
  </defs>
  <rect width="600" height="150" rx="12" fill="#ffffff" filter="url(#shadow2)" stroke="#e1e4e8" stroke-width="1"/>
  <text x="20" y="24" fill="#2b3137" font-family="-apple-system,BlinkMacSystemFont,'Segoe UI',Helvetica,Arial,sans-serif" font-size="14" font-weight="600">📈 Download Growth (Actual: 78.2k)</text>
  
  <!-- Area sotto la linea -->
  <polygon fill="url(#fillGrad)" points="30.0,120.0,120 30.0,120.0 32.5,119.1 35.0,118.1 37.5,117.3 40.0,117.1 42.5,116.6 45.0,115.6 47.5,114.9 50.0,114.5 52.5,113.4 55.0,112.9 57.5,112.3 60.0,112.0 62.5,111.6 65.0,110.8 67.5,110.1 70.0,109.5 72.5,109.1 75.0,108.8 77.5,108.3 80.0,107.8 82.5,107.3 85.0,107.1 87.5,106.6 90.0,104.9 92.5,104.4 95.0,103.8 97.5,103.1 100.0,102.5 102.5,102.0 105.0,101.6 107.5,101.3 110.0,100.9 112.5,100.0 115.0,99.3 117.5,98.9 120.0,98.3 122.5,98.2 125.0,98.0 127.5,97.7 130.0,97.2 132.5,96.9 135.0,96.6 137.5,96.0 140.0,95.1 142.5,94.9 145.0,94.7 147.5,94.4 150.0,93.7 152.5,93.2 155.0,92.5 157.5,91.9 160.0,91.3 162.5,91.1 165.0,90.8 167.5,90.1 170.0,89.4 172.5,88.9 175.0,88.7 177.5,88.3 180.0,88.0 182.5,87.3 185.0,86.6 187.5,86.0 190.0,85.3 192.5,85.0 195.0,84.8 197.5,84.6 200.0,84.1 202.5,83.7 205.0,83.4 207.5,83.2 210.0,82.9 212.5,82.6 215.0,82.3 217.5,82.2 220.0,82.0 222.5,81.3 225.0,81.0 227.5,80.8 230.0,80.6 232.5,80.5 235.0,80.5 237.5,91.8 240.0,90.6 242.5,89.7 245.0,88.6 247.5,85.5 250.0,83.4 252.5,81.1 255.0,80.2 257.5,79.2 260.0,77.6 262.5,75.9 265.0,74.7 267.5,74.2 270.0,73.7 272.5,72.5 275.0,71.6 277.5,71.0 280.0,70.3 282.5,70.0 285.0,69.8 287.5,69.2 290.0,68.1 292.5,67.4 295.0,66.6 297.5,65.8 300.0,65.4 302.5,65.1 305.0,64.3 307.5,63.7 310.0,63.1 312.5,62.6 315.0,62.3 317.5,62.2 320.0,61.8 322.5,61.2 325.0,60.8 327.5,60.4 330.0,60.1 332.5,59.8 335.0,59.4 337.5,59.1 340.0,58.9 342.5,58.6 345.0,58.0 347.5,57.6 350.0,57.1 352.5,56.8 355.0,56.4 357.5,56.2 360.0,56.0 362.5,55.7 365.0,54.9 367.5,54.3 370.0,53.6 372.5,53.4 375.0,53.3 377.5,53.0 380.0,52.6 382.5,52.2 385.0,51.8 387.5,51.3 390.0,51.0 392.5,50.8 395.0,50.5 397.5,50.3 400.0,50.1 402.5,49.8 405.0,49.5 407.5,49.0 410.0,48.8 412.5,48.6 415.0,48.4 417.5,48.2 420.0,47.8 422.5,47.5 425.0,47.1 427.5,46.7 430.0,46.4 432.5,46.1 435.0,45.9 437.5,45.7 440.0,45.2 442.5,44.7 445.0,44.4 447.5,44.0 450.0,43.4 452.5,43.3 455.0,43.1 457.5,42.9 460.0,42.6 462.5,42.3 465.0,42.0 467.5,41.7 470.0,41.4 472.5,41.2 475.0,40.9 477.5,40.7 480.0,40.6 482.5,40.3 485.0,39.8 487.5,39.6 490.0,39.2 492.5,38.8 495.0,38.5 497.5,38.4 500.0,38.2 502.5,37.9 505.0,37.4 507.5,36.9 510.0,36.4 512.5,36.2 515.0,36.0 517.5,35.6 520.0,35.2 522.5,35.1 525.0,34.9 527.5,34.4 530.0,34.3 532.5,34.0 535.0,33.8 537.5,33.5 540.0,33.2 542.5,32.9 545.0,32.5 547.5,32.1 550.0,32.0 552.5,31.9 555.0,31.8 557.5,31.4 560.0,31.3 562.5,30.9 565.0,30.7 567.5,30.2 570.0,30.0 570.0,30.0,120" />
  
  <!-- Linea principale -->
  <polyline fill="none" stroke="#0366d6" stroke-width="2.5" stroke-linecap="round" stroke-linejoin="round" points="30.0,120.0 32.5,119.1 35.0,118.1 37.5,117.3 40.0,117.1 42.5,116.6 45.0,115.6 47.5,114.9 50.0,114.5 52.5,113.4 55.0,112.9 57.5,112.3 60.0,112.0 62.5,111.6 65.0,110.8 67.5,110.1 70.0,109.5 72.5,109.1 75.0,108.8 77.5,108.3 80.0,107.8 82.5,107.3 85.0,107.1 87.5,106.6 90.0,104.9 92.5,104.4 95.0,103.8 97.5,103.1 100.0,102.5 102.5,102.0 105.0,101.6 107.5,101.3 110.0,100.9 112.5,100.0 115.0,99.3 117.5,98.9 120.0,98.3 122.5,98.2 125.0,98.0 127.5,97.7 130.0,97.2 132.5,96.9 135.0,96.6 137.5,96.0 140.0,95.1 142.5,94.9 145.0,94.7 147.5,94.4 150.0,93.7 152.5,93.2 155.0,92.5 157.5,91.9 160.0,91.3 162.5,91.1 165.0,90.8 167.5,90.1 170.0,89.4 172.5,88.9 175.0,88.7 177.5,88.3 180.0,88.0 182.5,87.3 185.0,86.6 187.5,86.0 190.0,85.3 192.5,85.0 195.0,84.8 197.5,84.6 200.0,84.1 202.5,83.7 205.0,83.4 207.5,83.2 210.0,82.9 212.5,82.6 215.0,82.3 217.5,82.2 220.0,82.0 222.5,81.3 225.0,81.0 227.5,80.8 230.0,80.6 232.5,80.5 235.0,80.5 237.5,91.8 240.0,90.6 242.5,89.7 245.0,88.6 247.5,85.5 250.0,83.4 252.5,81.1 255.0,80.2 257.5,79.2 260.0,77.6 262.5,75.9 265.0,74.7 267.5,74.2 270.0,73.7 272.5,72.5 275.0,71.6 277.5,71.0 280.0,70.3 282.5,70.0 285.0,69.8 287.5,69.2 290.0,68.1 292.5,67.4 295.0,66.6 297.5,65.8 300.0,65.4 302.5,65.1 305.0,64.3 307.5,63.7 310.0,63.1 312.5,62.6 315.0,62.3 317.5,62.2 320.0,61.8 322.5,61.2 325.0,60.8 327.5,60.4 330.0,60.1 332.5,59.8 335.0,59.4 337.5,59.1 340.0,58.9 342.5,58.6 345.0,58.0 347.5,57.6 350.0,57.1 352.5,56.8 355.0,56.4 357.5,56.2 360.0,56.0 362.5,55.7 365.0,54.9 367.5,54.3 370.0,53.6 372.5,53.4 375.0,53.3 377.5,53.0 380.0,52.6 382.5,52.2 385.0,51.8 387.5,51.3 390.0,51.0 392.5,50.8 395.0,50.5 397.5,50.3 400.0,50.1 402.5,49.8 405.0,49.5 407.5,49.0 410.0,48.8 412.5,48.6 415.0,48.4 417.5,48.2 420.0,47.8 422.5,47.5 425.0,47.1 427.5,46.7 430.0,46.4 432.5,46.1 435.0,45.9 437.5,45.7 440.0,45.2 442.5,44.7 445.0,44.4 447.5,44.0 450.0,43.4 452.5,43.3 455.0,43.1 457.5,42.9 460.0,42.6 462.5,42.3 465.0,42.0 467.5,41.7 470.0,41.4 472.5,41.2 475.0,40.9 477.5,40.7 480.0,40.6 482.5,40.3 485.0,39.8 487.5,39.6 490.0,39.2 492.5,38.8 495.0,38.5 497.5,38.4 500.0,38.2 502.5,37.9 505.0,37.4 507.5,36.9 510.0,36.4 512.5,36.2 515.0,36.0 517.5,35.6 520.0,35.2 522.5,35.1 525.0,34.9 527.5,34.4 530.0,34.3 532.5,34.0 535.0,33.8 537.5,33.5 540.0,33.2 542.5,32.9 545.0,32.5 547.5,32.1 550.0,32.0 552.5,31.9 555.0,31.8 557.5,31.4 560.0,31.3 562.5,30.9 565.0,30.7 567.5,30.2 570.0,30.0" />
  
  <!-- Punto finale luminoso -->
  <circle cx="570.0" cy="30.0" r="4" fill="#ffffff" stroke="#0366d6" stroke-width="2.5" />
</svg>