<svg width="600" height="150" viewBox="0 0 600 150" xmlns="http://www.w3.org/2000/svg">
  <defs>
    <filter id="shadow2" x="-2%" y="-2%" width="104%" height="108%">
      <feDropShadow dx="0" dy="2" stdDeviation="3" flood-opacity="0.1" />
    </filter>
    <linearGradient id="fillGrad" x1="0" y1="0" x2="0" y2="1">
      <stop offset="0%" stop-color="#0366d6" stop-opacity="0.3"/>
      <stop offset="100%" stop-color="#0366d6" stop-opacity="0.02"/>
    </linearGradient>
  </defs>
  <rect width="600" height="150" rx="12" fill="#ffffff" filter="url(#shadow2)" stroke="#e1e4e8" stroke-width="1"/>
  <text x="20" y="24" fill="#2b3137" font-family="-apple-system,BlinkMacSystemFont,'Segoe UI',Helvetica,Arial,sans-serif" font-size="14" font-weight="600">📈 Download Growth (Actual: 77.2k)</text>
  
  <!-- Area sotto la linea -->
  <polygon fill="url(#fillGrad)" points="30.0,120.0,120 30.0,120.0 32.9,119.0 35.8,118.0 38.7,117.0 41.6,116.8 44.5,116.3 47.4,115.2 50.3,114.4 53.2,113.9 56.1,112.7 59.0,112.1 61.9,111.5 64.8,111.2 67.7,110.7 70.6,109.9 73.5,109.0 76.5,108.4 79.4,108.0 82.3,107.7 85.2,107.1 88.1,106.5 91.0,106.0 93.9,105.7 96.8,105.2 99.7,103.3 102.6,102.8 105.5,102.1 108.4,101.3 111.3,100.7 114.2,100.1 117.1,99.7 120.0,99.4 122.9,98.9 125.8,98.0 128.7,97.2 131.6,96.7 134.5,96.0 137.4,95.9 140.3,95.7 143.2,95.4 146.1,94.8 149.0,94.4 151.9,94.2 154.8,93.5 157.7,92.5 160.6,92.3 163.5,92.1 166.5,91.7 169.4,90.9 172.3,90.4 175.2,89.6 178.1,89.0 181.0,88.3 183.9,88.1 186.8,87.7 189.7,86.9 192.6,86.2 195.5,85.6 198.4,85.4 201.3,85.0 204.2,84.7 207.1,83.8 210.0,83.1 212.9,82.4 215.8,81.7 218.7,81.3 221.6,81.1 224.5,80.8 227.4,80.3 230.3,79.9 233.2,79.6 236.1,79.3 239.0,79.1 241.9,78.7 244.8,78.4 247.7,78.2 250.6,78.0 253.5,77.3 256.5,76.9 259.4,76.7 262.3,76.5 265.2,76.3 268.1,76.3 271.0,88.8 273.9,87.6 276.8,86.5 279.7,85.3 282.6,81.9 285.5,79.5 288.4,77.0 291.3,76.0 294.2,74.9 297.1,73.2 300.0,71.3 302.9,69.9 305.8,69.4 308.7,68.9 311.6,67.5 314.5,66.5 317.4,65.9 320.3,65.1 323.2,64.7 326.1,64.6 329.0,63.9 331.9,62.7 334.8,61.9 337.7,61.0 340.6,60.1 343.5,59.6 346.5,59.3 349.4,58.5 352.3,57.8 355.2,57.1 358.1,56.5 361.0,56.3 363.9,56.1 366.8,55.7 369.7,55.1 372.6,54.6 375.5,54.2 378.4,53.8 381.3,53.4 384.2,53.1 387.1,52.7 390.0,52.5 392.9,52.1 395.8,51.5 398.7,51.0 401.6,50.5 404.5,50.1 407.4,49.8 410.3,49.5 413.2,49.2 416.1,48.9 419.0,48.0 421.9,47.4 424.8,46.7 427.7,46.4 430.6,46.3 433.5,45.9 436.5,45.6 439.4,45.1 442.3,44.7 445.2,44.1 448.1,43.7 451.0,43.5 453.9,43.3 456.8,43.0 459.7,42.8 462.6,42.4 465.5,42.1 468.4,41.5 471.3,41.3 474.2,41.1 477.1,40.9 480.0,40.7 482.9,40.2 485.8,39.8 488.7,39.4 491.6,39.0 494.5,38.6 497.4,38.3 500.3,38.2 503.2,37.9 506.1,37.3 509.0,36.8 511.9,36.4 514.8,36.0 517.7,35.4 520.6,35.2 523.5,35.0 526.5,34.8 529.4,34.4 532.3,34.1 535.2,33.8 538.1,33.5 541.0,33.2 543.9,32.9 546.8,32.6 549.7,32.4 552.6,32.2 555.5,31.9 558.4,31.4 561.3,31.2 564.2,30.8 567.1,30.3 570.0,30.0 570.0,30.0,120" />
  
  <!-- Linea principale -->
  <polyline fill="none" stroke="#0366d6" stroke-width="2.5" stroke-linecap="round" stroke-linejoin="round" points="30.0,120.0 32.9,119.0 35.8,118.0 38.7,117.0 41.6,116.8 44.5,116.3 47.4,115.2 50.3,114.4 53.2,113.9 56.1,112.7 59.0,112.1 61.9,111.5 64.8,111.2 67.7,110.7 70.6,109.9 73.5,109.0 76.5,108.4 79.4,108.0 82.3,107.7 85.2,107.1 88.1,106.5 91.0,106.0 93.9,105.7 96.8,105.2 99.7,103.3 102.6,102.8 105.5,102.1 108.4,101.3 111.3,100.7 114.2,100.1 117.1,99.7 120.0,99.4 122.9,98.9 125.8,98.0 128.7,97.2 131.6,96.7 134.5,96.0 137.4,95.9 140.3,95.7 143.2,95.4 146.1,94.8 149.0,94.4 151.9,94.2 154.8,93.5 157.7,92.5 160.6,92.3 163.5,92.1 166.5,91.7 169.4,90.9 172.3,90.4 175.2,89.6 178.1,89.0 181.0,88.3 183.9,88.1 186.8,87.7 189.7,86.9 192.6,86.2 195.5,85.6 198.4,85.4 201.3,85.0 204.2,84.7 207.1,83.8 210.0,83.1 212.9,82.4 215.8,81.7 218.7,81.3 221.6,81.1 224.5,80.8 227.4,80.3 230.3,79.9 233.2,79.6 236.1,79.3 239.0,79.1 241.9,78.7 244.8,78.4 247.7,78.2 250.6,78.0 253.5,77.3 256.5,76.9 259.4,76.7 262.3,76.5 265.2,76.3 268.1,76.3 271.0,88.8 273.9,87.6 276.8,86.5 279.7,85.3 282.6,81.9 285.5,79.5 288.4,77.0 291.3,76.0 294.2,74.9 297.1,73.2 300.0,71.3 302.9,69.9 305.8,69.4 308.7,68.9 311.6,67.5 314.5,66.5 317.4,65.9 320.3,65.1 323.2,64.7 326.1,64.6 329.0,63.9 331.9,62.7 334.8,61.9 337.7,61.0 340.6,60.1 343.5,59.6 346.5,59.3 349.4,58.5 352.3,57.8 355.2,57.1 358.1,56.5 361.0,56.3 363.9,56.1 366.8,55.7 369.7,55.1 372.6,54.6 375.5,54.2 378.4,53.8 381.3,53.4 384.2,53.1 387.1,52.7 390.0,52.5 392.9,52.1 395.8,51.5 398.7,51.0 401.6,50.5 404.5,50.1 407.4,49.8 410.3,49.5 413.2,49.2 416.1,48.9 419.0,48.0 421.9,47.4 424.8,46.7 427.7,46.4 430.6,46.3 433.5,45.9 436.5,45.6 439.4,45.1 442.3,44.7 445.2,44.1 448.1,43.7 451.0,43.5 453.9,43.3 456.8,43.0 459.7,42.8 462.6,42.4 465.5,42.1 468.4,41.5 471.3,41.3 474.2,41.1 477.1,40.9 480.0,40.7 482.9,40.2 485.8,39.8 488.7,39.4 491.6,39.0 494.5,38.6 497.4,38.3 500.3,38.2 503.2,37.9 506.1,37.3 509.0,36.8 511.9,36.4 514.8,36.0 517.7,35.4 520.6,35.2 523.5,35.0 526.5,34.8 529.4,34.4 532.3,34.1 535.2,33.8 538.1,33.5 541.0,33.2 543.9,32.9 546.8,32.6 549.7,32.4 552.6,32.2 555.5,31.9 558.4,31.4 561.3,31.2 564.2,30.8 567.1,30.3 570.0,30.0" />
  
  <!-- Punto finale luminoso -->
  <circle cx="570.0" cy="30.0" r="4" fill="#ffffff" stroke="#0366d6" stroke-width="2.5" />
</svg>