<svg width="600" height="150" viewBox="0 0 600 150" xmlns="http://www.w3.org/2000/svg">
  <defs>
    <filter id="shadow2" x="-2%" y="-2%" width="104%" height="108%">
      <feDropShadow dx="0" dy="2" stdDeviation="3" flood-opacity="0.1" />
    </filter>
    <linearGradient id="fillGrad" x1="0" y1="0" x2="0" y2="1">
      <stop offset="0%" stop-color="#0366d6" stop-opacity="0.3"/>
      <stop offset="100%" stop-color="#0366d6" stop-opacity="0.02"/>
    </linearGradient>
  </defs>
  <rect width="600" height="150" rx="12" fill="#ffffff" filter="url(#shadow2)" stroke="#e1e4e8" stroke-width="1"/>
  <text x="20" y="24" fill="#2b3137" font-family="-apple-system,BlinkMacSystemFont,'Segoe UI',Helvetica,Arial,sans-serif" font-size="14" font-weight="600">📈 Download Growth (Actual: 78.1k)</text>
  
  <!-- Area sotto la linea -->
  <polygon fill="url(#fillGrad)" points="30.0,120.0,120 30.0,120.0 32.5,119.1 35.0,118.1 37.6,117.3 40.1,117.1 42.6,116.6 45.1,115.6 47.7,114.9 50.2,114.4 52.7,113.4 55.2,112.8 57.8,112.3 60.3,112.0 62.8,111.5 65.3,110.8 67.9,110.0 70.4,109.4 72.9,109.0 75.4,108.7 77.9,108.3 80.5,107.7 83.0,107.2 85.5,107.0 88.0,106.5 90.6,104.8 93.1,104.3 95.6,103.6 98.1,103.0 100.7,102.4 103.2,101.8 105.7,101.5 108.2,101.2 110.7,100.7 113.3,99.9 115.8,99.2 118.3,98.7 120.8,98.1 123.4,98.0 125.9,97.8 128.4,97.5 130.9,97.0 133.5,96.7 136.0,96.5 138.5,95.8 141.0,94.9 143.6,94.7 146.1,94.5 148.6,94.2 151.1,93.5 153.6,93.0 156.2,92.2 158.7,91.7 161.2,91.1 163.7,90.9 166.3,90.5 168.8,89.8 171.3,89.2 173.8,88.7 176.4,88.4 178.9,88.1 181.4,87.8 183.9,87.0 186.4,86.3 189.0,85.7 191.5,85.1 194.0,84.7 196.5,84.6 199.1,84.3 201.6,83.8 204.1,83.4 206.6,83.1 209.2,82.9 211.7,82.7 214.2,82.3 216.7,82.0 219.3,81.9 221.8,81.7 224.3,81.0 226.8,80.6 229.3,80.5 231.9,80.3 234.4,80.1 236.9,80.1 239.4,91.5 242.0,90.4 244.5,89.4 247.0,88.3 249.5,85.2 252.1,83.1 254.6,80.7 257.1,79.9 259.6,78.9 262.1,77.3 264.7,75.6 267.2,74.3 269.7,73.8 272.2,73.3 274.8,72.1 277.3,71.2 279.8,70.6 282.3,69.9 284.9,69.6 287.4,69.4 289.9,68.8 292.4,67.7 295.0,67.0 297.5,66.2 300.0,65.3 302.5,64.9 305.0,64.6 307.6,63.9 310.1,63.2 312.6,62.6 315.1,62.1 317.7,61.9 320.2,61.7 322.7,61.3 325.2,60.8 327.8,60.3 330.3,59.9 332.8,59.6 335.3,59.3 337.9,59.0 340.4,58.7 342.9,58.4 345.4,58.1 347.9,57.5 350.5,57.1 353.0,56.6 355.5,56.3 358.0,55.9 360.6,55.7 363.1,55.4 365.6,55.2 368.1,54.3 370.7,53.8 373.2,53.1 375.7,52.8 378.2,52.8 380.7,52.4 383.3,52.1 385.8,51.7 388.3,51.3 390.8,50.8 393.4,50.4 395.9,50.3 398.4,50.0 400.9,49.8 403.5,49.5 406.0,49.2 408.5,48.9 411.0,48.4 413.6,48.2 416.1,48.0 418.6,47.8 421.1,47.6 423.6,47.2 426.2,46.9 428.7,46.5 431.2,46.1 433.7,45.8 436.3,45.5 438.8,45.4 441.3,45.1 443.8,44.6 446.4,44.1 448.9,43.8 451.4,43.4 453.9,42.8 456.4,42.6 459.0,42.4 461.5,42.3 464.0,42.0 466.5,41.7 469.1,41.3 471.6,41.1 474.1,40.8 476.6,40.6 479.2,40.3 481.7,40.1 484.2,39.9 486.7,39.6 489.3,39.2 491.8,39.0 494.3,38.6 496.8,38.2 499.3,37.9 501.9,37.7 504.4,37.5 506.9,37.2 509.4,36.8 512.0,36.2 514.5,35.8 517.0,35.5 519.5,35.4 522.1,34.9 524.6,34.6 527.1,34.4 529.6,34.2 532.1,33.7 534.7,33.6 537.2,33.3 539.7,33.1 542.2,32.9 544.8,32.5 547.3,32.2 549.8,31.8 552.3,31.4 554.9,31.3 557.4,31.2 559.9,31.1 562.4,30.7 565.0,30.6 567.5,30.2 570.0,30.0 570.0,30.0,120" />
  
  <!-- Linea principale -->
  <polyline fill="none" stroke="#0366d6" stroke-width="2.5" stroke-linecap="round" stroke-linejoin="round" points="30.0,120.0 32.5,119.1 35.0,118.1 37.6,117.3 40.1,117.1 42.6,116.6 45.1,115.6 47.7,114.9 50.2,114.4 52.7,113.4 55.2,112.8 57.8,112.3 60.3,112.0 62.8,111.5 65.3,110.8 67.9,110.0 70.4,109.4 72.9,109.0 75.4,108.7 77.9,108.3 80.5,107.7 83.0,107.2 85.5,107.0 88.0,106.5 90.6,104.8 93.1,104.3 95.6,103.6 98.1,103.0 100.7,102.4 103.2,101.8 105.7,101.5 108.2,101.2 110.7,100.7 113.3,99.9 115.8,99.2 118.3,98.7 120.8,98.1 123.4,98.0 125.9,97.8 128.4,97.5 130.9,97.0 133.5,96.7 136.0,96.5 138.5,95.8 141.0,94.9 143.6,94.7 146.1,94.5 148.6,94.2 151.1,93.5 153.6,93.0 156.2,92.2 158.7,91.7 161.2,91.1 163.7,90.9 166.3,90.5 168.8,89.8 171.3,89.2 173.8,88.7 176.4,88.4 178.9,88.1 181.4,87.8 183.9,87.0 186.4,86.3 189.0,85.7 191.5,85.1 194.0,84.7 196.5,84.6 199.1,84.3 201.6,83.8 204.1,83.4 206.6,83.1 209.2,82.9 211.7,82.7 214.2,82.3 216.7,82.0 219.3,81.9 221.8,81.7 224.3,81.0 226.8,80.6 229.3,80.5 231.9,80.3 234.4,80.1 236.9,80.1 239.4,91.5 242.0,90.4 244.5,89.4 247.0,88.3 249.5,85.2 252.1,83.1 254.6,80.7 257.1,79.9 259.6,78.9 262.1,77.3 264.7,75.6 267.2,74.3 269.7,73.8 272.2,73.3 274.8,72.1 277.3,71.2 279.8,70.6 282.3,69.9 284.9,69.6 287.4,69.4 289.9,68.8 292.4,67.7 295.0,67.0 297.5,66.2 300.0,65.3 302.5,64.9 305.0,64.6 307.6,63.9 310.1,63.2 312.6,62.6 315.1,62.1 317.7,61.9 320.2,61.7 322.7,61.3 325.2,60.8 327.8,60.3 330.3,59.9 332.8,59.6 335.3,59.3 337.9,59.0 340.4,58.7 342.9,58.4 345.4,58.1 347.9,57.5 350.5,57.1 353.0,56.6 355.5,56.3 358.0,55.9 360.6,55.7 363.1,55.4 365.6,55.2 368.1,54.3 370.7,53.8 373.2,53.1 375.7,52.8 378.2,52.8 380.7,52.4 383.3,52.1 385.8,51.7 388.3,51.3 390.8,50.8 393.4,50.4 395.9,50.3 398.4,50.0 400.9,49.8 403.5,49.5 406.0,49.2 408.5,48.9 411.0,48.4 413.6,48.2 416.1,48.0 418.6,47.8 421.1,47.6 423.6,47.2 426.2,46.9 428.7,46.5 431.2,46.1 433.7,45.8 436.3,45.5 438.8,45.4 441.3,45.1 443.8,44.6 446.4,44.1 448.9,43.8 451.4,43.4 453.9,42.8 456.4,42.6 459.0,42.4 461.5,42.3 464.0,42.0 466.5,41.7 469.1,41.3 471.6,41.1 474.1,40.8 476.6,40.6 479.2,40.3 481.7,40.1 484.2,39.9 486.7,39.6 489.3,39.2 491.8,39.0 494.3,38.6 496.8,38.2 499.3,37.9 501.9,37.7 504.4,37.5 506.9,37.2 509.4,36.8 512.0,36.2 514.5,35.8 517.0,35.5 519.5,35.4 522.1,34.9 524.6,34.6 527.1,34.4 529.6,34.2 532.1,33.7 534.7,33.6 537.2,33.3 539.7,33.1 542.2,32.9 544.8,32.5 547.3,32.2 549.8,31.8 552.3,31.4 554.9,31.3 557.4,31.2 559.9,31.1 562.4,30.7 565.0,30.6 567.5,30.2 570.0,30.0" />
  
  <!-- Punto finale luminoso -->
  <circle cx="570.0" cy="30.0" r="4" fill="#ffffff" stroke="#0366d6" stroke-width="2.5" />
</svg>