<svg width="600" height="150" viewBox="0 0 600 150" xmlns="http://www.w3.org/2000/svg">
  <defs>
    <filter id="shadow2" x="-2%" y="-2%" width="104%" height="108%">
      <feDropShadow dx="0" dy="2" stdDeviation="3" flood-opacity="0.1" />
    </filter>
    <linearGradient id="fillGrad" x1="0" y1="0" x2="0" y2="1">
      <stop offset="0%" stop-color="#0366d6" stop-opacity="0.3"/>
      <stop offset="100%" stop-color="#0366d6" stop-opacity="0.02"/>
    </linearGradient>
  </defs>
  <rect width="600" height="150" rx="12" fill="#ffffff" filter="url(#shadow2)" stroke="#e1e4e8" stroke-width="1"/>
  <text x="20" y="24" fill="#2b3137" font-family="-apple-system,BlinkMacSystemFont,'Segoe UI',Helvetica,Arial,sans-serif" font-size="14" font-weight="600">📈 Download Growth (Actual: 77.3k)</text>
  
  <!-- Area sotto la linea -->
  <polygon fill="url(#fillGrad)" points="30.0,120.0,120 30.0,120.0 32.8,119.0 35.7,118.0 38.5,117.1 41.4,116.8 44.2,116.3 47.1,115.2 49.9,114.5 52.7,114.0 55.6,112.8 58.4,112.2 61.3,111.7 64.1,111.3 66.9,110.8 69.8,110.0 72.6,109.2 75.5,108.6 78.3,108.1 81.2,107.8 84.0,107.3 86.8,106.7 89.7,106.2 92.5,105.9 95.4,105.4 98.2,103.6 101.1,103.0 103.9,102.3 106.7,101.6 109.6,101.0 112.4,100.3 115.3,100.0 118.1,99.7 120.9,99.1 123.8,98.3 126.6,97.5 129.5,97.0 132.3,96.4 135.2,96.2 138.0,96.0 140.8,95.7 143.7,95.1 146.5,94.8 149.4,94.5 152.2,93.9 155.1,92.9 157.9,92.7 160.7,92.5 163.6,92.1 166.4,91.3 169.3,90.8 172.1,90.0 174.9,89.4 177.8,88.7 180.6,88.6 183.5,88.1 186.3,87.4 189.2,86.7 192.0,86.1 194.8,85.9 197.7,85.5 200.5,85.2 203.4,84.3 206.2,83.6 209.1,82.9 211.9,82.2 214.7,81.9 217.6,81.7 220.4,81.4 223.3,80.8 226.1,80.5 228.9,80.1 231.8,79.9 234.6,79.6 237.5,79.2 240.3,79.0 243.2,78.8 246.0,78.6 248.8,77.9 251.7,77.4 254.5,77.3 257.4,77.0 260.2,76.9 263.1,76.9 265.9,89.2 268.7,88.0 271.6,86.9 274.4,85.8 277.3,82.4 280.1,80.1 282.9,77.6 285.8,76.6 288.6,75.6 291.5,73.8 294.3,72.0 297.2,70.6 300.0,70.1 302.8,69.6 305.7,68.2 308.5,67.2 311.4,66.6 314.2,65.8 317.1,65.5 319.9,65.3 322.7,64.6 325.6,63.5 328.4,62.7 331.3,61.8 334.1,60.9 336.9,60.5 339.8,60.1 342.6,59.3 345.5,58.6 348.3,57.9 351.2,57.4 354.0,57.1 356.8,57.0 359.7,56.6 362.5,55.9 365.4,55.5 368.2,55.1 371.1,54.7 373.9,54.3 376.7,54.0 379.6,53.7 382.4,53.4 385.3,53.1 388.1,52.4 390.9,52.0 393.8,51.4 396.6,51.1 399.5,50.7 402.3,50.5 405.2,50.2 408.0,49.9 410.8,49.0 413.7,48.4 416.5,47.7 419.4,47.4 422.2,47.3 425.1,47.0 427.9,46.6 430.7,46.1 433.6,45.7 436.4,45.1 439.3,44.8 442.1,44.6 444.9,44.3 447.8,44.1 450.6,43.8 453.5,43.5 456.3,43.2 459.2,42.6 462.0,42.4 464.8,42.2 467.7,41.9 470.5,41.8 473.4,41.3 476.2,40.9 479.1,40.5 481.9,40.1 484.7,39.7 487.6,39.5 490.4,39.3 493.3,39.0 496.1,38.5 498.9,38.0 501.8,37.6 504.6,37.2 507.5,36.5 510.3,36.4 513.2,36.1 516.0,36.0 518.8,35.6 521.7,35.3 524.5,35.0 527.4,34.7 530.2,34.4 533.1,34.1 535.9,33.8 538.7,33.6 541.6,33.4 544.4,33.1 547.3,32.6 550.1,32.4 552.9,32.0 555.8,31.6 558.6,31.2 561.5,31.1 564.3,30.8 567.2,30.5 570.0,30.0 570.0,30.0,120" />
  
  <!-- Linea principale -->
  <polyline fill="none" stroke="#0366d6" stroke-width="2.5" stroke-linecap="round" stroke-linejoin="round" points="30.0,120.0 32.8,119.0 35.7,118.0 38.5,117.1 41.4,116.8 44.2,116.3 47.1,115.2 49.9,114.5 52.7,114.0 55.6,112.8 58.4,112.2 61.3,111.7 64.1,111.3 66.9,110.8 69.8,110.0 72.6,109.2 75.5,108.6 78.3,108.1 81.2,107.8 84.0,107.3 86.8,106.7 89.7,106.2 92.5,105.9 95.4,105.4 98.2,103.6 101.1,103.0 103.9,102.3 106.7,101.6 109.6,101.0 112.4,100.3 115.3,100.0 118.1,99.7 120.9,99.1 123.8,98.3 126.6,97.5 129.5,97.0 132.3,96.4 135.2,96.2 138.0,96.0 140.8,95.7 143.7,95.1 146.5,94.8 149.4,94.5 152.2,93.9 155.1,92.9 157.9,92.7 160.7,92.5 163.6,92.1 166.4,91.3 169.3,90.8 172.1,90.0 174.9,89.4 177.8,88.7 180.6,88.6 183.5,88.1 186.3,87.4 189.2,86.7 192.0,86.1 194.8,85.9 197.7,85.5 200.5,85.2 203.4,84.3 206.2,83.6 209.1,82.9 211.9,82.2 214.7,81.9 217.6,81.7 220.4,81.4 223.3,80.8 226.1,80.5 228.9,80.1 231.8,79.9 234.6,79.6 237.5,79.2 240.3,79.0 243.2,78.8 246.0,78.6 248.8,77.9 251.7,77.4 254.5,77.3 257.4,77.0 260.2,76.9 263.1,76.9 265.9,89.2 268.7,88.0 271.6,86.9 274.4,85.8 277.3,82.4 280.1,80.1 282.9,77.6 285.8,76.6 288.6,75.6 291.5,73.8 294.3,72.0 297.2,70.6 300.0,70.1 302.8,69.6 305.7,68.2 308.5,67.2 311.4,66.6 314.2,65.8 317.1,65.5 319.9,65.3 322.7,64.6 325.6,63.5 328.4,62.7 331.3,61.8 334.1,60.9 336.9,60.5 339.8,60.1 342.6,59.3 345.5,58.6 348.3,57.9 351.2,57.4 354.0,57.1 356.8,57.0 359.7,56.6 362.5,55.9 365.4,55.5 368.2,55.1 371.1,54.7 373.9,54.3 376.7,54.0 379.6,53.7 382.4,53.4 385.3,53.1 388.1,52.4 390.9,52.0 393.8,51.4 396.6,51.1 399.5,50.7 402.3,50.5 405.2,50.2 408.0,49.9 410.8,49.0 413.7,48.4 416.5,47.7 419.4,47.4 422.2,47.3 425.1,47.0 427.9,46.6 430.7,46.1 433.6,45.7 436.4,45.1 439.3,44.8 442.1,44.6 444.9,44.3 447.8,44.1 450.6,43.8 453.5,43.5 456.3,43.2 459.2,42.6 462.0,42.4 464.8,42.2 467.7,41.9 470.5,41.8 473.4,41.3 476.2,40.9 479.1,40.5 481.9,40.1 484.7,39.7 487.6,39.5 490.4,39.3 493.3,39.0 496.1,38.5 498.9,38.0 501.8,37.6 504.6,37.2 507.5,36.5 510.3,36.4 513.2,36.1 516.0,36.0 518.8,35.6 521.7,35.3 524.5,35.0 527.4,34.7 530.2,34.4 533.1,34.1 535.9,33.8 538.7,33.6 541.6,33.4 544.4,33.1 547.3,32.6 550.1,32.4 552.9,32.0 555.8,31.6 558.6,31.2 561.5,31.1 564.3,30.8 567.2,30.5 570.0,30.0" />
  
  <!-- Punto finale luminoso -->
  <circle cx="570.0" cy="30.0" r="4" fill="#ffffff" stroke="#0366d6" stroke-width="2.5" />
</svg>