<svg width="600" height="150" viewBox="0 0 600 150" xmlns="http://www.w3.org/2000/svg">
  <defs>
    <filter id="shadow2" x="-2%" y="-2%" width="104%" height="108%">
      <feDropShadow dx="0" dy="2" stdDeviation="3" flood-opacity="0.1" />
    </filter>
    <linearGradient id="fillGrad" x1="0" y1="0" x2="0" y2="1">
      <stop offset="0%" stop-color="#0366d6" stop-opacity="0.3"/>
      <stop offset="100%" stop-color="#0366d6" stop-opacity="0.02"/>
    </linearGradient>
  </defs>
  <rect width="600" height="150" rx="12" fill="#ffffff" filter="url(#shadow2)" stroke="#e1e4e8" stroke-width="1"/>
  <text x="20" y="24" fill="#2b3137" font-family="-apple-system,BlinkMacSystemFont,'Segoe UI',Helvetica,Arial,sans-serif" font-size="14" font-weight="600">📈 Download Growth (Actual: 77.6k)</text>
  
  <!-- Area sotto la linea -->
  <polygon fill="url(#fillGrad)" points="30.0,120.0,120 30.0,120.0 32.7,119.1 35.5,118.0 38.2,117.1 41.0,116.9 43.7,116.4 46.4,115.4 49.2,114.6 51.9,114.1 54.7,113.0 57.4,112.5 60.2,111.9 62.9,111.6 65.6,111.1 68.4,110.3 71.1,109.5 73.9,108.9 76.6,108.5 79.3,108.2 82.1,107.7 84.8,107.1 87.6,106.5 90.3,106.3 93.0,105.8 95.8,104.0 98.5,103.5 101.3,102.8 104.0,102.1 106.8,101.5 109.5,100.9 112.2,100.5 115.0,100.2 117.7,99.7 120.5,98.9 123.2,98.1 125.9,97.6 128.7,97.0 131.4,96.9 134.2,96.7 136.9,96.4 139.6,95.8 142.4,95.5 145.1,95.3 147.9,94.6 150.6,93.7 153.4,93.4 156.1,93.2 158.8,92.9 161.6,92.1 164.3,91.6 167.1,90.8 169.8,90.3 172.5,89.6 175.3,89.4 178.0,89.0 180.8,88.3 183.5,87.6 186.2,87.1 189.0,86.8 191.7,86.4 194.5,86.1 197.2,85.3 199.9,84.6 202.7,83.9 205.4,83.3 208.2,82.9 210.9,82.7 213.7,82.5 216.4,81.9 219.1,81.6 221.9,81.2 224.6,81.0 227.4,80.7 230.1,80.4 232.8,80.1 235.6,79.9 238.3,79.8 241.1,79.0 243.8,78.6 246.5,78.5 249.3,78.2 252.0,78.1 254.8,78.1 257.5,90.1 260.3,88.9 263.0,87.8 265.7,86.7 268.5,83.5 271.2,81.2 274.0,78.7 276.7,77.8 279.4,76.8 282.2,75.1 284.9,73.3 287.7,72.0 290.4,71.5 293.1,71.0 295.9,69.7 298.6,68.7 301.4,68.1 304.1,67.3 306.9,67.0 309.6,66.9 312.3,66.2 315.1,65.1 317.8,64.3 320.6,63.5 323.3,62.5 326.0,62.1 328.8,61.8 331.5,61.0 334.3,60.3 337.0,59.7 339.7,59.1 342.5,58.9 345.2,58.7 348.0,58.3 350.7,57.7 353.5,57.3 356.2,56.9 358.9,56.5 361.7,56.2 364.4,55.8 367.2,55.5 369.9,55.3 372.6,54.9 375.4,54.3 378.1,53.9 380.9,53.3 383.6,53.0 386.3,52.7 389.1,52.4 391.8,52.1 394.6,51.9 397.3,51.0 400.1,50.4 402.8,49.7 405.5,49.4 408.3,49.3 411.0,49.0 413.8,48.6 416.5,48.2 419.2,47.8 422.0,47.2 424.7,46.9 427.5,46.7 430.2,46.4 432.9,46.2 435.7,45.9 438.4,45.6 441.2,45.3 443.9,44.8 446.6,44.5 449.4,44.4 452.1,44.1 454.9,44.0 457.6,43.5 460.4,43.1 463.1,42.7 465.8,42.4 468.6,42.0 471.3,41.7 474.1,41.5 476.8,41.3 479.5,40.7 482.3,40.2 485.0,39.9 487.8,39.5 490.5,38.8 493.2,38.7 496.0,38.5 498.7,38.3 501.5,38.0 504.2,37.7 507.0,37.3 509.7,37.1 512.4,36.8 515.2,36.5 517.9,36.2 520.7,36.0 523.4,35.8 526.1,35.5 528.9,35.0 531.6,34.8 534.4,34.4 537.1,34.0 539.8,33.7 542.6,33.5 545.3,33.3 548.1,33.0 550.8,32.5 553.6,31.9 556.3,31.5 559.0,31.2 561.8,31.1 564.5,30.6 567.3,30.2 570.0,30.0 570.0,30.0,120" />
  
  <!-- Linea principale -->
  <polyline fill="none" stroke="#0366d6" stroke-width="2.5" stroke-linecap="round" stroke-linejoin="round" points="30.0,120.0 32.7,119.1 35.5,118.0 38.2,117.1 41.0,116.9 43.7,116.4 46.4,115.4 49.2,114.6 51.9,114.1 54.7,113.0 57.4,112.5 60.2,111.9 62.9,111.6 65.6,111.1 68.4,110.3 71.1,109.5 73.9,108.9 76.6,108.5 79.3,108.2 82.1,107.7 84.8,107.1 87.6,106.5 90.3,106.3 93.0,105.8 95.8,104.0 98.5,103.5 101.3,102.8 104.0,102.1 106.8,101.5 109.5,100.9 112.2,100.5 115.0,100.2 117.7,99.7 120.5,98.9 123.2,98.1 125.9,97.6 128.7,97.0 131.4,96.9 134.2,96.7 136.9,96.4 139.6,95.8 142.4,95.5 145.1,95.3 147.9,94.6 150.6,93.7 153.4,93.4 156.1,93.2 158.8,92.9 161.6,92.1 164.3,91.6 167.1,90.8 169.8,90.3 172.5,89.6 175.3,89.4 178.0,89.0 180.8,88.3 183.5,87.6 186.2,87.1 189.0,86.8 191.7,86.4 194.5,86.1 197.2,85.3 199.9,84.6 202.7,83.9 205.4,83.3 208.2,82.9 210.9,82.7 213.7,82.5 216.4,81.9 219.1,81.6 221.9,81.2 224.6,81.0 227.4,80.7 230.1,80.4 232.8,80.1 235.6,79.9 238.3,79.8 241.1,79.0 243.8,78.6 246.5,78.5 249.3,78.2 252.0,78.1 254.8,78.1 257.5,90.1 260.3,88.9 263.0,87.8 265.7,86.7 268.5,83.5 271.2,81.2 274.0,78.7 276.7,77.8 279.4,76.8 282.2,75.1 284.9,73.3 287.7,72.0 290.4,71.5 293.1,71.0 295.9,69.7 298.6,68.7 301.4,68.1 304.1,67.3 306.9,67.0 309.6,66.9 312.3,66.2 315.1,65.1 317.8,64.3 320.6,63.5 323.3,62.5 326.0,62.1 328.8,61.8 331.5,61.0 334.3,60.3 337.0,59.7 339.7,59.1 342.5,58.9 345.2,58.7 348.0,58.3 350.7,57.7 353.5,57.3 356.2,56.9 358.9,56.5 361.7,56.2 364.4,55.8 367.2,55.5 369.9,55.3 372.6,54.9 375.4,54.3 378.1,53.9 380.9,53.3 383.6,53.0 386.3,52.7 389.1,52.4 391.8,52.1 394.6,51.9 397.3,51.0 400.1,50.4 402.8,49.7 405.5,49.4 408.3,49.3 411.0,49.0 413.8,48.6 416.5,48.2 419.2,47.8 422.0,47.2 424.7,46.9 427.5,46.7 430.2,46.4 432.9,46.2 435.7,45.9 438.4,45.6 441.2,45.3 443.9,44.8 446.6,44.5 449.4,44.4 452.1,44.1 454.9,44.0 457.6,43.5 460.4,43.1 463.1,42.7 465.8,42.4 468.6,42.0 471.3,41.7 474.1,41.5 476.8,41.3 479.5,40.7 482.3,40.2 485.0,39.9 487.8,39.5 490.5,38.8 493.2,38.7 496.0,38.5 498.7,38.3 501.5,38.0 504.2,37.7 507.0,37.3 509.7,37.1 512.4,36.8 515.2,36.5 517.9,36.2 520.7,36.0 523.4,35.8 526.1,35.5 528.9,35.0 531.6,34.8 534.4,34.4 537.1,34.0 539.8,33.7 542.6,33.5 545.3,33.3 548.1,33.0 550.8,32.5 553.6,31.9 556.3,31.5 559.0,31.2 561.8,31.1 564.5,30.6 567.3,30.2 570.0,30.0" />
  
  <!-- Punto finale luminoso -->
  <circle cx="570.0" cy="30.0" r="4" fill="#ffffff" stroke="#0366d6" stroke-width="2.5" />
</svg>