<svg width="600" height="150" viewBox="0 0 600 150" xmlns="http://www.w3.org/2000/svg">
  <defs>
    <filter id="shadow2" x="-2%" y="-2%" width="104%" height="108%">
      <feDropShadow dx="0" dy="2" stdDeviation="3" flood-opacity="0.1" />
    </filter>
    <linearGradient id="fillGrad" x1="0" y1="0" x2="0" y2="1">
      <stop offset="0%" stop-color="#0366d6" stop-opacity="0.3"/>
      <stop offset="100%" stop-color="#0366d6" stop-opacity="0.02"/>
    </linearGradient>
  </defs>
  <rect width="600" height="150" rx="12" fill="#ffffff" filter="url(#shadow2)" stroke="#e1e4e8" stroke-width="1"/>
  <text x="20" y="24" fill="#2b3137" font-family="-apple-system,BlinkMacSystemFont,'Segoe UI',Helvetica,Arial,sans-serif" font-size="14" font-weight="600">📈 Download Growth (Actual: 78.2k)</text>
  
  <!-- Area sotto la linea -->
  <polygon fill="url(#fillGrad)" points="30.0,120.0,120 30.0,120.0 32.5,119.1 35.0,118.1 37.5,117.3 40.0,117.1 42.6,116.6 45.1,115.6 47.6,114.9 50.1,114.5 52.6,113.4 55.1,112.9 57.6,112.3 60.1,112.0 62.7,111.5 65.2,110.8 67.7,110.1 70.2,109.5 72.7,109.1 75.2,108.8 77.7,108.3 80.2,107.8 82.7,107.3 85.3,107.0 87.8,106.6 90.3,104.9 92.8,104.4 95.3,103.7 97.8,103.1 100.3,102.5 102.8,101.9 105.3,101.6 107.9,101.3 110.4,100.8 112.9,100.0 115.4,99.3 117.9,98.8 120.4,98.3 122.9,98.1 125.4,98.0 128.0,97.7 130.5,97.1 133.0,96.8 135.5,96.6 138.0,96.0 140.5,95.1 143.0,94.9 145.5,94.7 148.0,94.3 150.6,93.6 153.1,93.1 155.6,92.4 158.1,91.9 160.6,91.2 163.1,91.1 165.6,90.7 168.1,90.0 170.7,89.3 173.2,88.8 175.7,88.6 178.2,88.3 180.7,88.0 183.2,87.2 185.7,86.5 188.2,85.9 190.7,85.3 193.3,84.9 195.8,84.8 198.3,84.5 200.8,84.0 203.3,83.6 205.8,83.3 208.3,83.1 210.8,82.9 213.3,82.5 215.9,82.3 218.4,82.1 220.9,81.9 223.4,81.2 225.9,80.9 228.4,80.7 230.9,80.5 233.4,80.4 236.0,80.4 238.5,91.7 241.0,90.6 243.5,89.6 246.0,88.5 248.5,85.4 251.0,83.3 253.5,81.0 256.0,80.1 258.6,79.1 261.1,77.6 263.6,75.8 266.1,74.6 268.6,74.1 271.1,73.6 273.6,72.4 276.1,71.5 278.7,70.9 281.2,70.2 283.7,69.9 286.2,69.7 288.7,69.1 291.2,68.0 293.7,67.3 296.2,66.5 298.7,65.7 301.3,65.2 303.8,64.9 306.3,64.2 308.8,63.6 311.3,62.9 313.8,62.4 316.3,62.2 318.8,62.0 321.3,61.7 323.9,61.1 326.4,60.7 328.9,60.3 331.4,59.9 333.9,59.6 336.4,59.3 338.9,59.0 341.4,58.7 344.0,58.5 346.5,57.9 349.0,57.4 351.5,56.9 354.0,56.6 356.5,56.3 359.0,56.1 361.5,55.8 364.0,55.5 366.6,54.7 369.1,54.2 371.6,53.5 374.1,53.2 376.6,53.1 379.1,52.8 381.6,52.5 384.1,52.0 386.7,51.7 389.2,51.1 391.7,50.8 394.2,50.7 396.7,50.4 399.2,50.2 401.7,49.9 404.2,49.6 406.7,49.3 409.3,48.8 411.8,48.6 414.3,48.5 416.8,48.2 419.3,48.1 421.8,47.6 424.3,47.3 426.8,46.9 429.3,46.6 431.9,46.2 434.4,45.9 436.9,45.8 439.4,45.5 441.9,45.0 444.4,44.5 446.9,44.2 449.4,43.8 452.0,43.2 454.5,43.1 457.0,42.9 459.5,42.7 462.0,42.4 464.5,42.1 467.0,41.8 469.5,41.5 472.0,41.2 474.6,41.0 477.1,40.7 479.6,40.5 482.1,40.4 484.6,40.1 487.1,39.6 489.6,39.4 492.1,39.1 494.7,38.7 497.2,38.4 499.7,38.2 502.2,38.0 504.7,37.7 507.2,37.2 509.7,36.7 512.2,36.2 514.7,36.0 517.3,35.9 519.8,35.4 522.3,35.1 524.8,34.9 527.3,34.7 529.8,34.2 532.3,34.1 534.8,33.8 537.3,33.6 539.9,33.4 542.4,33.0 544.9,32.7 547.4,32.3 549.9,31.9 552.4,31.8 554.9,31.7 557.4,31.6 560.0,31.2 562.5,31.1 565.0,30.7 567.5,30.5 570.0,30.0 570.0,30.0,120" />
  
  <!-- Linea principale -->
  <polyline fill="none" stroke="#0366d6" stroke-width="2.5" stroke-linecap="round" stroke-linejoin="round" points="30.0,120.0 32.5,119.1 35.0,118.1 37.5,117.3 40.0,117.1 42.6,116.6 45.1,115.6 47.6,114.9 50.1,114.5 52.6,113.4 55.1,112.9 57.6,112.3 60.1,112.0 62.7,111.5 65.2,110.8 67.7,110.1 70.2,109.5 72.7,109.1 75.2,108.8 77.7,108.3 80.2,107.8 82.7,107.3 85.3,107.0 87.8,106.6 90.3,104.9 92.8,104.4 95.3,103.7 97.8,103.1 100.3,102.5 102.8,101.9 105.3,101.6 107.9,101.3 110.4,100.8 112.9,100.0 115.4,99.3 117.9,98.8 120.4,98.3 122.9,98.1 125.4,98.0 128.0,97.7 130.5,97.1 133.0,96.8 135.5,96.6 138.0,96.0 140.5,95.1 143.0,94.9 145.5,94.7 148.0,94.3 150.6,93.6 153.1,93.1 155.6,92.4 158.1,91.9 160.6,91.2 163.1,91.1 165.6,90.7 168.1,90.0 170.7,89.3 173.2,88.8 175.7,88.6 178.2,88.3 180.7,88.0 183.2,87.2 185.7,86.5 188.2,85.9 190.7,85.3 193.3,84.9 195.8,84.8 198.3,84.5 200.8,84.0 203.3,83.6 205.8,83.3 208.3,83.1 210.8,82.9 213.3,82.5 215.9,82.3 218.4,82.1 220.9,81.9 223.4,81.2 225.9,80.9 228.4,80.7 230.9,80.5 233.4,80.4 236.0,80.4 238.5,91.7 241.0,90.6 243.5,89.6 246.0,88.5 248.5,85.4 251.0,83.3 253.5,81.0 256.0,80.1 258.6,79.1 261.1,77.6 263.6,75.8 266.1,74.6 268.6,74.1 271.1,73.6 273.6,72.4 276.1,71.5 278.7,70.9 281.2,70.2 283.7,69.9 286.2,69.7 288.7,69.1 291.2,68.0 293.7,67.3 296.2,66.5 298.7,65.7 301.3,65.2 303.8,64.9 306.3,64.2 308.8,63.6 311.3,62.9 313.8,62.4 316.3,62.2 318.8,62.0 321.3,61.7 323.9,61.1 326.4,60.7 328.9,60.3 331.4,59.9 333.9,59.6 336.4,59.3 338.9,59.0 341.4,58.7 344.0,58.5 346.5,57.9 349.0,57.4 351.5,56.9 354.0,56.6 356.5,56.3 359.0,56.1 361.5,55.8 364.0,55.5 366.6,54.7 369.1,54.2 371.6,53.5 374.1,53.2 376.6,53.1 379.1,52.8 381.6,52.5 384.1,52.0 386.7,51.7 389.2,51.1 391.7,50.8 394.2,50.7 396.7,50.4 399.2,50.2 401.7,49.9 404.2,49.6 406.7,49.3 409.3,48.8 411.8,48.6 414.3,48.5 416.8,48.2 419.3,48.1 421.8,47.6 424.3,47.3 426.8,46.9 429.3,46.6 431.9,46.2 434.4,45.9 436.9,45.8 439.4,45.5 441.9,45.0 444.4,44.5 446.9,44.2 449.4,43.8 452.0,43.2 454.5,43.1 457.0,42.9 459.5,42.7 462.0,42.4 464.5,42.1 467.0,41.8 469.5,41.5 472.0,41.2 474.6,41.0 477.1,40.7 479.6,40.5 482.1,40.4 484.6,40.1 487.1,39.6 489.6,39.4 492.1,39.1 494.7,38.7 497.2,38.4 499.7,38.2 502.2,38.0 504.7,37.7 507.2,37.2 509.7,36.7 512.2,36.2 514.7,36.0 517.3,35.9 519.8,35.4 522.3,35.1 524.8,34.9 527.3,34.7 529.8,34.2 532.3,34.1 534.8,33.8 537.3,33.6 539.9,33.4 542.4,33.0 544.9,32.7 547.4,32.3 549.9,31.9 552.4,31.8 554.9,31.7 557.4,31.6 560.0,31.2 562.5,31.1 565.0,30.7 567.5,30.5 570.0,30.0" />
  
  <!-- Punto finale luminoso -->
  <circle cx="570.0" cy="30.0" r="4" fill="#ffffff" stroke="#0366d6" stroke-width="2.5" />
</svg>