<svg width="600" height="150" viewBox="0 0 600 150" xmlns="http://www.w3.org/2000/svg">
  <defs>
    <filter id="shadow2" x="-2%" y="-2%" width="104%" height="108%">
      <feDropShadow dx="0" dy="2" stdDeviation="3" flood-opacity="0.1" />
    </filter>
    <linearGradient id="fillGrad" x1="0" y1="0" x2="0" y2="1">
      <stop offset="0%" stop-color="#0366d6" stop-opacity="0.3"/>
      <stop offset="100%" stop-color="#0366d6" stop-opacity="0.02"/>
    </linearGradient>
  </defs>
  <rect width="600" height="150" rx="12" fill="#ffffff" filter="url(#shadow2)" stroke="#e1e4e8" stroke-width="1"/>
  <text x="20" y="24" fill="#2b3137" font-family="-apple-system,BlinkMacSystemFont,'Segoe UI',Helvetica,Arial,sans-serif" font-size="14" font-weight="600">📈 Download Growth (Actual: 77.2k)</text>
  
  <!-- Area sotto la linea -->
  <polygon fill="url(#fillGrad)" points="30.0,120.0,120 30.0,120.0 32.9,119.0 35.7,118.0 38.6,117.0 41.5,116.8 44.4,116.3 47.2,115.2 50.1,114.4 53.0,113.9 55.9,112.7 58.7,112.2 61.6,111.6 64.5,111.2 67.3,110.7 70.2,109.9 73.1,109.1 76.0,108.4 78.8,108.0 81.7,107.7 84.6,107.2 87.4,106.6 90.3,106.0 93.2,105.8 96.1,105.2 98.9,103.4 101.8,102.9 104.7,102.1 107.6,101.4 110.4,100.8 113.3,100.2 116.2,99.8 119.0,99.5 121.9,99.0 124.8,98.1 127.7,97.3 130.5,96.8 133.4,96.2 136.3,96.0 139.1,95.8 142.0,95.5 144.9,94.9 147.8,94.6 150.6,94.3 153.5,93.6 156.4,92.7 159.3,92.4 162.1,92.2 165.0,91.8 167.9,91.1 170.7,90.5 173.6,89.7 176.5,89.1 179.4,88.4 182.2,88.3 185.1,87.8 188.0,87.1 190.9,86.4 193.7,85.8 196.6,85.5 199.5,85.2 202.3,84.8 205.2,84.0 208.1,83.3 211.0,82.6 213.8,81.9 216.7,81.5 219.6,81.3 222.4,81.0 225.3,80.5 228.2,80.1 231.1,79.8 233.9,79.5 236.8,79.3 239.7,78.9 242.6,78.6 245.4,78.4 248.3,78.2 251.2,77.5 254.0,77.1 256.9,76.9 259.8,76.7 262.7,76.5 265.5,76.5 268.4,88.9 271.3,87.7 274.1,86.6 277.0,85.5 279.9,82.1 282.8,79.7 285.6,77.2 288.5,76.2 291.4,75.2 294.3,73.4 297.1,71.5 300.0,70.1 302.9,69.6 305.7,69.1 308.6,67.7 311.5,66.8 314.4,66.1 317.2,65.3 320.1,65.0 323.0,64.9 325.9,64.1 328.7,63.0 331.6,62.1 334.5,61.3 337.3,60.4 340.2,59.9 343.1,59.6 346.0,58.8 348.8,58.1 351.7,57.4 354.6,56.8 357.4,56.6 360.3,56.4 363.2,56.0 366.1,55.4 368.9,54.9 371.8,54.5 374.7,54.1 377.6,53.8 380.4,53.4 383.3,53.1 386.2,52.8 389.0,52.5 391.9,51.8 394.8,51.4 397.7,50.8 400.5,50.5 403.4,50.1 406.3,49.9 409.1,49.6 412.0,49.3 414.9,48.4 417.8,47.8 420.6,47.0 423.5,46.7 426.4,46.7 429.3,46.3 432.1,45.9 435.0,45.4 437.9,45.0 440.7,44.5 443.6,44.1 446.5,43.9 449.4,43.6 452.2,43.4 455.1,43.1 458.0,42.8 460.9,42.5 463.7,41.9 466.6,41.7 469.5,41.5 472.3,41.2 475.2,41.1 478.1,40.6 481.0,40.2 483.8,39.8 486.7,39.4 489.6,39.0 492.4,38.7 495.3,38.6 498.2,38.3 501.1,37.7 503.9,37.2 506.8,36.8 509.7,36.4 512.6,35.8 515.4,35.6 518.3,35.4 521.2,35.2 524.0,34.9 526.9,34.6 529.8,34.2 532.7,33.9 535.5,33.6 538.4,33.3 541.3,33.0 544.1,32.8 547.0,32.7 549.9,32.3 552.8,31.8 555.6,31.6 558.5,31.2 561.4,30.8 564.3,30.4 567.1,30.3 570.0,30.0 570.0,30.0,120" />
  
  <!-- Linea principale -->
  <polyline fill="none" stroke="#0366d6" stroke-width="2.5" stroke-linecap="round" stroke-linejoin="round" points="30.0,120.0 32.9,119.0 35.7,118.0 38.6,117.0 41.5,116.8 44.4,116.3 47.2,115.2 50.1,114.4 53.0,113.9 55.9,112.7 58.7,112.2 61.6,111.6 64.5,111.2 67.3,110.7 70.2,109.9 73.1,109.1 76.0,108.4 78.8,108.0 81.7,107.7 84.6,107.2 87.4,106.6 90.3,106.0 93.2,105.8 96.1,105.2 98.9,103.4 101.8,102.9 104.7,102.1 107.6,101.4 110.4,100.8 113.3,100.2 116.2,99.8 119.0,99.5 121.9,99.0 124.8,98.1 127.7,97.3 130.5,96.8 133.4,96.2 136.3,96.0 139.1,95.8 142.0,95.5 144.9,94.9 147.8,94.6 150.6,94.3 153.5,93.6 156.4,92.7 159.3,92.4 162.1,92.2 165.0,91.8 167.9,91.1 170.7,90.5 173.6,89.7 176.5,89.1 179.4,88.4 182.2,88.3 185.1,87.8 188.0,87.1 190.9,86.4 193.7,85.8 196.6,85.5 199.5,85.2 202.3,84.8 205.2,84.0 208.1,83.3 211.0,82.6 213.8,81.9 216.7,81.5 219.6,81.3 222.4,81.0 225.3,80.5 228.2,80.1 231.1,79.8 233.9,79.5 236.8,79.3 239.7,78.9 242.6,78.6 245.4,78.4 248.3,78.2 251.2,77.5 254.0,77.1 256.9,76.9 259.8,76.7 262.7,76.5 265.5,76.5 268.4,88.9 271.3,87.7 274.1,86.6 277.0,85.5 279.9,82.1 282.8,79.7 285.6,77.2 288.5,76.2 291.4,75.2 294.3,73.4 297.1,71.5 300.0,70.1 302.9,69.6 305.7,69.1 308.6,67.7 311.5,66.8 314.4,66.1 317.2,65.3 320.1,65.0 323.0,64.9 325.9,64.1 328.7,63.0 331.6,62.1 334.5,61.3 337.3,60.4 340.2,59.9 343.1,59.6 346.0,58.8 348.8,58.1 351.7,57.4 354.6,56.8 357.4,56.6 360.3,56.4 363.2,56.0 366.1,55.4 368.9,54.9 371.8,54.5 374.7,54.1 377.6,53.8 380.4,53.4 383.3,53.1 386.2,52.8 389.0,52.5 391.9,51.8 394.8,51.4 397.7,50.8 400.5,50.5 403.4,50.1 406.3,49.9 409.1,49.6 412.0,49.3 414.9,48.4 417.8,47.8 420.6,47.0 423.5,46.7 426.4,46.7 429.3,46.3 432.1,45.9 435.0,45.4 437.9,45.0 440.7,44.5 443.6,44.1 446.5,43.9 449.4,43.6 452.2,43.4 455.1,43.1 458.0,42.8 460.9,42.5 463.7,41.9 466.6,41.7 469.5,41.5 472.3,41.2 475.2,41.1 478.1,40.6 481.0,40.2 483.8,39.8 486.7,39.4 489.6,39.0 492.4,38.7 495.3,38.6 498.2,38.3 501.1,37.7 503.9,37.2 506.8,36.8 509.7,36.4 512.6,35.8 515.4,35.6 518.3,35.4 521.2,35.2 524.0,34.9 526.9,34.6 529.8,34.2 532.7,33.9 535.5,33.6 538.4,33.3 541.3,33.0 544.1,32.8 547.0,32.7 549.9,32.3 552.8,31.8 555.6,31.6 558.5,31.2 561.4,30.8 564.3,30.4 567.1,30.3 570.0,30.0" />
  
  <!-- Punto finale luminoso -->
  <circle cx="570.0" cy="30.0" r="4" fill="#ffffff" stroke="#0366d6" stroke-width="2.5" />
</svg>