<svg width="600" height="150" viewBox="0 0 600 150" xmlns="http://www.w3.org/2000/svg">
  <defs>
    <filter id="shadow2" x="-2%" y="-2%" width="104%" height="108%">
      <feDropShadow dx="0" dy="2" stdDeviation="3" flood-opacity="0.1" />
    </filter>
    <linearGradient id="fillGrad" x1="0" y1="0" x2="0" y2="1">
      <stop offset="0%" stop-color="#0366d6" stop-opacity="0.3"/>
      <stop offset="100%" stop-color="#0366d6" stop-opacity="0.02"/>
    </linearGradient>
  </defs>
  <rect width="600" height="150" rx="12" fill="#ffffff" filter="url(#shadow2)" stroke="#e1e4e8" stroke-width="1"/>
  <text x="20" y="24" fill="#2b3137" font-family="-apple-system,BlinkMacSystemFont,'Segoe UI',Helvetica,Arial,sans-serif" font-size="14" font-weight="600">📈 Download Growth (Actual: 77.8k)</text>
  
  <!-- Area sotto la linea -->
  <polygon fill="url(#fillGrad)" points="30.0,120.0,120 30.0,120.0 32.7,119.1 35.3,118.1 38.0,117.2 40.6,117.0 43.3,116.5 46.0,115.4 48.6,114.7 51.3,114.2 53.9,113.1 56.6,112.6 59.3,112.0 61.9,111.7 64.6,111.2 67.2,110.5 69.9,109.7 72.6,109.1 75.2,108.7 77.9,108.4 80.5,107.9 83.2,107.3 85.9,106.8 88.5,106.5 91.2,106.0 93.8,104.3 96.5,103.8 99.2,103.1 101.8,102.4 104.5,101.8 107.1,101.2 109.8,100.8 112.5,100.6 115.1,100.1 117.8,99.2 120.4,98.5 123.1,98.0 125.8,97.4 128.4,97.3 131.1,97.1 133.7,96.8 136.4,96.3 139.1,95.9 141.7,95.7 144.4,95.0 147.0,94.1 149.7,93.9 152.4,93.7 155.0,93.3 157.7,92.6 160.3,92.1 163.0,91.3 165.7,90.8 168.3,90.1 171.0,90.0 173.6,89.6 176.3,88.9 179.0,88.2 181.6,87.6 184.3,87.4 186.9,87.0 189.6,86.7 192.3,85.9 194.9,85.2 197.6,84.6 200.2,83.9 202.9,83.6 205.6,83.4 208.2,83.1 210.9,82.6 213.5,82.2 216.2,81.9 218.9,81.7 221.5,81.4 224.2,81.0 226.8,80.8 229.5,80.6 232.2,80.5 234.8,79.7 237.5,79.4 240.1,79.2 242.8,79.0 245.5,78.8 248.1,78.8 250.8,90.6 253.4,89.4 256.1,88.4 258.8,87.3 261.4,84.1 264.1,81.9 266.7,79.5 269.4,78.6 272.1,77.6 274.7,75.9 277.4,74.1 280.0,72.8 282.7,72.3 285.4,71.8 288.0,70.5 290.7,69.6 293.3,69.0 296.0,68.2 298.7,67.9 301.3,67.8 304.0,67.1 306.7,66.0 309.3,65.2 312.0,64.4 314.6,63.5 317.3,63.1 320.0,62.8 322.6,62.1 325.3,61.4 327.9,60.7 330.6,60.2 333.3,60.0 335.9,59.8 338.6,59.4 341.2,58.8 343.9,58.4 346.6,58.0 349.2,57.6 351.9,57.3 354.5,57.0 357.2,56.6 359.9,56.4 362.5,56.1 365.2,55.5 367.8,55.0 370.5,54.5 373.2,54.2 375.8,53.8 378.5,53.6 381.1,53.3 383.8,53.0 386.5,52.2 389.1,51.6 391.8,50.9 394.4,50.6 397.1,50.6 399.8,50.2 402.4,49.9 405.1,49.4 407.7,49.0 410.4,48.5 413.1,48.1 415.7,48.0 418.4,47.7 421.0,47.5 423.7,47.2 426.4,46.9 429.0,46.6 431.7,46.1 434.3,45.8 437.0,45.7 439.7,45.4 442.3,45.3 445.0,44.8 447.6,44.5 450.3,44.1 453.0,43.7 455.6,43.3 458.3,43.1 460.9,42.9 463.6,42.6 466.3,42.1 468.9,41.6 471.6,41.3 474.2,40.9 476.9,40.3 479.6,40.1 482.2,39.9 484.9,39.7 487.5,39.4 490.2,39.1 492.9,38.8 495.5,38.5 498.2,38.2 500.8,38.0 503.5,37.7 506.2,37.4 508.8,37.3 511.5,37.0 514.1,36.5 516.8,36.3 519.5,35.9 522.1,35.5 524.8,35.2 527.4,35.0 530.1,34.8 532.8,34.5 535.4,34.0 538.1,33.5 540.7,33.0 543.4,32.7 546.1,32.6 548.7,32.2 551.4,31.8 554.0,31.6 556.7,31.4 559.4,30.9 562.0,30.7 564.7,30.4 567.3,30.2 570.0,30.0 570.0,30.0,120" />
  
  <!-- Linea principale -->
  <polyline fill="none" stroke="#0366d6" stroke-width="2.5" stroke-linecap="round" stroke-linejoin="round" points="30.0,120.0 32.7,119.1 35.3,118.1 38.0,117.2 40.6,117.0 43.3,116.5 46.0,115.4 48.6,114.7 51.3,114.2 53.9,113.1 56.6,112.6 59.3,112.0 61.9,111.7 64.6,111.2 67.2,110.5 69.9,109.7 72.6,109.1 75.2,108.7 77.9,108.4 80.5,107.9 83.2,107.3 85.9,106.8 88.5,106.5 91.2,106.0 93.8,104.3 96.5,103.8 99.2,103.1 101.8,102.4 104.5,101.8 107.1,101.2 109.8,100.8 112.5,100.6 115.1,100.1 117.8,99.2 120.4,98.5 123.1,98.0 125.8,97.4 128.4,97.3 131.1,97.1 133.7,96.8 136.4,96.3 139.1,95.9 141.7,95.7 144.4,95.0 147.0,94.1 149.7,93.9 152.4,93.7 155.0,93.3 157.7,92.6 160.3,92.1 163.0,91.3 165.7,90.8 168.3,90.1 171.0,90.0 173.6,89.6 176.3,88.9 179.0,88.2 181.6,87.6 184.3,87.4 186.9,87.0 189.6,86.7 192.3,85.9 194.9,85.2 197.6,84.6 200.2,83.9 202.9,83.6 205.6,83.4 208.2,83.1 210.9,82.6 213.5,82.2 216.2,81.9 218.9,81.7 221.5,81.4 224.2,81.0 226.8,80.8 229.5,80.6 232.2,80.5 234.8,79.7 237.5,79.4 240.1,79.2 242.8,79.0 245.5,78.8 248.1,78.8 250.8,90.6 253.4,89.4 256.1,88.4 258.8,87.3 261.4,84.1 264.1,81.9 266.7,79.5 269.4,78.6 272.1,77.6 274.7,75.9 277.4,74.1 280.0,72.8 282.7,72.3 285.4,71.8 288.0,70.5 290.7,69.6 293.3,69.0 296.0,68.2 298.7,67.9 301.3,67.8 304.0,67.1 306.7,66.0 309.3,65.2 312.0,64.4 314.6,63.5 317.3,63.1 320.0,62.8 322.6,62.1 325.3,61.4 327.9,60.7 330.6,60.2 333.3,60.0 335.9,59.8 338.6,59.4 341.2,58.8 343.9,58.4 346.6,58.0 349.2,57.6 351.9,57.3 354.5,57.0 357.2,56.6 359.9,56.4 362.5,56.1 365.2,55.5 367.8,55.0 370.5,54.5 373.2,54.2 375.8,53.8 378.5,53.6 381.1,53.3 383.8,53.0 386.5,52.2 389.1,51.6 391.8,50.9 394.4,50.6 397.1,50.6 399.8,50.2 402.4,49.9 405.1,49.4 407.7,49.0 410.4,48.5 413.1,48.1 415.7,48.0 418.4,47.7 421.0,47.5 423.7,47.2 426.4,46.9 429.0,46.6 431.7,46.1 434.3,45.8 437.0,45.7 439.7,45.4 442.3,45.3 445.0,44.8 447.6,44.5 450.3,44.1 453.0,43.7 455.6,43.3 458.3,43.1 460.9,42.9 463.6,42.6 466.3,42.1 468.9,41.6 471.6,41.3 474.2,40.9 476.9,40.3 479.6,40.1 482.2,39.9 484.9,39.7 487.5,39.4 490.2,39.1 492.9,38.8 495.5,38.5 498.2,38.2 500.8,38.0 503.5,37.7 506.2,37.4 508.8,37.3 511.5,37.0 514.1,36.5 516.8,36.3 519.5,35.9 522.1,35.5 524.8,35.2 527.4,35.0 530.1,34.8 532.8,34.5 535.4,34.0 538.1,33.5 540.7,33.0 543.4,32.7 546.1,32.6 548.7,32.2 551.4,31.8 554.0,31.6 556.7,31.4 559.4,30.9 562.0,30.7 564.7,30.4 567.3,30.2 570.0,30.0" />
  
  <!-- Punto finale luminoso -->
  <circle cx="570.0" cy="30.0" r="4" fill="#ffffff" stroke="#0366d6" stroke-width="2.5" />
</svg>