<svg width="600" height="150" viewBox="0 0 600 150" xmlns="http://www.w3.org/2000/svg">
  <defs>
    <filter id="shadow2" x="-2%" y="-2%" width="104%" height="108%">
      <feDropShadow dx="0" dy="2" stdDeviation="3" flood-opacity="0.1" />
    </filter>
    <linearGradient id="fillGrad" x1="0" y1="0" x2="0" y2="1">
      <stop offset="0%" stop-color="#0366d6" stop-opacity="0.3"/>
      <stop offset="100%" stop-color="#0366d6" stop-opacity="0.02"/>
    </linearGradient>
  </defs>
  <rect width="600" height="150" rx="12" fill="#ffffff" filter="url(#shadow2)" stroke="#e1e4e8" stroke-width="1"/>
  <text x="20" y="24" fill="#2b3137" font-family="-apple-system,BlinkMacSystemFont,'Segoe UI',Helvetica,Arial,sans-serif" font-size="14" font-weight="600">📈 Download Growth (Actual: 77.5k)</text>
  
  <!-- Area sotto la linea -->
  <polygon fill="url(#fillGrad)" points="30.0,120.0,120 30.0,120.0 32.8,119.0 35.6,118.0 38.4,117.1 41.1,116.9 43.9,116.4 46.7,115.3 49.5,114.6 52.3,114.1 55.1,112.9 57.8,112.4 60.6,111.8 63.4,111.5 66.2,110.9 69.0,110.2 71.8,109.4 74.5,108.7 77.3,108.3 80.1,108.0 82.9,107.5 85.7,106.9 88.5,106.4 91.2,106.1 94.0,105.6 96.8,103.8 99.6,103.3 102.4,102.6 105.2,101.9 107.9,101.3 110.7,100.7 113.5,100.3 116.3,100.0 119.1,99.5 121.9,98.6 124.6,97.9 127.4,97.4 130.2,96.7 133.0,96.6 135.8,96.4 138.6,96.1 141.3,95.5 144.1,95.2 146.9,95.0 149.7,94.3 152.5,93.3 155.3,93.1 158.0,92.9 160.8,92.5 163.6,91.8 166.4,91.3 169.2,90.5 172.0,89.9 174.7,89.2 177.5,89.1 180.3,88.6 183.1,87.9 185.9,87.2 188.7,86.7 191.4,86.4 194.2,86.0 197.0,85.7 199.8,84.9 202.6,84.2 205.4,83.5 208.1,82.8 210.9,82.5 213.7,82.3 216.5,82.0 219.3,81.5 222.1,81.1 224.8,80.8 227.6,80.5 230.4,80.3 233.2,79.9 236.0,79.6 238.8,79.5 241.5,79.3 244.3,78.5 247.1,78.1 249.9,78.0 252.7,77.7 255.5,77.6 258.2,77.6 261.0,89.7 263.8,88.5 266.6,87.5 269.4,86.3 272.2,83.0 274.9,80.7 277.7,78.3 280.5,77.3 283.3,76.3 286.1,74.6 288.9,72.7 291.6,71.4 294.4,70.9 297.2,70.4 300.0,69.1 302.8,68.1 305.6,67.5 308.4,66.7 311.1,66.4 313.9,66.2 316.7,65.5 319.5,64.4 322.3,63.6 325.1,62.8 327.8,61.9 330.6,61.4 333.4,61.1 336.2,60.3 339.0,59.6 341.8,59.0 344.5,58.4 347.3,58.2 350.1,58.0 352.9,57.6 355.7,57.0 358.5,56.6 361.2,56.1 364.0,55.8 366.8,55.4 369.6,55.1 372.4,54.8 375.2,54.5 377.9,54.2 380.7,53.5 383.5,53.1 386.3,52.5 389.1,52.2 391.9,51.9 394.6,51.6 397.4,51.3 400.2,51.0 403.0,50.2 405.8,49.6 408.6,48.9 411.3,48.6 414.1,48.5 416.9,48.2 419.7,47.8 422.5,47.3 425.3,46.9 428.0,46.4 430.8,46.0 433.6,45.8 436.4,45.5 439.2,45.3 442.0,45.1 444.7,44.7 447.5,44.4 450.3,43.9 453.1,43.6 455.9,43.5 458.7,43.2 461.4,43.1 464.2,42.6 467.0,42.2 469.8,41.8 472.6,41.4 475.4,41.0 478.1,40.8 480.9,40.6 483.7,40.3 486.5,39.8 489.3,39.3 492.1,38.9 494.8,38.5 497.6,37.9 500.4,37.7 503.2,37.5 506.0,37.3 508.8,37.0 511.5,36.7 514.3,36.3 517.1,36.1 519.9,35.8 522.7,35.5 525.5,35.2 528.2,35.0 531.0,34.8 533.8,34.5 536.6,34.0 539.4,33.8 542.2,33.4 544.9,33.0 547.7,32.7 550.5,32.5 553.3,32.3 556.1,31.9 558.9,31.5 561.6,30.9 564.4,30.4 567.2,30.1 570.0,30.0 570.0,30.0,120" />
  
  <!-- Linea principale -->
  <polyline fill="none" stroke="#0366d6" stroke-width="2.5" stroke-linecap="round" stroke-linejoin="round" points="30.0,120.0 32.8,119.0 35.6,118.0 38.4,117.1 41.1,116.9 43.9,116.4 46.7,115.3 49.5,114.6 52.3,114.1 55.1,112.9 57.8,112.4 60.6,111.8 63.4,111.5 66.2,110.9 69.0,110.2 71.8,109.4 74.5,108.7 77.3,108.3 80.1,108.0 82.9,107.5 85.7,106.9 88.5,106.4 91.2,106.1 94.0,105.6 96.8,103.8 99.6,103.3 102.4,102.6 105.2,101.9 107.9,101.3 110.7,100.7 113.5,100.3 116.3,100.0 119.1,99.5 121.9,98.6 124.6,97.9 127.4,97.4 130.2,96.7 133.0,96.6 135.8,96.4 138.6,96.1 141.3,95.5 144.1,95.2 146.9,95.0 149.7,94.3 152.5,93.3 155.3,93.1 158.0,92.9 160.8,92.5 163.6,91.8 166.4,91.3 169.2,90.5 172.0,89.9 174.7,89.2 177.5,89.1 180.3,88.6 183.1,87.9 185.9,87.2 188.7,86.7 191.4,86.4 194.2,86.0 197.0,85.7 199.8,84.9 202.6,84.2 205.4,83.5 208.1,82.8 210.9,82.5 213.7,82.3 216.5,82.0 219.3,81.5 222.1,81.1 224.8,80.8 227.6,80.5 230.4,80.3 233.2,79.9 236.0,79.6 238.8,79.5 241.5,79.3 244.3,78.5 247.1,78.1 249.9,78.0 252.7,77.7 255.5,77.6 258.2,77.6 261.0,89.7 263.8,88.5 266.6,87.5 269.4,86.3 272.2,83.0 274.9,80.7 277.7,78.3 280.5,77.3 283.3,76.3 286.1,74.6 288.9,72.7 291.6,71.4 294.4,70.9 297.2,70.4 300.0,69.1 302.8,68.1 305.6,67.5 308.4,66.7 311.1,66.4 313.9,66.2 316.7,65.5 319.5,64.4 322.3,63.6 325.1,62.8 327.8,61.9 330.6,61.4 333.4,61.1 336.2,60.3 339.0,59.6 341.8,59.0 344.5,58.4 347.3,58.2 350.1,58.0 352.9,57.6 355.7,57.0 358.5,56.6 361.2,56.1 364.0,55.8 366.8,55.4 369.6,55.1 372.4,54.8 375.2,54.5 377.9,54.2 380.7,53.5 383.5,53.1 386.3,52.5 389.1,52.2 391.9,51.9 394.6,51.6 397.4,51.3 400.2,51.0 403.0,50.2 405.8,49.6 408.6,48.9 411.3,48.6 414.1,48.5 416.9,48.2 419.7,47.8 422.5,47.3 425.3,46.9 428.0,46.4 430.8,46.0 433.6,45.8 436.4,45.5 439.2,45.3 442.0,45.1 444.7,44.7 447.5,44.4 450.3,43.9 453.1,43.6 455.9,43.5 458.7,43.2 461.4,43.1 464.2,42.6 467.0,42.2 469.8,41.8 472.6,41.4 475.4,41.0 478.1,40.8 480.9,40.6 483.7,40.3 486.5,39.8 489.3,39.3 492.1,38.9 494.8,38.5 497.6,37.9 500.4,37.7 503.2,37.5 506.0,37.3 508.8,37.0 511.5,36.7 514.3,36.3 517.1,36.1 519.9,35.8 522.7,35.5 525.5,35.2 528.2,35.0 531.0,34.8 533.8,34.5 536.6,34.0 539.4,33.8 542.2,33.4 544.9,33.0 547.7,32.7 550.5,32.5 553.3,32.3 556.1,31.9 558.9,31.5 561.6,30.9 564.4,30.4 567.2,30.1 570.0,30.0" />
  
  <!-- Punto finale luminoso -->
  <circle cx="570.0" cy="30.0" r="4" fill="#ffffff" stroke="#0366d6" stroke-width="2.5" />
</svg>