<svg width="600" height="150" viewBox="0 0 600 150" xmlns="http://www.w3.org/2000/svg">
  <defs>
    <filter id="shadow2" x="-2%" y="-2%" width="104%" height="108%">
      <feDropShadow dx="0" dy="2" stdDeviation="3" flood-opacity="0.1" />
    </filter>
    <linearGradient id="fillGrad" x1="0" y1="0" x2="0" y2="1">
      <stop offset="0%" stop-color="#0366d6" stop-opacity="0.3"/>
      <stop offset="100%" stop-color="#0366d6" stop-opacity="0.02"/>
    </linearGradient>
  </defs>
  <rect width="600" height="150" rx="12" fill="#ffffff" filter="url(#shadow2)" stroke="#e1e4e8" stroke-width="1"/>
  <text x="20" y="24" fill="#2b3137" font-family="-apple-system,BlinkMacSystemFont,'Segoe UI',Helvetica,Arial,sans-serif" font-size="14" font-weight="600">📈 Download Growth (Actual: 78.1k)</text>
  
  <!-- Area sotto la linea -->
  <polygon fill="url(#fillGrad)" points="30.0,120.0,120 30.0,120.0 32.6,119.1 35.1,118.1 37.7,117.3 40.2,117.0 42.8,116.6 45.4,115.5 47.9,114.8 50.5,114.4 53.0,113.3 55.6,112.8 58.2,112.2 60.7,111.9 63.3,111.4 65.8,110.7 68.4,109.9 70.9,109.3 73.5,108.9 76.1,108.6 78.6,108.2 81.2,107.6 83.7,107.1 86.3,106.8 88.9,106.4 91.4,104.7 94.0,104.2 96.5,103.5 99.1,102.8 101.7,102.2 104.2,101.7 106.8,101.3 109.3,101.0 111.9,100.5 114.5,99.7 117.0,99.0 119.6,98.5 122.1,98.0 124.7,97.8 127.3,97.7 129.8,97.4 132.4,96.8 134.9,96.5 137.5,96.3 140.0,95.6 142.6,94.7 145.2,94.5 147.7,94.3 150.3,94.0 152.8,93.3 155.4,92.8 158.0,92.0 160.5,91.5 163.1,90.8 165.6,90.7 168.2,90.3 170.8,89.6 173.3,88.9 175.9,88.4 178.4,88.2 181.0,87.8 183.6,87.5 186.1,86.7 188.7,86.0 191.2,85.4 193.8,84.8 196.4,84.5 198.9,84.3 201.5,84.0 204.0,83.5 206.6,83.1 209.1,82.8 211.7,82.6 214.3,82.3 216.8,82.0 219.4,81.7 221.9,81.6 224.5,81.4 227.1,80.7 229.6,80.3 232.2,80.2 234.7,79.9 237.3,79.8 239.9,79.8 242.4,91.3 245.0,90.2 247.5,89.2 250.1,88.1 252.7,85.0 255.2,82.8 257.8,80.4 260.3,79.6 262.9,78.6 265.5,77.0 268.0,75.2 270.6,73.9 273.1,73.4 275.7,73.0 278.2,71.7 280.8,70.8 283.4,70.2 285.9,69.5 288.5,69.2 291.0,69.0 293.6,68.4 296.2,67.3 298.7,66.5 301.3,65.8 303.8,64.9 306.4,64.5 309.0,64.2 311.5,63.4 314.1,62.8 316.6,62.1 319.2,61.6 321.8,61.4 324.3,61.2 326.9,60.8 329.4,60.3 332.0,59.9 334.5,59.4 337.1,59.1 339.7,58.8 342.2,58.5 344.8,58.1 347.3,57.9 349.9,57.6 352.5,57.0 355.0,56.6 357.6,56.0 360.1,55.7 362.7,55.4 365.3,55.2 367.8,54.9 370.4,54.6 372.9,53.8 375.5,53.2 378.1,52.6 380.6,52.3 383.2,52.2 385.7,51.9 388.3,51.5 390.9,51.1 393.4,50.7 396.0,50.2 398.5,49.8 401.1,49.7 403.6,49.4 406.2,49.2 408.8,49.0 411.3,48.6 413.9,48.3 416.4,47.8 419.0,47.6 421.6,47.4 424.1,47.2 426.7,47.1 429.2,46.6 431.8,46.3 434.4,45.9 436.9,45.5 439.5,45.2 442.0,44.9 444.6,44.7 447.2,44.5 449.7,44.0 452.3,43.5 454.8,43.1 457.4,42.8 460.0,42.1 462.5,42.0 465.1,41.8 467.6,41.6 470.2,41.3 472.7,41.0 475.3,40.7 477.9,40.4 480.4,40.1 483.0,39.9 485.5,39.6 488.1,39.4 490.7,39.3 493.2,39.0 495.8,38.5 498.3,38.3 500.9,37.9 503.5,37.5 506.0,37.2 508.6,37.1 511.1,36.8 513.7,36.5 516.3,36.1 518.8,35.5 521.4,35.1 523.9,34.8 526.5,34.7 529.1,34.2 531.6,33.9 534.2,33.7 536.7,33.5 539.3,33.0 541.8,32.9 544.4,32.6 547.0,32.4 549.5,32.1 552.1,31.8 554.6,31.5 557.2,31.1 559.8,30.7 562.3,30.6 564.9,30.5 567.4,30.3 570.0,30.0 570.0,30.0,120" />
  
  <!-- Linea principale -->
  <polyline fill="none" stroke="#0366d6" stroke-width="2.5" stroke-linecap="round" stroke-linejoin="round" points="30.0,120.0 32.6,119.1 35.1,118.1 37.7,117.3 40.2,117.0 42.8,116.6 45.4,115.5 47.9,114.8 50.5,114.4 53.0,113.3 55.6,112.8 58.2,112.2 60.7,111.9 63.3,111.4 65.8,110.7 68.4,109.9 70.9,109.3 73.5,108.9 76.1,108.6 78.6,108.2 81.2,107.6 83.7,107.1 86.3,106.8 88.9,106.4 91.4,104.7 94.0,104.2 96.5,103.5 99.1,102.8 101.7,102.2 104.2,101.7 106.8,101.3 109.3,101.0 111.9,100.5 114.5,99.7 117.0,99.0 119.6,98.5 122.1,98.0 124.7,97.8 127.3,97.7 129.8,97.4 132.4,96.8 134.9,96.5 137.5,96.3 140.0,95.6 142.6,94.7 145.2,94.5 147.7,94.3 150.3,94.0 152.8,93.3 155.4,92.8 158.0,92.0 160.5,91.5 163.1,90.8 165.6,90.7 168.2,90.3 170.8,89.6 173.3,88.9 175.9,88.4 178.4,88.2 181.0,87.8 183.6,87.5 186.1,86.7 188.7,86.0 191.2,85.4 193.8,84.8 196.4,84.5 198.9,84.3 201.5,84.0 204.0,83.5 206.6,83.1 209.1,82.8 211.7,82.6 214.3,82.3 216.8,82.0 219.4,81.7 221.9,81.6 224.5,81.4 227.1,80.7 229.6,80.3 232.2,80.2 234.7,79.9 237.3,79.8 239.9,79.8 242.4,91.3 245.0,90.2 247.5,89.2 250.1,88.1 252.7,85.0 255.2,82.8 257.8,80.4 260.3,79.6 262.9,78.6 265.5,77.0 268.0,75.2 270.6,73.9 273.1,73.4 275.7,73.0 278.2,71.7 280.8,70.8 283.4,70.2 285.9,69.5 288.5,69.2 291.0,69.0 293.6,68.4 296.2,67.3 298.7,66.5 301.3,65.8 303.8,64.9 306.4,64.5 309.0,64.2 311.5,63.4 314.1,62.8 316.6,62.1 319.2,61.6 321.8,61.4 324.3,61.2 326.9,60.8 329.4,60.3 332.0,59.9 334.5,59.4 337.1,59.1 339.7,58.8 342.2,58.5 344.8,58.1 347.3,57.9 349.9,57.6 352.5,57.0 355.0,56.6 357.6,56.0 360.1,55.7 362.7,55.4 365.3,55.2 367.8,54.9 370.4,54.6 372.9,53.8 375.5,53.2 378.1,52.6 380.6,52.3 383.2,52.2 385.7,51.9 388.3,51.5 390.9,51.1 393.4,50.7 396.0,50.2 398.5,49.8 401.1,49.7 403.6,49.4 406.2,49.2 408.8,49.0 411.3,48.6 413.9,48.3 416.4,47.8 419.0,47.6 421.6,47.4 424.1,47.2 426.7,47.1 429.2,46.6 431.8,46.3 434.4,45.9 436.9,45.5 439.5,45.2 442.0,44.9 444.6,44.7 447.2,44.5 449.7,44.0 452.3,43.5 454.8,43.1 457.4,42.8 460.0,42.1 462.5,42.0 465.1,41.8 467.6,41.6 470.2,41.3 472.7,41.0 475.3,40.7 477.9,40.4 480.4,40.1 483.0,39.9 485.5,39.6 488.1,39.4 490.7,39.3 493.2,39.0 495.8,38.5 498.3,38.3 500.9,37.9 503.5,37.5 506.0,37.2 508.6,37.1 511.1,36.8 513.7,36.5 516.3,36.1 518.8,35.5 521.4,35.1 523.9,34.8 526.5,34.7 529.1,34.2 531.6,33.9 534.2,33.7 536.7,33.5 539.3,33.0 541.8,32.9 544.4,32.6 547.0,32.4 549.5,32.1 552.1,31.8 554.6,31.5 557.2,31.1 559.8,30.7 562.3,30.6 564.9,30.5 567.4,30.3 570.0,30.0" />
  
  <!-- Punto finale luminoso -->
  <circle cx="570.0" cy="30.0" r="4" fill="#ffffff" stroke="#0366d6" stroke-width="2.5" />
</svg>