<svg width="600" height="150" viewBox="0 0 600 150" xmlns="http://www.w3.org/2000/svg">
  <defs>
    <filter id="shadow2" x="-2%" y="-2%" width="104%" height="108%">
      <feDropShadow dx="0" dy="2" stdDeviation="3" flood-opacity="0.1" />
    </filter>
    <linearGradient id="fillGrad" x1="0" y1="0" x2="0" y2="1">
      <stop offset="0%" stop-color="#0366d6" stop-opacity="0.3"/>
      <stop offset="100%" stop-color="#0366d6" stop-opacity="0.02"/>
    </linearGradient>
  </defs>
  <rect width="600" height="150" rx="12" fill="#ffffff" filter="url(#shadow2)" stroke="#e1e4e8" stroke-width="1"/>
  <text x="20" y="24" fill="#2b3137" font-family="-apple-system,BlinkMacSystemFont,'Segoe UI',Helvetica,Arial,sans-serif" font-size="14" font-weight="600">📈 Download Growth (Actual: 77.8k)</text>
  
  <!-- Area sotto la linea -->
  <polygon fill="url(#fillGrad)" points="30.0,120.0,120 30.0,120.0 32.6,119.1 35.3,118.1 37.9,117.2 40.6,117.0 43.2,116.5 45.9,115.5 48.5,114.7 51.2,114.3 53.8,113.2 56.5,112.6 59.1,112.1 61.8,111.7 64.4,111.2 67.1,110.5 69.7,109.7 72.4,109.1 75.0,108.7 77.6,108.4 80.3,107.9 82.9,107.3 85.6,106.8 88.2,106.6 90.9,106.1 93.5,104.4 96.2,103.8 98.8,103.2 101.5,102.5 104.1,101.9 106.8,101.3 109.4,100.9 112.1,100.6 114.7,100.2 117.4,99.3 120.0,98.6 122.6,98.1 125.3,97.5 127.9,97.4 130.6,97.2 133.2,96.9 135.9,96.3 138.5,96.0 141.2,95.8 143.8,95.2 146.5,94.2 149.1,94.0 151.8,93.8 154.4,93.5 157.1,92.7 159.7,92.2 162.4,91.5 165.0,90.9 167.6,90.2 170.3,90.1 172.9,89.7 175.6,89.0 178.2,88.3 180.9,87.8 183.5,87.5 186.2,87.2 188.8,86.9 191.5,86.1 194.1,85.4 196.8,84.7 199.4,84.1 202.1,83.7 204.7,83.5 207.4,83.3 210.0,82.7 212.6,82.4 215.3,82.1 217.9,81.8 220.6,81.6 223.2,81.2 225.9,81.0 228.5,80.8 231.2,80.6 233.8,79.9 236.5,79.5 239.1,79.4 241.8,79.1 244.4,79.0 247.1,79.0 249.7,90.7 252.4,89.6 255.0,88.5 257.6,87.4 260.3,84.3 262.9,82.0 265.6,79.6 268.2,78.7 270.9,77.7 273.5,76.1 276.2,74.3 278.8,73.0 281.5,72.5 284.1,72.0 286.8,70.7 289.4,69.8 292.1,69.2 294.7,68.4 297.4,68.1 300.0,68.0 302.6,67.3 305.3,66.2 307.9,65.5 310.6,64.7 313.2,63.8 315.9,63.4 318.5,63.0 321.2,62.3 323.8,61.6 326.5,61.0 329.1,60.4 331.8,60.2 334.4,60.0 337.1,59.6 339.7,59.1 342.4,58.6 345.0,58.2 347.6,57.9 350.3,57.5 352.9,57.2 355.6,56.9 358.2,56.6 360.9,56.3 363.5,55.7 366.2,55.3 368.8,54.8 371.5,54.4 374.1,54.1 376.8,53.9 379.4,53.6 382.1,53.3 384.7,52.5 387.4,51.9 390.0,51.2 392.6,50.9 395.3,50.8 397.9,50.5 400.6,50.1 403.2,49.7 405.9,49.3 408.5,48.8 411.2,48.4 413.8,48.3 416.5,48.0 419.1,47.8 421.8,47.5 424.4,47.2 427.1,46.9 429.7,46.4 432.4,46.2 435.0,46.0 437.6,45.7 440.3,45.6 442.9,45.1 445.6,44.8 448.2,44.4 450.9,44.0 453.5,43.6 456.2,43.4 458.8,43.2 461.5,43.0 464.1,42.4 466.8,41.9 469.4,41.6 472.1,41.2 474.7,40.6 477.4,40.4 480.0,40.2 482.6,40.1 485.3,39.7 487.9,39.4 490.6,39.1 493.2,38.8 495.9,38.5 498.5,38.3 501.2,38.0 503.8,37.8 506.5,37.6 509.1,37.3 511.8,36.9 514.4,36.6 517.1,36.3 519.7,35.9 522.4,35.6 525.0,35.4 527.6,35.1 530.3,34.8 532.9,34.4 535.6,33.8 538.2,33.4 540.9,33.1 543.5,33.0 546.2,32.5 548.8,32.1 551.5,31.9 554.1,31.7 556.8,31.3 559.4,31.1 562.1,30.8 564.7,30.6 567.4,30.4 570.0,30.0 570.0,30.0,120" />
  
  <!-- Linea principale -->
  <polyline fill="none" stroke="#0366d6" stroke-width="2.5" stroke-linecap="round" stroke-linejoin="round" points="30.0,120.0 32.6,119.1 35.3,118.1 37.9,117.2 40.6,117.0 43.2,116.5 45.9,115.5 48.5,114.7 51.2,114.3 53.8,113.2 56.5,112.6 59.1,112.1 61.8,111.7 64.4,111.2 67.1,110.5 69.7,109.7 72.4,109.1 75.0,108.7 77.6,108.4 80.3,107.9 82.9,107.3 85.6,106.8 88.2,106.6 90.9,106.1 93.5,104.4 96.2,103.8 98.8,103.2 101.5,102.5 104.1,101.9 106.8,101.3 109.4,100.9 112.1,100.6 114.7,100.2 117.4,99.3 120.0,98.6 122.6,98.1 125.3,97.5 127.9,97.4 130.6,97.2 133.2,96.9 135.9,96.3 138.5,96.0 141.2,95.8 143.8,95.2 146.5,94.2 149.1,94.0 151.8,93.8 154.4,93.5 157.1,92.7 159.7,92.2 162.4,91.5 165.0,90.9 167.6,90.2 170.3,90.1 172.9,89.7 175.6,89.0 178.2,88.3 180.9,87.8 183.5,87.5 186.2,87.2 188.8,86.9 191.5,86.1 194.1,85.4 196.8,84.7 199.4,84.1 202.1,83.7 204.7,83.5 207.4,83.3 210.0,82.7 212.6,82.4 215.3,82.1 217.9,81.8 220.6,81.6 223.2,81.2 225.9,81.0 228.5,80.8 231.2,80.6 233.8,79.9 236.5,79.5 239.1,79.4 241.8,79.1 244.4,79.0 247.1,79.0 249.7,90.7 252.4,89.6 255.0,88.5 257.6,87.4 260.3,84.3 262.9,82.0 265.6,79.6 268.2,78.7 270.9,77.7 273.5,76.1 276.2,74.3 278.8,73.0 281.5,72.5 284.1,72.0 286.8,70.7 289.4,69.8 292.1,69.2 294.7,68.4 297.4,68.1 300.0,68.0 302.6,67.3 305.3,66.2 307.9,65.5 310.6,64.7 313.2,63.8 315.9,63.4 318.5,63.0 321.2,62.3 323.8,61.6 326.5,61.0 329.1,60.4 331.8,60.2 334.4,60.0 337.1,59.6 339.7,59.1 342.4,58.6 345.0,58.2 347.6,57.9 350.3,57.5 352.9,57.2 355.6,56.9 358.2,56.6 360.9,56.3 363.5,55.7 366.2,55.3 368.8,54.8 371.5,54.4 374.1,54.1 376.8,53.9 379.4,53.6 382.1,53.3 384.7,52.5 387.4,51.9 390.0,51.2 392.6,50.9 395.3,50.8 397.9,50.5 400.6,50.1 403.2,49.7 405.9,49.3 408.5,48.8 411.2,48.4 413.8,48.3 416.5,48.0 419.1,47.8 421.8,47.5 424.4,47.2 427.1,46.9 429.7,46.4 432.4,46.2 435.0,46.0 437.6,45.7 440.3,45.6 442.9,45.1 445.6,44.8 448.2,44.4 450.9,44.0 453.5,43.6 456.2,43.4 458.8,43.2 461.5,43.0 464.1,42.4 466.8,41.9 469.4,41.6 472.1,41.2 474.7,40.6 477.4,40.4 480.0,40.2 482.6,40.1 485.3,39.7 487.9,39.4 490.6,39.1 493.2,38.8 495.9,38.5 498.5,38.3 501.2,38.0 503.8,37.8 506.5,37.6 509.1,37.3 511.8,36.9 514.4,36.6 517.1,36.3 519.7,35.9 522.4,35.6 525.0,35.4 527.6,35.1 530.3,34.8 532.9,34.4 535.6,33.8 538.2,33.4 540.9,33.1 543.5,33.0 546.2,32.5 548.8,32.1 551.5,31.9 554.1,31.7 556.8,31.3 559.4,31.1 562.1,30.8 564.7,30.6 567.4,30.4 570.0,30.0" />
  
  <!-- Punto finale luminoso -->
  <circle cx="570.0" cy="30.0" r="4" fill="#ffffff" stroke="#0366d6" stroke-width="2.5" />
</svg>