<svg width="600" height="150" viewBox="0 0 600 150" xmlns="http://www.w3.org/2000/svg">
  <defs>
    <filter id="shadow2" x="-2%" y="-2%" width="104%" height="108%">
      <feDropShadow dx="0" dy="2" stdDeviation="3" flood-opacity="0.1" />
    </filter>
    <linearGradient id="fillGrad" x1="0" y1="0" x2="0" y2="1">
      <stop offset="0%" stop-color="#0366d6" stop-opacity="0.3"/>
      <stop offset="100%" stop-color="#0366d6" stop-opacity="0.02"/>
    </linearGradient>
  </defs>
  <rect width="600" height="150" rx="12" fill="#ffffff" filter="url(#shadow2)" stroke="#e1e4e8" stroke-width="1"/>
  <text x="20" y="24" fill="#2b3137" font-family="-apple-system,BlinkMacSystemFont,'Segoe UI',Helvetica,Arial,sans-serif" font-size="14" font-weight="600">📈 Download Growth (Actual: 77.5k)</text>
  
  <!-- Area sotto la linea -->
  <polygon fill="url(#fillGrad)" points="30.0,120.0,120 30.0,120.0 32.8,119.1 35.5,118.0 38.3,117.1 41.1,116.9 43.8,116.4 46.6,115.3 49.4,114.6 52.2,114.1 54.9,113.0 57.7,112.4 60.5,111.8 63.2,111.5 66.0,111.0 68.8,110.2 71.5,109.4 74.3,108.8 77.1,108.4 79.8,108.1 82.6,107.6 85.4,107.0 88.2,106.5 90.9,106.2 93.7,105.7 96.5,103.9 99.2,103.4 102.0,102.7 104.8,102.0 107.5,101.4 110.3,100.8 113.1,100.4 115.8,100.1 118.6,99.6 121.4,98.7 124.2,98.0 126.9,97.5 129.7,96.9 132.5,96.7 135.2,96.5 138.0,96.2 140.8,95.7 143.5,95.3 146.3,95.1 149.1,94.4 151.8,93.5 154.6,93.2 157.4,93.1 160.2,92.7 162.9,91.9 165.7,91.4 168.5,90.6 171.2,90.1 174.0,89.4 176.8,89.2 179.5,88.8 182.3,88.1 185.1,87.4 187.8,86.8 190.6,86.6 193.4,86.2 196.2,85.9 198.9,85.1 201.7,84.4 204.5,83.7 207.2,83.0 210.0,82.7 212.8,82.5 215.5,82.2 218.3,81.7 221.1,81.3 223.8,81.0 226.6,80.7 229.4,80.5 232.2,80.1 234.9,79.8 237.7,79.7 240.5,79.5 243.2,78.8 246.0,78.4 248.8,78.2 251.5,78.0 254.3,77.8 257.1,77.8 259.8,89.9 262.6,88.7 265.4,87.6 268.2,86.5 270.9,83.2 273.7,80.9 276.5,78.5 279.2,77.6 282.0,76.5 284.8,74.8 287.5,73.0 290.3,71.6 293.1,71.1 295.8,70.6 298.6,69.3 301.4,68.4 304.2,67.7 306.9,67.0 309.7,66.6 312.5,66.5 315.2,65.8 318.0,64.7 320.8,63.9 323.5,63.1 326.3,62.2 329.1,61.7 331.8,61.4 334.6,60.6 337.4,59.9 340.2,59.3 342.9,58.7 345.7,58.5 348.5,58.3 351.2,57.9 354.0,57.3 356.8,56.9 359.5,56.4 362.3,56.1 365.1,55.7 367.8,55.4 370.6,55.1 373.4,54.8 376.2,54.5 378.9,53.9 381.7,53.4 384.5,52.9 387.2,52.6 390.0,52.2 392.8,52.0 395.5,51.7 398.3,51.4 401.1,50.5 403.8,49.9 406.6,49.2 409.4,48.9 412.2,48.9 414.9,48.5 417.7,48.1 420.5,47.7 423.2,47.3 426.0,46.7 428.8,46.4 431.5,46.2 434.3,45.9 437.1,45.7 439.8,45.4 442.6,45.1 445.4,44.8 448.2,44.3 450.9,44.0 453.7,43.9 456.5,43.6 459.2,43.4 462.0,43.0 464.8,42.6 467.5,42.2 470.3,41.8 473.1,41.5 475.8,41.2 478.6,41.0 481.4,40.7 484.2,40.2 486.9,39.7 489.7,39.3 492.5,39.0 495.2,38.3 498.0,38.1 500.8,37.9 503.5,37.8 506.3,37.4 509.1,37.1 511.8,36.8 514.6,36.5 517.4,36.2 520.2,35.9 522.9,35.6 525.7,35.4 528.5,35.3 531.2,35.0 534.0,34.5 536.8,34.3 539.5,33.9 542.3,33.4 545.1,33.1 547.8,33.0 550.6,32.7 553.4,32.4 556.2,31.9 558.9,31.3 561.7,30.9 564.5,30.6 567.2,30.5 570.0,30.0 570.0,30.0,120" />
  
  <!-- Linea principale -->
  <polyline fill="none" stroke="#0366d6" stroke-width="2.5" stroke-linecap="round" stroke-linejoin="round" points="30.0,120.0 32.8,119.1 35.5,118.0 38.3,117.1 41.1,116.9 43.8,116.4 46.6,115.3 49.4,114.6 52.2,114.1 54.9,113.0 57.7,112.4 60.5,111.8 63.2,111.5 66.0,111.0 68.8,110.2 71.5,109.4 74.3,108.8 77.1,108.4 79.8,108.1 82.6,107.6 85.4,107.0 88.2,106.5 90.9,106.2 93.7,105.7 96.5,103.9 99.2,103.4 102.0,102.7 104.8,102.0 107.5,101.4 110.3,100.8 113.1,100.4 115.8,100.1 118.6,99.6 121.4,98.7 124.2,98.0 126.9,97.5 129.7,96.9 132.5,96.7 135.2,96.5 138.0,96.2 140.8,95.7 143.5,95.3 146.3,95.1 149.1,94.4 151.8,93.5 154.6,93.2 157.4,93.1 160.2,92.7 162.9,91.9 165.7,91.4 168.5,90.6 171.2,90.1 174.0,89.4 176.8,89.2 179.5,88.8 182.3,88.1 185.1,87.4 187.8,86.8 190.6,86.6 193.4,86.2 196.2,85.9 198.9,85.1 201.7,84.4 204.5,83.7 207.2,83.0 210.0,82.7 212.8,82.5 215.5,82.2 218.3,81.7 221.1,81.3 223.8,81.0 226.6,80.7 229.4,80.5 232.2,80.1 234.9,79.8 237.7,79.7 240.5,79.5 243.2,78.8 246.0,78.4 248.8,78.2 251.5,78.0 254.3,77.8 257.1,77.8 259.8,89.9 262.6,88.7 265.4,87.6 268.2,86.5 270.9,83.2 273.7,80.9 276.5,78.5 279.2,77.6 282.0,76.5 284.8,74.8 287.5,73.0 290.3,71.6 293.1,71.1 295.8,70.6 298.6,69.3 301.4,68.4 304.2,67.7 306.9,67.0 309.7,66.6 312.5,66.5 315.2,65.8 318.0,64.7 320.8,63.9 323.5,63.1 326.3,62.2 329.1,61.7 331.8,61.4 334.6,60.6 337.4,59.9 340.2,59.3 342.9,58.7 345.7,58.5 348.5,58.3 351.2,57.9 354.0,57.3 356.8,56.9 359.5,56.4 362.3,56.1 365.1,55.7 367.8,55.4 370.6,55.1 373.4,54.8 376.2,54.5 378.9,53.9 381.7,53.4 384.5,52.9 387.2,52.6 390.0,52.2 392.8,52.0 395.5,51.7 398.3,51.4 401.1,50.5 403.8,49.9 406.6,49.2 409.4,48.9 412.2,48.9 414.9,48.5 417.7,48.1 420.5,47.7 423.2,47.3 426.0,46.7 428.8,46.4 431.5,46.2 434.3,45.9 437.1,45.7 439.8,45.4 442.6,45.1 445.4,44.8 448.2,44.3 450.9,44.0 453.7,43.9 456.5,43.6 459.2,43.4 462.0,43.0 464.8,42.6 467.5,42.2 470.3,41.8 473.1,41.5 475.8,41.2 478.6,41.0 481.4,40.7 484.2,40.2 486.9,39.7 489.7,39.3 492.5,39.0 495.2,38.3 498.0,38.1 500.8,37.9 503.5,37.8 506.3,37.4 509.1,37.1 511.8,36.8 514.6,36.5 517.4,36.2 520.2,35.9 522.9,35.6 525.7,35.4 528.5,35.3 531.2,35.0 534.0,34.5 536.8,34.3 539.5,33.9 542.3,33.4 545.1,33.1 547.8,33.0 550.6,32.7 553.4,32.4 556.2,31.9 558.9,31.3 561.7,30.9 564.5,30.6 567.2,30.5 570.0,30.0" />
  
  <!-- Punto finale luminoso -->
  <circle cx="570.0" cy="30.0" r="4" fill="#ffffff" stroke="#0366d6" stroke-width="2.5" />
</svg>