<svg width="600" height="150" viewBox="0 0 600 150" xmlns="http://www.w3.org/2000/svg">
  <defs>
    <filter id="shadow2" x="-2%" y="-2%" width="104%" height="108%">
      <feDropShadow dx="0" dy="2" stdDeviation="3" flood-opacity="0.1" />
    </filter>
    <linearGradient id="fillGrad" x1="0" y1="0" x2="0" y2="1">
      <stop offset="0%" stop-color="#0366d6" stop-opacity="0.3"/>
      <stop offset="100%" stop-color="#0366d6" stop-opacity="0.02"/>
    </linearGradient>
  </defs>
  <rect width="600" height="150" rx="12" fill="#ffffff" filter="url(#shadow2)" stroke="#e1e4e8" stroke-width="1"/>
  <text x="20" y="24" fill="#2b3137" font-family="-apple-system,BlinkMacSystemFont,'Segoe UI',Helvetica,Arial,sans-serif" font-size="14" font-weight="600">📈 Download Growth (Actual: 77.5k)</text>
  
  <!-- Area sotto la linea -->
  <polygon fill="url(#fillGrad)" points="30.0,120.0,120 30.0,120.0 32.8,119.0 35.6,118.0 38.4,117.1 41.2,116.9 44.0,116.4 46.8,115.3 49.6,114.6 52.4,114.1 55.2,112.9 58.0,112.4 60.8,111.8 63.6,111.5 66.4,110.9 69.2,110.2 72.0,109.4 74.8,108.7 77.6,108.3 80.4,108.0 83.2,107.5 86.0,106.9 88.8,106.4 91.6,106.1 94.4,105.6 97.2,103.8 99.9,103.3 102.7,102.6 105.5,101.9 108.3,101.2 111.1,100.6 113.9,100.3 116.7,100.0 119.5,99.5 122.3,98.6 125.1,97.8 127.9,97.3 130.7,96.7 133.5,96.5 136.3,96.4 139.1,96.1 141.9,95.5 144.7,95.2 147.5,94.9 150.3,94.3 153.1,93.3 155.9,93.1 158.7,92.9 161.5,92.5 164.3,91.7 167.1,91.2 169.9,90.4 172.7,89.9 175.5,89.2 178.3,89.0 181.1,88.6 183.9,87.9 186.7,87.2 189.5,86.6 192.3,86.4 195.1,86.0 197.9,85.7 200.7,84.9 203.5,84.1 206.3,83.5 209.1,82.8 211.9,82.5 214.7,82.2 217.5,82.0 220.3,81.4 223.1,81.0 225.9,80.7 228.7,80.5 231.5,80.2 234.2,79.8 237.0,79.6 239.8,79.4 242.6,79.2 245.4,78.5 248.2,78.1 251.0,77.9 253.8,77.7 256.6,77.5 259.4,77.5 262.2,89.7 265.0,88.5 267.8,87.4 270.6,86.3 273.4,83.0 276.2,80.7 279.0,78.2 281.8,77.3 284.6,76.2 287.4,74.5 290.2,72.7 293.0,71.3 295.8,70.8 298.6,70.3 301.4,69.0 304.2,68.0 307.0,67.4 309.8,66.6 312.6,66.3 315.4,66.2 318.2,65.5 321.0,64.3 323.8,63.5 326.6,62.7 329.4,61.8 332.2,61.4 335.0,61.0 337.8,60.2 340.6,59.5 343.4,58.9 346.2,58.3 349.0,58.1 351.8,57.9 354.6,57.5 357.4,56.9 360.2,56.5 363.0,56.0 365.8,55.7 368.5,55.3 371.3,55.0 374.1,54.7 376.9,54.4 379.7,54.1 382.5,53.5 385.3,53.0 388.1,52.4 390.9,52.1 393.7,51.8 396.5,51.5 399.3,51.3 402.1,51.0 404.9,50.1 407.7,49.5 410.5,48.8 413.3,48.5 416.1,48.4 418.9,48.1 421.7,47.7 424.5,47.2 427.3,46.8 430.1,46.3 432.9,45.9 435.7,45.7 438.5,45.4 441.3,45.2 444.1,45.0 446.9,44.6 449.7,44.3 452.5,43.8 455.3,43.5 458.1,43.4 460.9,43.1 463.7,42.9 466.5,42.5 469.3,42.1 472.1,41.7 474.9,41.3 477.7,40.9 480.5,40.7 483.3,40.5 486.1,40.2 488.9,39.7 491.7,39.2 494.5,38.8 497.3,38.4 500.1,37.8 502.8,37.6 505.6,37.4 508.4,37.2 511.2,36.9 514.0,36.6 516.8,36.2 519.6,36.0 522.4,35.7 525.2,35.4 528.0,35.1 530.8,34.9 533.6,34.7 536.4,34.4 539.2,33.9 542.0,33.7 544.8,33.3 547.6,32.9 550.4,32.6 553.2,32.4 556.0,32.1 558.8,31.8 561.6,31.4 564.4,30.8 567.2,30.3 570.0,30.0 570.0,30.0,120" />
  
  <!-- Linea principale -->
  <polyline fill="none" stroke="#0366d6" stroke-width="2.5" stroke-linecap="round" stroke-linejoin="round" points="30.0,120.0 32.8,119.0 35.6,118.0 38.4,117.1 41.2,116.9 44.0,116.4 46.8,115.3 49.6,114.6 52.4,114.1 55.2,112.9 58.0,112.4 60.8,111.8 63.6,111.5 66.4,110.9 69.2,110.2 72.0,109.4 74.8,108.7 77.6,108.3 80.4,108.0 83.2,107.5 86.0,106.9 88.8,106.4 91.6,106.1 94.4,105.6 97.2,103.8 99.9,103.3 102.7,102.6 105.5,101.9 108.3,101.2 111.1,100.6 113.9,100.3 116.7,100.0 119.5,99.5 122.3,98.6 125.1,97.8 127.9,97.3 130.7,96.7 133.5,96.5 136.3,96.4 139.1,96.1 141.9,95.5 144.7,95.2 147.5,94.9 150.3,94.3 153.1,93.3 155.9,93.1 158.7,92.9 161.5,92.5 164.3,91.7 167.1,91.2 169.9,90.4 172.7,89.9 175.5,89.2 178.3,89.0 181.1,88.6 183.9,87.9 186.7,87.2 189.5,86.6 192.3,86.4 195.1,86.0 197.9,85.7 200.7,84.9 203.5,84.1 206.3,83.5 209.1,82.8 211.9,82.5 214.7,82.2 217.5,82.0 220.3,81.4 223.1,81.0 225.9,80.7 228.7,80.5 231.5,80.2 234.2,79.8 237.0,79.6 239.8,79.4 242.6,79.2 245.4,78.5 248.2,78.1 251.0,77.9 253.8,77.7 256.6,77.5 259.4,77.5 262.2,89.7 265.0,88.5 267.8,87.4 270.6,86.3 273.4,83.0 276.2,80.7 279.0,78.2 281.8,77.3 284.6,76.2 287.4,74.5 290.2,72.7 293.0,71.3 295.8,70.8 298.6,70.3 301.4,69.0 304.2,68.0 307.0,67.4 309.8,66.6 312.6,66.3 315.4,66.2 318.2,65.5 321.0,64.3 323.8,63.5 326.6,62.7 329.4,61.8 332.2,61.4 335.0,61.0 337.8,60.2 340.6,59.5 343.4,58.9 346.2,58.3 349.0,58.1 351.8,57.9 354.6,57.5 357.4,56.9 360.2,56.5 363.0,56.0 365.8,55.7 368.5,55.3 371.3,55.0 374.1,54.7 376.9,54.4 379.7,54.1 382.5,53.5 385.3,53.0 388.1,52.4 390.9,52.1 393.7,51.8 396.5,51.5 399.3,51.3 402.1,51.0 404.9,50.1 407.7,49.5 410.5,48.8 413.3,48.5 416.1,48.4 418.9,48.1 421.7,47.7 424.5,47.2 427.3,46.8 430.1,46.3 432.9,45.9 435.7,45.7 438.5,45.4 441.3,45.2 444.1,45.0 446.9,44.6 449.7,44.3 452.5,43.8 455.3,43.5 458.1,43.4 460.9,43.1 463.7,42.9 466.5,42.5 469.3,42.1 472.1,41.7 474.9,41.3 477.7,40.9 480.5,40.7 483.3,40.5 486.1,40.2 488.9,39.7 491.7,39.2 494.5,38.8 497.3,38.4 500.1,37.8 502.8,37.6 505.6,37.4 508.4,37.2 511.2,36.9 514.0,36.6 516.8,36.2 519.6,36.0 522.4,35.7 525.2,35.4 528.0,35.1 530.8,34.9 533.6,34.7 536.4,34.4 539.2,33.9 542.0,33.7 544.8,33.3 547.6,32.9 550.4,32.6 553.2,32.4 556.0,32.1 558.8,31.8 561.6,31.4 564.4,30.8 567.2,30.3 570.0,30.0" />
  
  <!-- Punto finale luminoso -->
  <circle cx="570.0" cy="30.0" r="4" fill="#ffffff" stroke="#0366d6" stroke-width="2.5" />
</svg>