<svg width="600" height="150" viewBox="0 0 600 150" xmlns="http://www.w3.org/2000/svg">
  <defs>
    <filter id="shadow2" x="-2%" y="-2%" width="104%" height="108%">
      <feDropShadow dx="0" dy="2" stdDeviation="3" flood-opacity="0.1" />
    </filter>
    <linearGradient id="fillGrad" x1="0" y1="0" x2="0" y2="1">
      <stop offset="0%" stop-color="#0366d6" stop-opacity="0.3"/>
      <stop offset="100%" stop-color="#0366d6" stop-opacity="0.02"/>
    </linearGradient>
  </defs>
  <rect width="600" height="150" rx="12" fill="#ffffff" filter="url(#shadow2)" stroke="#e1e4e8" stroke-width="1"/>
  <text x="20" y="24" fill="#2b3137" font-family="-apple-system,BlinkMacSystemFont,'Segoe UI',Helvetica,Arial,sans-serif" font-size="14" font-weight="600">📈 Download Growth (Actual: 77.9k)</text>
  
  <!-- Area sotto la linea -->
  <polygon fill="url(#fillGrad)" points="30.0,120.0,120 30.0,120.0 32.6,119.1 35.3,118.1 37.9,117.2 40.5,117.0 43.2,116.5 45.8,115.5 48.4,114.8 51.1,114.3 53.7,113.2 56.3,112.6 59.0,112.1 61.6,111.8 64.2,111.3 66.9,110.5 69.5,109.8 72.1,109.1 74.8,108.7 77.4,108.5 80.0,108.0 82.7,107.4 85.3,106.9 88.0,106.6 90.6,106.1 93.2,104.4 95.9,103.9 98.5,103.2 101.1,102.5 103.8,101.9 106.4,101.4 109.0,101.0 111.7,100.7 114.3,100.2 116.9,99.4 119.6,98.7 122.2,98.2 124.8,97.6 127.5,97.4 130.1,97.3 132.7,97.0 135.4,96.4 138.0,96.1 140.6,95.9 143.3,95.2 145.9,94.3 148.5,94.1 151.2,93.9 153.8,93.5 156.4,92.8 159.1,92.3 161.7,91.6 164.3,91.0 167.0,90.3 169.6,90.2 172.2,89.8 174.9,89.1 177.5,88.4 180.1,87.9 182.8,87.6 185.4,87.3 188.0,87.0 190.7,86.2 193.3,85.5 196.0,84.8 198.6,84.2 201.2,83.9 203.9,83.7 206.5,83.4 209.1,82.9 211.8,82.5 214.4,82.2 217.0,82.0 219.7,81.7 222.3,81.3 224.9,81.1 227.6,80.9 230.2,80.7 232.8,80.0 235.5,79.7 238.1,79.5 240.7,79.3 243.4,79.1 246.0,79.1 248.6,90.8 251.3,89.7 253.9,88.6 256.5,87.6 259.2,84.4 261.8,82.1 264.4,79.8 267.1,78.9 269.7,77.9 272.3,76.2 275.0,74.5 277.6,73.1 280.2,72.7 282.9,72.2 285.5,70.9 288.1,70.0 290.8,69.4 293.4,68.6 296.0,68.3 298.7,68.2 301.3,67.5 304.0,66.4 306.6,65.6 309.2,64.9 311.9,64.0 314.5,63.5 317.1,63.2 319.8,62.5 322.4,61.8 325.0,61.2 327.7,60.6 330.3,60.4 332.9,60.2 335.6,59.8 338.2,59.3 340.8,58.8 343.5,58.4 346.1,58.1 348.7,57.8 351.4,57.4 354.0,57.1 356.6,56.9 359.3,56.5 361.9,55.9 364.5,55.5 367.2,55.0 369.8,54.7 372.4,54.3 375.1,54.1 377.7,53.8 380.3,53.5 383.0,52.7 385.6,52.1 388.2,51.4 390.9,51.2 393.5,51.1 396.1,50.7 398.8,50.4 401.4,49.9 404.0,49.5 406.7,49.0 409.3,48.7 412.0,48.5 414.6,48.2 417.2,48.0 419.9,47.8 422.5,47.4 425.1,47.1 427.8,46.6 430.4,46.4 433.0,46.2 435.7,46.0 438.3,45.8 440.9,45.4 443.6,45.0 446.2,44.6 448.8,44.3 451.5,43.9 454.1,43.6 456.7,43.5 459.4,43.2 462.0,42.7 464.6,42.2 467.3,41.9 469.9,41.5 472.5,40.8 475.2,40.7 477.8,40.5 480.4,40.3 483.1,40.0 485.7,39.7 488.3,39.4 491.0,39.1 493.6,38.8 496.2,38.6 498.9,38.3 501.5,38.1 504.1,37.9 506.8,37.6 509.4,37.1 512.0,36.9 514.7,36.6 517.3,36.1 520.0,35.8 522.6,35.7 525.2,35.4 527.9,35.1 530.5,34.7 533.1,34.1 535.8,33.6 538.4,33.4 541.0,33.3 543.7,32.8 546.3,32.4 548.9,32.2 551.6,32.0 554.2,31.6 556.8,31.4 559.5,31.1 562.1,30.9 564.7,30.7 567.4,30.3 570.0,30.0 570.0,30.0,120" />
  
  <!-- Linea principale -->
  <polyline fill="none" stroke="#0366d6" stroke-width="2.5" stroke-linecap="round" stroke-linejoin="round" points="30.0,120.0 32.6,119.1 35.3,118.1 37.9,117.2 40.5,117.0 43.2,116.5 45.8,115.5 48.4,114.8 51.1,114.3 53.7,113.2 56.3,112.6 59.0,112.1 61.6,111.8 64.2,111.3 66.9,110.5 69.5,109.8 72.1,109.1 74.8,108.7 77.4,108.5 80.0,108.0 82.7,107.4 85.3,106.9 88.0,106.6 90.6,106.1 93.2,104.4 95.9,103.9 98.5,103.2 101.1,102.5 103.8,101.9 106.4,101.4 109.0,101.0 111.7,100.7 114.3,100.2 116.9,99.4 119.6,98.7 122.2,98.2 124.8,97.6 127.5,97.4 130.1,97.3 132.7,97.0 135.4,96.4 138.0,96.1 140.6,95.9 143.3,95.2 145.9,94.3 148.5,94.1 151.2,93.9 153.8,93.5 156.4,92.8 159.1,92.3 161.7,91.6 164.3,91.0 167.0,90.3 169.6,90.2 172.2,89.8 174.9,89.1 177.5,88.4 180.1,87.9 182.8,87.6 185.4,87.3 188.0,87.0 190.7,86.2 193.3,85.5 196.0,84.8 198.6,84.2 201.2,83.9 203.9,83.7 206.5,83.4 209.1,82.9 211.8,82.5 214.4,82.2 217.0,82.0 219.7,81.7 222.3,81.3 224.9,81.1 227.6,80.9 230.2,80.7 232.8,80.0 235.5,79.7 238.1,79.5 240.7,79.3 243.4,79.1 246.0,79.1 248.6,90.8 251.3,89.7 253.9,88.6 256.5,87.6 259.2,84.4 261.8,82.1 264.4,79.8 267.1,78.9 269.7,77.9 272.3,76.2 275.0,74.5 277.6,73.1 280.2,72.7 282.9,72.2 285.5,70.9 288.1,70.0 290.8,69.4 293.4,68.6 296.0,68.3 298.7,68.2 301.3,67.5 304.0,66.4 306.6,65.6 309.2,64.9 311.9,64.0 314.5,63.5 317.1,63.2 319.8,62.5 322.4,61.8 325.0,61.2 327.7,60.6 330.3,60.4 332.9,60.2 335.6,59.8 338.2,59.3 340.8,58.8 343.5,58.4 346.1,58.1 348.7,57.8 351.4,57.4 354.0,57.1 356.6,56.9 359.3,56.5 361.9,55.9 364.5,55.5 367.2,55.0 369.8,54.7 372.4,54.3 375.1,54.1 377.7,53.8 380.3,53.5 383.0,52.7 385.6,52.1 388.2,51.4 390.9,51.2 393.5,51.1 396.1,50.7 398.8,50.4 401.4,49.9 404.0,49.5 406.7,49.0 409.3,48.7 412.0,48.5 414.6,48.2 417.2,48.0 419.9,47.8 422.5,47.4 425.1,47.1 427.8,46.6 430.4,46.4 433.0,46.2 435.7,46.0 438.3,45.8 440.9,45.4 443.6,45.0 446.2,44.6 448.8,44.3 451.5,43.9 454.1,43.6 456.7,43.5 459.4,43.2 462.0,42.7 464.6,42.2 467.3,41.9 469.9,41.5 472.5,40.8 475.2,40.7 477.8,40.5 480.4,40.3 483.1,40.0 485.7,39.7 488.3,39.4 491.0,39.1 493.6,38.8 496.2,38.6 498.9,38.3 501.5,38.1 504.1,37.9 506.8,37.6 509.4,37.1 512.0,36.9 514.7,36.6 517.3,36.1 520.0,35.8 522.6,35.7 525.2,35.4 527.9,35.1 530.5,34.7 533.1,34.1 535.8,33.6 538.4,33.4 541.0,33.3 543.7,32.8 546.3,32.4 548.9,32.2 551.6,32.0 554.2,31.6 556.8,31.4 559.5,31.1 562.1,30.9 564.7,30.7 567.4,30.3 570.0,30.0" />
  
  <!-- Punto finale luminoso -->
  <circle cx="570.0" cy="30.0" r="4" fill="#ffffff" stroke="#0366d6" stroke-width="2.5" />
</svg>