<svg width="600" height="150" viewBox="0 0 600 150" xmlns="http://www.w3.org/2000/svg">
  <defs>
    <filter id="shadow2" x="-2%" y="-2%" width="104%" height="108%">
      <feDropShadow dx="0" dy="2" stdDeviation="3" flood-opacity="0.1" />
    </filter>
    <linearGradient id="fillGrad" x1="0" y1="0" x2="0" y2="1">
      <stop offset="0%" stop-color="#0366d6" stop-opacity="0.3"/>
      <stop offset="100%" stop-color="#0366d6" stop-opacity="0.02"/>
    </linearGradient>
  </defs>
  <rect width="600" height="150" rx="12" fill="#ffffff" filter="url(#shadow2)" stroke="#e1e4e8" stroke-width="1"/>
  <text x="20" y="24" fill="#2b3137" font-family="-apple-system,BlinkMacSystemFont,'Segoe UI',Helvetica,Arial,sans-serif" font-size="14" font-weight="600">📈 Download Growth (Actual: 77.1k)</text>
  
  <!-- Area sotto la linea -->
  <polygon fill="url(#fillGrad)" points="30.0,120.0,120 30.0,120.0 32.9,119.0 35.8,117.9 38.8,117.0 41.7,116.8 44.6,116.3 47.5,115.1 50.4,114.4 53.4,113.9 56.3,112.7 59.2,112.1 62.1,111.5 65.0,111.2 67.9,110.6 70.9,109.8 73.8,109.0 76.7,108.4 79.6,107.9 82.5,107.6 85.5,107.1 88.4,106.5 91.3,105.9 94.2,105.6 97.1,105.1 100.1,103.3 103.0,102.7 105.9,102.0 108.8,101.3 111.7,100.6 114.6,100.0 117.6,99.6 120.5,99.3 123.4,98.8 126.3,97.9 129.2,97.1 132.2,96.6 135.1,95.9 138.0,95.8 140.9,95.6 143.8,95.3 146.8,94.7 149.7,94.4 152.6,94.1 155.5,93.4 158.4,92.4 161.4,92.2 164.3,92.0 167.2,91.6 170.1,90.8 173.0,90.3 175.9,89.5 178.9,88.9 181.8,88.2 184.7,88.0 187.6,87.6 190.5,86.8 193.5,86.1 196.4,85.5 199.3,85.3 202.2,84.9 205.1,84.5 208.1,83.7 211.0,82.9 213.9,82.2 216.8,81.6 219.7,81.2 222.6,81.0 225.6,80.7 228.5,80.1 231.4,79.8 234.3,79.4 237.2,79.2 240.2,78.9 243.1,78.5 246.0,78.2 248.9,78.1 251.8,77.9 254.8,77.1 257.7,76.7 260.6,76.6 263.5,76.3 266.4,76.1 269.4,76.1 272.3,88.7 275.2,87.5 278.1,86.3 281.0,85.2 283.9,81.8 286.9,79.4 289.8,76.8 292.7,75.9 295.6,74.8 298.5,73.0 301.5,71.1 304.4,69.7 307.3,69.2 310.2,68.7 313.1,67.3 316.1,66.3 319.0,65.7 321.9,64.9 324.8,64.5 327.7,64.4 330.6,63.7 333.6,62.5 336.5,61.7 339.4,60.8 342.3,59.9 345.2,59.4 348.2,59.1 351.1,58.3 354.0,57.5 356.9,56.9 359.8,56.3 362.8,56.0 365.7,55.9 368.6,55.4 371.5,54.8 374.4,54.4 377.4,53.9 380.3,53.6 383.2,53.2 386.1,52.8 389.0,52.5 391.9,52.2 394.9,51.9 397.8,51.3 400.7,50.8 403.6,50.2 406.5,49.9 409.5,49.5 412.4,49.3 415.3,49.0 418.2,48.7 421.1,47.8 424.1,47.2 427.0,46.4 429.9,46.1 432.8,46.0 435.7,45.7 438.6,45.3 441.6,44.8 444.5,44.4 447.4,43.8 450.3,43.4 453.2,43.3 456.2,43.0 459.1,42.7 462.0,42.5 464.9,42.1 467.8,41.8 470.8,41.3 473.7,41.0 476.6,40.8 479.5,40.6 482.4,40.4 485.4,39.9 488.3,39.6 491.2,39.1 494.1,38.7 497.0,38.3 499.9,38.0 502.9,37.9 505.8,37.6 508.7,37.0 511.6,36.5 514.5,36.1 517.5,35.7 520.4,35.0 523.3,34.9 526.2,34.7 529.1,34.5 532.1,34.1 535.0,33.8 537.9,33.5 540.8,33.2 543.7,32.9 546.6,32.6 549.6,32.3 552.5,32.1 555.4,31.9 558.3,31.6 561.2,31.1 564.2,30.8 567.1,30.4 570.0,30.0 570.0,30.0,120" />
  
  <!-- Linea principale -->
  <polyline fill="none" stroke="#0366d6" stroke-width="2.5" stroke-linecap="round" stroke-linejoin="round" points="30.0,120.0 32.9,119.0 35.8,117.9 38.8,117.0 41.7,116.8 44.6,116.3 47.5,115.1 50.4,114.4 53.4,113.9 56.3,112.7 59.2,112.1 62.1,111.5 65.0,111.2 67.9,110.6 70.9,109.8 73.8,109.0 76.7,108.4 79.6,107.9 82.5,107.6 85.5,107.1 88.4,106.5 91.3,105.9 94.2,105.6 97.1,105.1 100.1,103.3 103.0,102.7 105.9,102.0 108.8,101.3 111.7,100.6 114.6,100.0 117.6,99.6 120.5,99.3 123.4,98.8 126.3,97.9 129.2,97.1 132.2,96.6 135.1,95.9 138.0,95.8 140.9,95.6 143.8,95.3 146.8,94.7 149.7,94.4 152.6,94.1 155.5,93.4 158.4,92.4 161.4,92.2 164.3,92.0 167.2,91.6 170.1,90.8 173.0,90.3 175.9,89.5 178.9,88.9 181.8,88.2 184.7,88.0 187.6,87.6 190.5,86.8 193.5,86.1 196.4,85.5 199.3,85.3 202.2,84.9 205.1,84.5 208.1,83.7 211.0,82.9 213.9,82.2 216.8,81.6 219.7,81.2 222.6,81.0 225.6,80.7 228.5,80.1 231.4,79.8 234.3,79.4 237.2,79.2 240.2,78.9 243.1,78.5 246.0,78.2 248.9,78.1 251.8,77.9 254.8,77.1 257.7,76.7 260.6,76.6 263.5,76.3 266.4,76.1 269.4,76.1 272.3,88.7 275.2,87.5 278.1,86.3 281.0,85.2 283.9,81.8 286.9,79.4 289.8,76.8 292.7,75.9 295.6,74.8 298.5,73.0 301.5,71.1 304.4,69.7 307.3,69.2 310.2,68.7 313.1,67.3 316.1,66.3 319.0,65.7 321.9,64.9 324.8,64.5 327.7,64.4 330.6,63.7 333.6,62.5 336.5,61.7 339.4,60.8 342.3,59.9 345.2,59.4 348.2,59.1 351.1,58.3 354.0,57.5 356.9,56.9 359.8,56.3 362.8,56.0 365.7,55.9 368.6,55.4 371.5,54.8 374.4,54.4 377.4,53.9 380.3,53.6 383.2,53.2 386.1,52.8 389.0,52.5 391.9,52.2 394.9,51.9 397.8,51.3 400.7,50.8 403.6,50.2 406.5,49.9 409.5,49.5 412.4,49.3 415.3,49.0 418.2,48.7 421.1,47.8 424.1,47.2 427.0,46.4 429.9,46.1 432.8,46.0 435.7,45.7 438.6,45.3 441.6,44.8 444.5,44.4 447.4,43.8 450.3,43.4 453.2,43.3 456.2,43.0 459.1,42.7 462.0,42.5 464.9,42.1 467.8,41.8 470.8,41.3 473.7,41.0 476.6,40.8 479.5,40.6 482.4,40.4 485.4,39.9 488.3,39.6 491.2,39.1 494.1,38.7 497.0,38.3 499.9,38.0 502.9,37.9 505.8,37.6 508.7,37.0 511.6,36.5 514.5,36.1 517.5,35.7 520.4,35.0 523.3,34.9 526.2,34.7 529.1,34.5 532.1,34.1 535.0,33.8 537.9,33.5 540.8,33.2 543.7,32.9 546.6,32.6 549.6,32.3 552.5,32.1 555.4,31.9 558.3,31.6 561.2,31.1 564.2,30.8 567.1,30.4 570.0,30.0" />
  
  <!-- Punto finale luminoso -->
  <circle cx="570.0" cy="30.0" r="4" fill="#ffffff" stroke="#0366d6" stroke-width="2.5" />
</svg>