<svg width="600" height="150" viewBox="0 0 600 150" xmlns="http://www.w3.org/2000/svg">
  <defs>
    <filter id="shadow2" x="-2%" y="-2%" width="104%" height="108%">
      <feDropShadow dx="0" dy="2" stdDeviation="3" flood-opacity="0.1" />
    </filter>
    <linearGradient id="fillGrad" x1="0" y1="0" x2="0" y2="1">
      <stop offset="0%" stop-color="#0366d6" stop-opacity="0.3"/>
      <stop offset="100%" stop-color="#0366d6" stop-opacity="0.02"/>
    </linearGradient>
  </defs>
  <rect width="600" height="150" rx="12" fill="#ffffff" filter="url(#shadow2)" stroke="#e1e4e8" stroke-width="1"/>
  <text x="20" y="24" fill="#2b3137" font-family="-apple-system,BlinkMacSystemFont,'Segoe UI',Helvetica,Arial,sans-serif" font-size="14" font-weight="600">📈 Download Growth (Actual: 77.4k)</text>
  
  <!-- Area sotto la linea -->
  <polygon fill="url(#fillGrad)" points="30.0,120.0,120 30.0,120.0 32.8,119.0 35.6,118.0 38.4,117.1 41.2,116.9 44.1,116.4 46.9,115.3 49.7,114.5 52.5,114.0 55.3,112.9 58.1,112.3 60.9,111.8 63.8,111.4 66.6,110.9 69.4,110.1 72.2,109.3 75.0,108.7 77.8,108.3 80.6,108.0 83.4,107.5 86.2,106.8 89.1,106.3 91.9,106.1 94.7,105.6 97.5,103.8 100.3,103.2 103.1,102.5 105.9,101.8 108.8,101.2 111.6,100.6 114.4,100.2 117.2,99.9 120.0,99.4 122.8,98.5 125.6,97.8 128.4,97.2 131.2,96.6 134.1,96.5 136.9,96.3 139.7,96.0 142.5,95.4 145.3,95.1 148.1,94.8 150.9,94.2 153.8,93.2 156.6,93.0 159.4,92.8 162.2,92.4 165.0,91.7 167.8,91.1 170.6,90.4 173.4,89.8 176.2,89.1 179.1,88.9 181.9,88.5 184.7,87.8 187.5,87.1 190.3,86.5 193.1,86.3 195.9,85.9 198.8,85.6 201.6,84.8 204.4,84.0 207.2,83.3 210.0,82.7 212.8,82.3 215.6,82.1 218.4,81.8 221.2,81.3 224.1,80.9 226.9,80.6 229.7,80.3 232.5,80.1 235.3,79.7 238.1,79.4 240.9,79.3 243.8,79.1 246.6,78.4 249.4,77.9 252.2,77.8 255.0,77.6 257.8,77.4 260.6,77.4 263.4,89.6 266.2,88.4 269.1,87.3 271.9,86.2 274.7,82.9 277.5,80.5 280.3,78.1 283.1,77.1 285.9,76.1 288.8,74.4 291.6,72.5 294.4,71.2 297.2,70.7 300.0,70.2 302.8,68.8 305.6,67.9 308.4,67.2 311.2,66.5 314.1,66.1 316.9,66.0 319.7,65.3 322.5,64.1 325.3,63.3 328.1,62.5 330.9,61.6 333.8,61.2 336.6,60.8 339.4,60.1 342.2,59.3 345.0,58.7 347.8,58.1 350.6,57.9 353.4,57.7 356.2,57.3 359.1,56.7 361.9,56.3 364.7,55.8 367.5,55.5 370.3,55.1 373.1,54.8 375.9,54.5 378.8,54.2 381.6,53.9 384.4,53.2 387.2,52.8 390.0,52.2 392.8,51.9 395.6,51.5 398.4,51.3 401.2,51.0 404.1,50.7 406.9,49.9 409.7,49.3 412.5,48.5 415.3,48.2 418.1,48.2 420.9,47.8 423.8,47.4 426.6,47.0 429.4,46.6 432.2,46.0 435.0,45.7 437.8,45.5 440.6,45.2 443.4,45.0 446.2,44.7 449.1,44.4 451.9,44.1 454.7,43.5 457.5,43.3 460.3,43.1 463.1,42.9 465.9,42.7 468.8,42.2 471.6,41.9 474.4,41.4 477.2,41.1 480.0,40.7 482.8,40.4 485.6,40.2 488.4,40.0 491.2,39.4 494.1,38.9 496.9,38.6 499.7,38.2 502.5,37.5 505.3,37.3 508.1,37.1 510.9,37.0 513.8,36.6 516.6,36.3 519.4,36.0 522.2,35.7 525.0,35.4 527.8,35.1 530.6,34.8 533.4,34.6 536.2,34.5 539.1,34.1 541.9,33.6 544.7,33.4 547.5,33.0 550.3,32.6 553.1,32.3 555.9,32.1 558.8,31.9 561.6,31.5 564.4,31.1 567.2,30.5 570.0,30.0 570.0,30.0,120" />
  
  <!-- Linea principale -->
  <polyline fill="none" stroke="#0366d6" stroke-width="2.5" stroke-linecap="round" stroke-linejoin="round" points="30.0,120.0 32.8,119.0 35.6,118.0 38.4,117.1 41.2,116.9 44.1,116.4 46.9,115.3 49.7,114.5 52.5,114.0 55.3,112.9 58.1,112.3 60.9,111.8 63.8,111.4 66.6,110.9 69.4,110.1 72.2,109.3 75.0,108.7 77.8,108.3 80.6,108.0 83.4,107.5 86.2,106.8 89.1,106.3 91.9,106.1 94.7,105.6 97.5,103.8 100.3,103.2 103.1,102.5 105.9,101.8 108.8,101.2 111.6,100.6 114.4,100.2 117.2,99.9 120.0,99.4 122.8,98.5 125.6,97.8 128.4,97.2 131.2,96.6 134.1,96.5 136.9,96.3 139.7,96.0 142.5,95.4 145.3,95.1 148.1,94.8 150.9,94.2 153.8,93.2 156.6,93.0 159.4,92.8 162.2,92.4 165.0,91.7 167.8,91.1 170.6,90.4 173.4,89.8 176.2,89.1 179.1,88.9 181.9,88.5 184.7,87.8 187.5,87.1 190.3,86.5 193.1,86.3 195.9,85.9 198.8,85.6 201.6,84.8 204.4,84.0 207.2,83.3 210.0,82.7 212.8,82.3 215.6,82.1 218.4,81.8 221.2,81.3 224.1,80.9 226.9,80.6 229.7,80.3 232.5,80.1 235.3,79.7 238.1,79.4 240.9,79.3 243.8,79.1 246.6,78.4 249.4,77.9 252.2,77.8 255.0,77.6 257.8,77.4 260.6,77.4 263.4,89.6 266.2,88.4 269.1,87.3 271.9,86.2 274.7,82.9 277.5,80.5 280.3,78.1 283.1,77.1 285.9,76.1 288.8,74.4 291.6,72.5 294.4,71.2 297.2,70.7 300.0,70.2 302.8,68.8 305.6,67.9 308.4,67.2 311.2,66.5 314.1,66.1 316.9,66.0 319.7,65.3 322.5,64.1 325.3,63.3 328.1,62.5 330.9,61.6 333.8,61.2 336.6,60.8 339.4,60.1 342.2,59.3 345.0,58.7 347.8,58.1 350.6,57.9 353.4,57.7 356.2,57.3 359.1,56.7 361.9,56.3 364.7,55.8 367.5,55.5 370.3,55.1 373.1,54.8 375.9,54.5 378.8,54.2 381.6,53.9 384.4,53.2 387.2,52.8 390.0,52.2 392.8,51.9 395.6,51.5 398.4,51.3 401.2,51.0 404.1,50.7 406.9,49.9 409.7,49.3 412.5,48.5 415.3,48.2 418.1,48.2 420.9,47.8 423.8,47.4 426.6,47.0 429.4,46.6 432.2,46.0 435.0,45.7 437.8,45.5 440.6,45.2 443.4,45.0 446.2,44.7 449.1,44.4 451.9,44.1 454.7,43.5 457.5,43.3 460.3,43.1 463.1,42.9 465.9,42.7 468.8,42.2 471.6,41.9 474.4,41.4 477.2,41.1 480.0,40.7 482.8,40.4 485.6,40.2 488.4,40.0 491.2,39.4 494.1,38.9 496.9,38.6 499.7,38.2 502.5,37.5 505.3,37.3 508.1,37.1 510.9,37.0 513.8,36.6 516.6,36.3 519.4,36.0 522.2,35.7 525.0,35.4 527.8,35.1 530.6,34.8 533.4,34.6 536.2,34.5 539.1,34.1 541.9,33.6 544.7,33.4 547.5,33.0 550.3,32.6 553.1,32.3 555.9,32.1 558.8,31.9 561.6,31.5 564.4,31.1 567.2,30.5 570.0,30.0" />
  
  <!-- Punto finale luminoso -->
  <circle cx="570.0" cy="30.0" r="4" fill="#ffffff" stroke="#0366d6" stroke-width="2.5" />
</svg>